<?xml version="1.0" encoding="utf-8" standalone="no"?>
<!DOCTYPE svg PUBLIC "-//W3C//DTD SVG 1.1//EN"
  "http://www.w3.org/Graphics/SVG/1.1/DTD/svg11.dtd">
<svg xmlns:xlink="http://www.w3.org/1999/xlink" width="460.8pt" height="345.6pt" viewBox="0 0 460.8 345.6" xmlns="http://www.w3.org/2000/svg" version="1.1">
 <metadata>
  <rdf:RDF xmlns:dc="http://purl.org/dc/elements/1.1/" xmlns:cc="http://creativecommons.org/ns#" xmlns:rdf="http://www.w3.org/1999/02/22-rdf-syntax-ns#">
   <cc:Work>
    <dc:type rdf:resource="http://purl.org/dc/dcmitype/StillImage"/>
    <dc:date>2023-04-27T10:52:03.295388</dc:date>
    <dc:format>image/svg+xml</dc:format>
    <dc:creator>
     <cc:Agent>
      <dc:title>Matplotlib v3.6.3, https://matplotlib.org/</dc:title>
     </cc:Agent>
    </dc:creator>
   </cc:Work>
  </rdf:RDF>
 </metadata>
 <defs>
  <style type="text/css">*{stroke-linejoin: round; stroke-linecap: butt}</style>
 </defs>
 <g id="figure_1">
  <g id="patch_1">
   <path d="M 0 345.6 
L 460.8 345.6 
L 460.8 0 
L 0 0 
z
" style="fill: #ffffff"/>
  </g>
  <g id="axes_1">
   <g id="patch_2">
    <path d="M 57.6 307.584 
L 414.72 307.584 
L 414.72 41.472 
L 57.6 41.472 
z
" style="fill: #ffffff"/>
   </g>
   <g id="matplotlib.axis_1"/>
   <g id="matplotlib.axis_2"/>
   <g id="line2d_1">
    <path d="M 281.463233 139.208781 
L 323.031578 79.370519 
L 199.504432 181.899295 
L 355.793777 237.830342 
L 293.997189 280.621084 
L 335.473182 63.877932 
L 206.125852 126.489392 
L 334.199624 184.251946 
L 272.209615 228.657844 
L 334.635959 261.455311 
L 306.662523 254.904302 
L 398.487273 262.038146 
L 276.937712 236.154691 
L 295.365529 192.576918 
L 221.813836 213.666008 
L 279.138991 53.568 
L 295.794692 248.371432 
L 299.914228 204.924054 
L 363.973408 191.760935 
L 181.626913 188.222672 
L 224.185833 174.236935 
L 298.732585 172.116058 
L 279.784194 234.539376 
L 342.204853 139.261665 
L 221.091467 131.798077 
L 340.912475 137.012983 
L 395.021355 98.637068 
L 174.422986 240.506327 
L 286.035862 238.302894 
L 185.816366 128.899189 
L 271.567733 156.786552 
L 275.497676 161.765203 
L 350.5678 273.426538 
L 298.325893 180.413779 
L 299.007383 295.488 
L 73.832727 228.742897 
L 216.604233 175.076083 
L 349.538017 184.199263 
L 143.323396 258.334559 
L 301.347401 123.140279 
L 267.591821 268.640635 
L 274.402186 228.597323 
L 276.884045 197.576038 
L 249.328102 282.718357 
L 275.63096 182.067814 
L 181.52621 215.477226 
L 170.654001 264.385931 
L 228.441804 163.296792 
L 167.233855 191.536126 
L 371.131689 210.383227 
L 292.76271 171.44106 
" clip-path="url(#p1e0169a4e5)" style="fill: none; stroke: #1f77b4; stroke-width: 1.5; stroke-linecap: square"/>
   </g>
   <g id="patch_3">
    <path d="M 57.6 307.584 
L 57.6 41.472 
" style="fill: none; stroke: #000000; stroke-width: 0.8; stroke-linejoin: miter; stroke-linecap: square"/>
   </g>
   <g id="patch_4">
    <path d="M 414.72 307.584 
L 414.72 41.472 
" style="fill: none; stroke: #000000; stroke-width: 0.8; stroke-linejoin: miter; stroke-linecap: square"/>
   </g>
   <g id="patch_5">
    <path d="M 57.6 307.584 
L 414.72 307.584 
" style="fill: none; stroke: #000000; stroke-width: 0.8; stroke-linejoin: miter; stroke-linecap: square"/>
   </g>
   <g id="patch_6">
    <path d="M 57.6 41.472 
L 414.72 41.472 
" style="fill: none; stroke: #000000; stroke-width: 0.8; stroke-linejoin: miter; stroke-linecap: square"/>
   </g>
  </g>
 </g>
 <defs>
  <clipPath id="p1e0169a4e5">
   <rect x="57.6" y="41.472" width="357.12" height="266.112"/>
  </clipPath>
 </defs>
</svg>
