<?xml version="1.0" encoding="utf-8" standalone="no"?>
<!DOCTYPE svg PUBLIC "-//W3C//DTD SVG 1.1//EN"
  "http://www.w3.org/Graphics/SVG/1.1/DTD/svg11.dtd">
<svg xmlns:xlink="http://www.w3.org/1999/xlink" width="460.8pt" height="345.6pt" viewBox="0 0 460.8 345.6" xmlns="http://www.w3.org/2000/svg" version="1.1">
 <metadata>
  <rdf:RDF xmlns:dc="http://purl.org/dc/elements/1.1/" xmlns:cc="http://creativecommons.org/ns#" xmlns:rdf="http://www.w3.org/1999/02/22-rdf-syntax-ns#">
   <cc:Work>
    <dc:type rdf:resource="http://purl.org/dc/dcmitype/StillImage"/>
    <dc:date>2023-04-22T12:21:42.061728</dc:date>
    <dc:format>image/svg+xml</dc:format>
    <dc:creator>
     <cc:Agent>
      <dc:title>Matplotlib v3.6.3, https://matplotlib.org/</dc:title>
     </cc:Agent>
    </dc:creator>
   </cc:Work>
  </rdf:RDF>
 </metadata>
 <defs>
  <style type="text/css">*{stroke-linejoin: round; stroke-linecap: butt}</style>
 </defs>
 <g id="figure_1">
  <g id="patch_1">
   <path d="M 0 345.6 
L 460.8 345.6 
L 460.8 0 
L 0 0 
z
" style="fill: #ffffff"/>
  </g>
  <g id="axes_1">
   <g id="patch_2">
    <path d="M 57.6 307.584 
L 414.72 307.584 
L 414.72 41.472 
L 57.6 41.472 
z
" style="fill: #ffffff"/>
   </g>
   <g id="matplotlib.axis_1"/>
   <g id="matplotlib.axis_2"/>
   <g id="line2d_1">
    <path d="M 126.883598 189.210736 
L 129.302191 134.627173 
L 257.864469 236.570063 
L 226.30271 170.632505 
L 355.776044 146.629786 
L 213.310519 100.426512 
L 306.436894 160.109085 
L 269.491132 183.901899 
L 151.608965 187.129144 
L 188.459458 198.5148 
L 102.103124 194.658451 
L 95.819885 186.975046 
L 197.916913 220.913926 
L 97.336942 184.724547 
L 105.571061 122.665865 
L 244.790795 198.935863 
L 378.492433 225.438044 
L 380.429371 153.797539 
L 179.060799 208.164575 
L 141.19175 176.885216 
L 113.363171 232.489595 
L 148.399202 94.340336 
L 126.099842 231.345704 
L 303.260828 176.146693 
L 233.533505 53.568 
L 93.168233 97.919043 
L 318.38262 187.343907 
L 379.686979 61.475177 
L 321.991429 280.722447 
L 227.048271 190.148671 
L 215.138436 175.168479 
L 214.379158 295.488 
L 244.555587 147.984243 
L 295.449502 122.214992 
L 167.038234 111.921251 
L 181.768156 124.280153 
L 316.27366 159.593569 
L 122.640334 179.259201 
L 186.601885 238.672398 
L 232.379924 170.08227 
L 176.593043 175.62433 
L 126.759639 179.695296 
L 225.713375 141.891087 
L 288.944693 94.963852 
L 235.847347 210.912407 
L 157.101863 163.568786 
L 304.207911 253.699875 
L 98.769853 149.883777 
L 181.137531 222.143401 
L 398.487273 254.100078 
L 73.832727 120.374143 
L 104.175204 175.960428 
L 127.676443 128.379044 
L 135.514414 184.468815 
L 185.505264 181.83646 
L 273.97366 154.202727 
L 207.689319 111.650383 
L 94.621079 177.015049 
L 128.306812 98.892101 
L 199.65913 191.027854 
L 173.428641 259.127818 
L 266.419813 215.632092 
L 293.207965 188.661952 
L 266.017019 177.734209 
L 231.332057 219.450499 
L 340.874688 146.850141 
L 245.980173 277.567757 
L 245.442732 220.169978 
L 185.693838 211.755165 
L 226.497973 176.051107 
L 258.93053 282.579614 
L 328.828911 209.834193 
L 220.052811 230.333915 
L 251.608171 166.239857 
" clip-path="url(#p7df7781166)" style="fill: none; stroke: #1f77b4; stroke-width: 1.5; stroke-linecap: square"/>
   </g>
   <g id="patch_3">
    <path d="M 57.6 307.584 
L 57.6 41.472 
" style="fill: none; stroke: #000000; stroke-width: 0.8; stroke-linejoin: miter; stroke-linecap: square"/>
   </g>
   <g id="patch_4">
    <path d="M 414.72 307.584 
L 414.72 41.472 
" style="fill: none; stroke: #000000; stroke-width: 0.8; stroke-linejoin: miter; stroke-linecap: square"/>
   </g>
   <g id="patch_5">
    <path d="M 57.6 307.584 
L 414.72 307.584 
" style="fill: none; stroke: #000000; stroke-width: 0.8; stroke-linejoin: miter; stroke-linecap: square"/>
   </g>
   <g id="patch_6">
    <path d="M 57.6 41.472 
L 414.72 41.472 
" style="fill: none; stroke: #000000; stroke-width: 0.8; stroke-linejoin: miter; stroke-linecap: square"/>
   </g>
  </g>
 </g>
 <defs>
  <clipPath id="p7df7781166">
   <rect x="57.6" y="41.472" width="357.12" height="266.112"/>
  </clipPath>
 </defs>
</svg>
