<?xml version="1.0" encoding="utf-8" standalone="no"?>
<!DOCTYPE svg PUBLIC "-//W3C//DTD SVG 1.1//EN"
  "http://www.w3.org/Graphics/SVG/1.1/DTD/svg11.dtd">
<svg xmlns:xlink="http://www.w3.org/1999/xlink" width="576pt" height="576pt" viewBox="0 0 576 576" xmlns="http://www.w3.org/2000/svg" version="1.1">
 <metadata>
  <rdf:RDF xmlns:dc="http://purl.org/dc/elements/1.1/" xmlns:cc="http://creativecommons.org/ns#" xmlns:rdf="http://www.w3.org/1999/02/22-rdf-syntax-ns#">
   <cc:Work>
    <dc:type rdf:resource="http://purl.org/dc/dcmitype/StillImage"/>
    <dc:date>2023-04-27T10:54:07.426310</dc:date>
    <dc:format>image/svg+xml</dc:format>
    <dc:creator>
     <cc:Agent>
      <dc:title>Matplotlib v3.6.3, https://matplotlib.org/</dc:title>
     </cc:Agent>
    </dc:creator>
   </cc:Work>
  </rdf:RDF>
 </metadata>
 <defs>
  <style type="text/css">*{stroke-linejoin: round; stroke-linecap: butt}</style>
 </defs>
 <g id="figure_1">
  <g id="patch_1">
   <path d="M 0 576 
L 576 576 
L 576 0 
L 0 0 
z
" style="fill: #ffffff"/>
  </g>
  <g id="axes_1">
   <g id="patch_2">
    <path d="M 72 512.64 
L 518.4 512.64 
L 518.4 69.12 
L 72 69.12 
z
" style="fill: #ffffff"/>
   </g>
   <g id="patch_3">
    <path d="M 295.2 89.28 
L 293.044559 93.013333 
L 288.733677 93.013333 
L 290.889118 96.746667 
L 288.733677 100.48 
L 284.422795 100.48 
L 282.267354 96.746667 
L 280.111913 100.48 
L 275.801031 100.48 
L 277.956472 104.213333 
L 275.801031 107.946667 
L 280.111913 107.946667 
L 282.267354 111.68 
L 280.111913 115.413333 
L 275.801031 115.413333 
L 277.956472 119.146667 
L 275.801031 122.88 
L 271.490149 122.88 
L 269.334708 119.146667 
L 267.179267 122.88 
L 262.868385 122.88 
L 260.712944 119.146667 
L 262.868385 115.413333 
L 258.557503 115.413333 
L 256.402062 111.68 
L 254.246621 115.413333 
L 249.935739 115.413333 
L 252.09118 119.146667 
L 249.935739 122.88 
L 245.624857 122.88 
L 243.469416 119.146667 
L 241.313975 122.88 
L 237.003093 122.88 
L 239.158534 126.613333 
L 237.003093 130.346667 
L 241.313975 130.346667 
L 243.469416 134.08 
L 241.313975 137.813333 
L 237.003093 137.813333 
L 239.158534 141.546667 
L 237.003093 145.28 
L 241.313975 145.28 
L 243.469416 149.013333 
L 245.624857 145.28 
L 249.935739 145.28 
L 252.09118 149.013333 
L 249.935739 152.746667 
L 254.246621 152.746667 
L 256.402062 156.48 
L 254.246621 160.213333 
L 249.935739 160.213333 
L 252.09118 163.946667 
L 249.935739 167.68 
L 245.624857 167.68 
L 243.469416 163.946667 
L 241.313975 167.68 
L 237.003093 167.68 
L 239.158534 171.413333 
L 237.003093 175.146667 
L 241.313975 175.146667 
L 243.469416 178.88 
L 241.313975 182.613333 
L 237.003093 182.613333 
L 239.158534 186.346667 
L 237.003093 190.08 
L 232.692211 190.08 
L 230.53677 186.346667 
L 228.381329 190.08 
L 224.070447 190.08 
L 221.915006 186.346667 
L 224.070447 182.613333 
L 219.759565 182.613333 
L 217.604124 178.88 
L 215.448683 182.613333 
L 211.137801 182.613333 
L 213.293242 186.346667 
L 211.137801 190.08 
L 206.826919 190.08 
L 204.671478 186.346667 
L 202.516037 190.08 
L 198.205155 190.08 
L 196.049714 186.346667 
L 198.205155 182.613333 
L 193.894273 182.613333 
L 191.738832 178.88 
L 193.894273 175.146667 
L 198.205155 175.146667 
L 196.049714 171.413333 
L 198.205155 167.68 
L 193.894273 167.68 
L 191.738832 163.946667 
L 189.583391 167.68 
L 185.272509 167.68 
L 183.117068 163.946667 
L 185.272509 160.213333 
L 180.961627 160.213333 
L 178.806186 156.48 
L 176.650745 160.213333 
L 172.339863 160.213333 
L 174.495304 163.946667 
L 172.339863 167.68 
L 168.028981 167.68 
L 165.87354 163.946667 
L 163.718099 167.68 
L 159.407217 167.68 
L 161.562658 171.413333 
L 159.407217 175.146667 
L 163.718099 175.146667 
L 165.87354 178.88 
L 163.718099 182.613333 
L 159.407217 182.613333 
L 161.562658 186.346667 
L 159.407217 190.08 
L 155.096335 190.08 
L 152.940894 186.346667 
L 150.785453 190.08 
L 146.474571 190.08 
L 144.31913 186.346667 
L 146.474571 182.613333 
L 142.163689 182.613333 
L 140.008248 178.88 
L 137.852807 182.613333 
L 133.541925 182.613333 
L 135.697366 186.346667 
L 133.541925 190.08 
L 129.231043 190.08 
L 127.075602 186.346667 
L 124.920161 190.08 
L 120.609279 190.08 
L 122.76472 193.813333 
L 120.609279 197.546667 
L 124.920161 197.546667 
L 127.075602 201.28 
L 124.920161 205.013333 
L 120.609279 205.013333 
L 122.76472 208.746667 
L 120.609279 212.48 
L 124.920161 212.48 
L 127.075602 216.213333 
L 129.231043 212.48 
L 133.541925 212.48 
L 135.697366 216.213333 
L 133.541925 219.946667 
L 137.852807 219.946667 
L 140.008248 223.68 
L 137.852807 227.413333 
L 133.541925 227.413333 
L 135.697366 231.146667 
L 133.541925 234.88 
L 129.231043 234.88 
L 127.075602 231.146667 
L 124.920161 234.88 
L 120.609279 234.88 
L 122.76472 238.613333 
L 120.609279 242.346667 
L 124.920161 242.346667 
L 127.075602 246.08 
L 124.920161 249.813333 
L 120.609279 249.813333 
L 122.76472 253.546667 
L 120.609279 257.28 
L 124.920161 257.28 
L 127.075602 261.013333 
L 129.231043 257.28 
L 133.541925 257.28 
L 135.697366 261.013333 
L 133.541925 264.746667 
L 137.852807 264.746667 
L 140.008248 268.48 
L 142.163689 264.746667 
L 146.474571 264.746667 
L 144.31913 261.013333 
L 146.474571 257.28 
L 150.785453 257.28 
L 152.940894 261.013333 
L 155.096335 257.28 
L 159.407217 257.28 
L 161.562658 261.013333 
L 159.407217 264.746667 
L 163.718099 264.746667 
L 165.87354 268.48 
L 163.718099 272.213333 
L 159.407217 272.213333 
L 161.562658 275.946667 
L 159.407217 279.68 
L 163.718099 279.68 
L 165.87354 283.413333 
L 168.028981 279.68 
L 172.339863 279.68 
L 174.495304 283.413333 
L 172.339863 287.146667 
L 176.650745 287.146667 
L 178.806186 290.88 
L 176.650745 294.613333 
L 172.339863 294.613333 
L 174.495304 298.346667 
L 172.339863 302.08 
L 168.028981 302.08 
L 165.87354 298.346667 
L 163.718099 302.08 
L 159.407217 302.08 
L 161.562658 305.813333 
L 159.407217 309.546667 
L 163.718099 309.546667 
L 165.87354 313.28 
L 163.718099 317.013333 
L 159.407217 317.013333 
L 161.562658 320.746667 
L 159.407217 324.48 
L 155.096335 324.48 
L 152.940894 320.746667 
L 150.785453 324.48 
L 146.474571 324.48 
L 144.31913 320.746667 
L 146.474571 317.013333 
L 142.163689 317.013333 
L 140.008248 313.28 
L 137.852807 317.013333 
L 133.541925 317.013333 
L 135.697366 320.746667 
L 133.541925 324.48 
L 129.231043 324.48 
L 127.075602 320.746667 
L 124.920161 324.48 
L 120.609279 324.48 
L 122.76472 328.213333 
L 120.609279 331.946667 
L 124.920161 331.946667 
L 127.075602 335.68 
L 124.920161 339.413333 
L 120.609279 339.413333 
L 122.76472 343.146667 
L 120.609279 346.88 
L 124.920161 346.88 
L 127.075602 350.613333 
L 129.231043 346.88 
L 133.541925 346.88 
L 135.697366 350.613333 
L 133.541925 354.346667 
L 137.852807 354.346667 
L 140.008248 358.08 
L 137.852807 361.813333 
L 133.541925 361.813333 
L 135.697366 365.546667 
L 133.541925 369.28 
L 129.231043 369.28 
L 127.075602 365.546667 
L 124.920161 369.28 
L 120.609279 369.28 
L 122.76472 373.013333 
L 120.609279 376.746667 
L 124.920161 376.746667 
L 127.075602 380.48 
L 124.920161 384.213333 
L 120.609279 384.213333 
L 122.76472 387.946667 
L 120.609279 391.68 
L 124.920161 391.68 
L 127.075602 395.413333 
L 129.231043 391.68 
L 133.541925 391.68 
L 135.697366 395.413333 
L 133.541925 399.146667 
L 137.852807 399.146667 
L 140.008248 402.88 
L 142.163689 399.146667 
L 146.474571 399.146667 
L 144.31913 395.413333 
L 146.474571 391.68 
L 150.785453 391.68 
L 152.940894 395.413333 
L 155.096335 391.68 
L 159.407217 391.68 
L 161.562658 395.413333 
L 159.407217 399.146667 
L 163.718099 399.146667 
L 165.87354 402.88 
L 163.718099 406.613333 
L 159.407217 406.613333 
L 161.562658 410.346667 
L 159.407217 414.08 
L 163.718099 414.08 
L 165.87354 417.813333 
L 168.028981 414.08 
L 172.339863 414.08 
L 174.495304 417.813333 
L 172.339863 421.546667 
L 176.650745 421.546667 
L 178.806186 425.28 
L 180.961627 421.546667 
L 185.272509 421.546667 
L 183.117068 417.813333 
L 185.272509 414.08 
L 189.583391 414.08 
L 191.738832 417.813333 
L 193.894273 414.08 
L 198.205155 414.08 
L 196.049714 410.346667 
L 198.205155 406.613333 
L 193.894273 406.613333 
L 191.738832 402.88 
L 193.894273 399.146667 
L 198.205155 399.146667 
L 196.049714 395.413333 
L 198.205155 391.68 
L 202.516037 391.68 
L 204.671478 395.413333 
L 206.826919 391.68 
L 211.137801 391.68 
L 213.293242 395.413333 
L 211.137801 399.146667 
L 215.448683 399.146667 
L 217.604124 402.88 
L 219.759565 399.146667 
L 224.070447 399.146667 
L 221.915006 395.413333 
L 224.070447 391.68 
L 228.381329 391.68 
L 230.53677 395.413333 
L 232.692211 391.68 
L 237.003093 391.68 
L 239.158534 395.413333 
L 237.003093 399.146667 
L 241.313975 399.146667 
L 243.469416 402.88 
L 241.313975 406.613333 
L 237.003093 406.613333 
L 239.158534 410.346667 
L 237.003093 414.08 
L 241.313975 414.08 
L 243.469416 417.813333 
L 245.624857 414.08 
L 249.935739 414.08 
L 252.09118 417.813333 
L 249.935739 421.546667 
L 254.246621 421.546667 
L 256.402062 425.28 
L 254.246621 429.013333 
L 249.935739 429.013333 
L 252.09118 432.746667 
L 249.935739 436.48 
L 245.624857 436.48 
L 243.469416 432.746667 
L 241.313975 436.48 
L 237.003093 436.48 
L 239.158534 440.213333 
L 237.003093 443.946667 
L 241.313975 443.946667 
L 243.469416 447.68 
L 241.313975 451.413333 
L 237.003093 451.413333 
L 239.158534 455.146667 
L 237.003093 458.88 
L 241.313975 458.88 
L 243.469416 462.613333 
L 245.624857 458.88 
L 249.935739 458.88 
L 252.09118 462.613333 
L 249.935739 466.346667 
L 254.246621 466.346667 
L 256.402062 470.08 
L 258.557503 466.346667 
L 262.868385 466.346667 
L 260.712944 462.613333 
L 262.868385 458.88 
L 267.179267 458.88 
L 269.334708 462.613333 
L 271.490149 458.88 
L 275.801031 458.88 
L 277.956472 462.613333 
L 275.801031 466.346667 
L 280.111913 466.346667 
L 282.267354 470.08 
L 280.111913 473.813333 
L 275.801031 473.813333 
L 277.956472 477.546667 
L 275.801031 481.28 
L 280.111913 481.28 
L 282.267354 485.013333 
L 284.422795 481.28 
L 288.733677 481.28 
L 290.889118 485.013333 
L 288.733677 488.746667 
L 293.044559 488.746667 
L 295.2 492.48 
L 297.355441 488.746667 
L 301.666323 488.746667 
L 299.510882 485.013333 
L 301.666323 481.28 
L 305.977205 481.28 
L 308.132646 485.013333 
L 310.288087 481.28 
L 314.598969 481.28 
L 312.443528 477.546667 
L 314.598969 473.813333 
L 310.288087 473.813333 
L 308.132646 470.08 
L 310.288087 466.346667 
L 314.598969 466.346667 
L 312.443528 462.613333 
L 314.598969 458.88 
L 318.909851 458.88 
L 321.065292 462.613333 
L 323.220733 458.88 
L 327.531615 458.88 
L 329.687056 462.613333 
L 327.531615 466.346667 
L 331.842497 466.346667 
L 333.997938 470.08 
L 336.153379 466.346667 
L 340.464261 466.346667 
L 338.30882 462.613333 
L 340.464261 458.88 
L 344.775143 458.88 
L 346.930584 462.613333 
L 349.086025 458.88 
L 353.396907 458.88 
L 351.241466 455.146667 
L 353.396907 451.413333 
L 349.086025 451.413333 
L 346.930584 447.68 
L 349.086025 443.946667 
L 353.396907 443.946667 
L 351.241466 440.213333 
L 353.396907 436.48 
L 349.086025 436.48 
L 346.930584 432.746667 
L 344.775143 436.48 
L 340.464261 436.48 
L 338.30882 432.746667 
L 340.464261 429.013333 
L 336.153379 429.013333 
L 333.997938 425.28 
L 336.153379 421.546667 
L 340.464261 421.546667 
L 338.30882 417.813333 
L 340.464261 414.08 
L 344.775143 414.08 
L 346.930584 417.813333 
L 349.086025 414.08 
L 353.396907 414.08 
L 351.241466 410.346667 
L 353.396907 406.613333 
L 349.086025 406.613333 
L 346.930584 402.88 
L 349.086025 399.146667 
L 353.396907 399.146667 
L 351.241466 395.413333 
L 353.396907 391.68 
L 357.707789 391.68 
L 359.86323 395.413333 
L 362.018671 391.68 
L 366.329553 391.68 
L 368.484994 395.413333 
L 366.329553 399.146667 
L 370.640435 399.146667 
L 372.795876 402.88 
L 374.951317 399.146667 
L 379.262199 399.146667 
L 377.106758 395.413333 
L 379.262199 391.68 
L 383.573081 391.68 
L 385.728522 395.413333 
L 387.883963 391.68 
L 392.194845 391.68 
L 394.350286 395.413333 
L 392.194845 399.146667 
L 396.505727 399.146667 
L 398.661168 402.88 
L 396.505727 406.613333 
L 392.194845 406.613333 
L 394.350286 410.346667 
L 392.194845 414.08 
L 396.505727 414.08 
L 398.661168 417.813333 
L 400.816609 414.08 
L 405.127491 414.08 
L 407.282932 417.813333 
L 405.127491 421.546667 
L 409.438373 421.546667 
L 411.593814 425.28 
L 413.749255 421.546667 
L 418.060137 421.546667 
L 415.904696 417.813333 
L 418.060137 414.08 
L 422.371019 414.08 
L 424.52646 417.813333 
L 426.681901 414.08 
L 430.992783 414.08 
L 428.837342 410.346667 
L 430.992783 406.613333 
L 426.681901 406.613333 
L 424.52646 402.88 
L 426.681901 399.146667 
L 430.992783 399.146667 
L 428.837342 395.413333 
L 430.992783 391.68 
L 435.303665 391.68 
L 437.459106 395.413333 
L 439.614547 391.68 
L 443.925429 391.68 
L 446.08087 395.413333 
L 443.925429 399.146667 
L 448.236311 399.146667 
L 450.391752 402.88 
L 452.547193 399.146667 
L 456.858075 399.146667 
L 454.702634 395.413333 
L 456.858075 391.68 
L 461.168957 391.68 
L 463.324398 395.413333 
L 465.479839 391.68 
L 469.790721 391.68 
L 467.63528 387.946667 
L 469.790721 384.213333 
L 465.479839 384.213333 
L 463.324398 380.48 
L 465.479839 376.746667 
L 469.790721 376.746667 
L 467.63528 373.013333 
L 469.790721 369.28 
L 465.479839 369.28 
L 463.324398 365.546667 
L 461.168957 369.28 
L 456.858075 369.28 
L 454.702634 365.546667 
L 456.858075 361.813333 
L 452.547193 361.813333 
L 450.391752 358.08 
L 452.547193 354.346667 
L 456.858075 354.346667 
L 454.702634 350.613333 
L 456.858075 346.88 
L 461.168957 346.88 
L 463.324398 350.613333 
L 465.479839 346.88 
L 469.790721 346.88 
L 467.63528 343.146667 
L 469.790721 339.413333 
L 465.479839 339.413333 
L 463.324398 335.68 
L 465.479839 331.946667 
L 469.790721 331.946667 
L 467.63528 328.213333 
L 469.790721 324.48 
L 465.479839 324.48 
L 463.324398 320.746667 
L 461.168957 324.48 
L 456.858075 324.48 
L 454.702634 320.746667 
L 456.858075 317.013333 
L 452.547193 317.013333 
L 450.391752 313.28 
L 448.236311 317.013333 
L 443.925429 317.013333 
L 446.08087 320.746667 
L 443.925429 324.48 
L 439.614547 324.48 
L 437.459106 320.746667 
L 435.303665 324.48 
L 430.992783 324.48 
L 428.837342 320.746667 
L 430.992783 317.013333 
L 426.681901 317.013333 
L 424.52646 313.28 
L 426.681901 309.546667 
L 430.992783 309.546667 
L 428.837342 305.813333 
L 430.992783 302.08 
L 426.681901 302.08 
L 424.52646 298.346667 
L 422.371019 302.08 
L 418.060137 302.08 
L 415.904696 298.346667 
L 418.060137 294.613333 
L 413.749255 294.613333 
L 411.593814 290.88 
L 413.749255 287.146667 
L 418.060137 287.146667 
L 415.904696 283.413333 
L 418.060137 279.68 
L 422.371019 279.68 
L 424.52646 283.413333 
L 426.681901 279.68 
L 430.992783 279.68 
L 428.837342 275.946667 
L 430.992783 272.213333 
L 426.681901 272.213333 
L 424.52646 268.48 
L 426.681901 264.746667 
L 430.992783 264.746667 
L 428.837342 261.013333 
L 430.992783 257.28 
L 435.303665 257.28 
L 437.459106 261.013333 
L 439.614547 257.28 
L 443.925429 257.28 
L 446.08087 261.013333 
L 443.925429 264.746667 
L 448.236311 264.746667 
L 450.391752 268.48 
L 452.547193 264.746667 
L 456.858075 264.746667 
L 454.702634 261.013333 
L 456.858075 257.28 
L 461.168957 257.28 
L 463.324398 261.013333 
L 465.479839 257.28 
L 469.790721 257.28 
L 467.63528 253.546667 
L 469.790721 249.813333 
L 465.479839 249.813333 
L 463.324398 246.08 
L 465.479839 242.346667 
L 469.790721 242.346667 
L 467.63528 238.613333 
L 469.790721 234.88 
L 465.479839 234.88 
L 463.324398 231.146667 
L 461.168957 234.88 
L 456.858075 234.88 
L 454.702634 231.146667 
L 456.858075 227.413333 
L 452.547193 227.413333 
L 450.391752 223.68 
L 452.547193 219.946667 
L 456.858075 219.946667 
L 454.702634 216.213333 
L 456.858075 212.48 
L 461.168957 212.48 
L 463.324398 216.213333 
L 465.479839 212.48 
L 469.790721 212.48 
L 467.63528 208.746667 
L 469.790721 205.013333 
L 465.479839 205.013333 
L 463.324398 201.28 
L 465.479839 197.546667 
L 469.790721 197.546667 
L 467.63528 193.813333 
L 469.790721 190.08 
L 465.479839 190.08 
L 463.324398 186.346667 
L 461.168957 190.08 
L 456.858075 190.08 
L 454.702634 186.346667 
L 456.858075 182.613333 
L 452.547193 182.613333 
L 450.391752 178.88 
L 448.236311 182.613333 
L 443.925429 182.613333 
L 446.08087 186.346667 
L 443.925429 190.08 
L 439.614547 190.08 
L 437.459106 186.346667 
L 435.303665 190.08 
L 430.992783 190.08 
L 428.837342 186.346667 
L 430.992783 182.613333 
L 426.681901 182.613333 
L 424.52646 178.88 
L 426.681901 175.146667 
L 430.992783 175.146667 
L 428.837342 171.413333 
L 430.992783 167.68 
L 426.681901 167.68 
L 424.52646 163.946667 
L 422.371019 167.68 
L 418.060137 167.68 
L 415.904696 163.946667 
L 418.060137 160.213333 
L 413.749255 160.213333 
L 411.593814 156.48 
L 409.438373 160.213333 
L 405.127491 160.213333 
L 407.282932 163.946667 
L 405.127491 167.68 
L 400.816609 167.68 
L 398.661168 163.946667 
L 396.505727 167.68 
L 392.194845 167.68 
L 394.350286 171.413333 
L 392.194845 175.146667 
L 396.505727 175.146667 
L 398.661168 178.88 
L 396.505727 182.613333 
L 392.194845 182.613333 
L 394.350286 186.346667 
L 392.194845 190.08 
L 387.883963 190.08 
L 385.728522 186.346667 
L 383.573081 190.08 
L 379.262199 190.08 
L 377.106758 186.346667 
L 379.262199 182.613333 
L 374.951317 182.613333 
L 372.795876 178.88 
L 370.640435 182.613333 
L 366.329553 182.613333 
L 368.484994 186.346667 
L 366.329553 190.08 
L 362.018671 190.08 
L 359.86323 186.346667 
L 357.707789 190.08 
L 353.396907 190.08 
L 351.241466 186.346667 
L 353.396907 182.613333 
L 349.086025 182.613333 
L 346.930584 178.88 
L 349.086025 175.146667 
L 353.396907 175.146667 
L 351.241466 171.413333 
L 353.396907 167.68 
L 349.086025 167.68 
L 346.930584 163.946667 
L 344.775143 167.68 
L 340.464261 167.68 
L 338.30882 163.946667 
L 340.464261 160.213333 
L 336.153379 160.213333 
L 333.997938 156.48 
L 336.153379 152.746667 
L 340.464261 152.746667 
L 338.30882 149.013333 
L 340.464261 145.28 
L 344.775143 145.28 
L 346.930584 149.013333 
L 349.086025 145.28 
L 353.396907 145.28 
L 351.241466 141.546667 
L 353.396907 137.813333 
L 349.086025 137.813333 
L 346.930584 134.08 
L 349.086025 130.346667 
L 353.396907 130.346667 
L 351.241466 126.613333 
L 353.396907 122.88 
L 349.086025 122.88 
L 346.930584 119.146667 
L 344.775143 122.88 
L 340.464261 122.88 
L 338.30882 119.146667 
L 340.464261 115.413333 
L 336.153379 115.413333 
L 333.997938 111.68 
L 331.842497 115.413333 
L 327.531615 115.413333 
L 329.687056 119.146667 
L 327.531615 122.88 
L 323.220733 122.88 
L 321.065292 119.146667 
L 318.909851 122.88 
L 314.598969 122.88 
L 312.443528 119.146667 
L 314.598969 115.413333 
L 310.288087 115.413333 
L 308.132646 111.68 
L 310.288087 107.946667 
L 314.598969 107.946667 
L 312.443528 104.213333 
L 314.598969 100.48 
L 310.288087 100.48 
L 308.132646 96.746667 
L 305.977205 100.48 
L 301.666323 100.48 
L 299.510882 96.746667 
L 301.666323 93.013333 
L 297.355441 93.013333 
z
" clip-path="url(#pe4287d5399)" style="fill: #1f77b4"/>
   </g>
   <g id="matplotlib.axis_1"/>
   <g id="matplotlib.axis_2"/>
   <g id="patch_4">
    <path d="M 72 512.64 
L 72 69.12 
" style="fill: none; stroke: #000000; stroke-width: 0.8; stroke-linejoin: miter; stroke-linecap: square"/>
   </g>
   <g id="patch_5">
    <path d="M 518.4 512.64 
L 518.4 69.12 
" style="fill: none; stroke: #000000; stroke-width: 0.8; stroke-linejoin: miter; stroke-linecap: square"/>
   </g>
   <g id="patch_6">
    <path d="M 72 512.64 
L 518.4 512.64 
" style="fill: none; stroke: #000000; stroke-width: 0.8; stroke-linejoin: miter; stroke-linecap: square"/>
   </g>
   <g id="patch_7">
    <path d="M 72 69.12 
L 518.4 69.12 
" style="fill: none; stroke: #000000; stroke-width: 0.8; stroke-linejoin: miter; stroke-linecap: square"/>
   </g>
  </g>
 </g>
 <defs>
  <clipPath id="pe4287d5399">
   <rect x="72" y="69.12" width="446.4" height="443.52"/>
  </clipPath>
 </defs>
</svg>
