<?xml version="1.0" encoding="utf-8" standalone="no"?>
<!DOCTYPE svg PUBLIC "-//W3C//DTD SVG 1.1//EN"
  "http://www.w3.org/Graphics/SVG/1.1/DTD/svg11.dtd">
<svg xmlns:xlink="http://www.w3.org/1999/xlink" width="576pt" height="576pt" viewBox="0 0 576 576" xmlns="http://www.w3.org/2000/svg" version="1.1">
 <metadata>
  <rdf:RDF xmlns:dc="http://purl.org/dc/elements/1.1/" xmlns:cc="http://creativecommons.org/ns#" xmlns:rdf="http://www.w3.org/1999/02/22-rdf-syntax-ns#">
   <cc:Work>
    <dc:type rdf:resource="http://purl.org/dc/dcmitype/StillImage"/>
    <dc:date>2023-04-12T12:07:02.839809</dc:date>
    <dc:format>image/svg+xml</dc:format>
    <dc:creator>
     <cc:Agent>
      <dc:title>Matplotlib v3.6.3, https://matplotlib.org/</dc:title>
     </cc:Agent>
    </dc:creator>
   </cc:Work>
  </rdf:RDF>
 </metadata>
 <defs>
  <style type="text/css">*{stroke-linejoin: round; stroke-linecap: butt}</style>
 </defs>
 <g id="figure_1">
  <g id="patch_1">
   <path d="M 0 576 
L 576 576 
L 576 0 
L 0 0 
z
" style="fill: #ffffff"/>
  </g>
  <g id="axes_1">
   <g id="patch_2">
    <path d="M 72 512.64 
L 518.4 512.64 
L 518.4 69.12 
L 72 69.12 
z
" style="fill: #ffffff"/>
   </g>
   <g id="patch_3">
    <path d="M 295.2 89.28 
L 275.801031 122.88 
L 237.003093 122.88 
L 256.402062 156.48 
L 237.003093 190.08 
L 198.205155 190.08 
L 178.806186 156.48 
L 159.407217 190.08 
L 120.609279 190.08 
L 140.008248 223.68 
L 120.609279 257.28 
L 159.407217 257.28 
L 178.806186 290.88 
L 159.407217 324.48 
L 120.609279 324.48 
L 140.008248 358.08 
L 120.609279 391.68 
L 159.407217 391.68 
L 178.806186 425.28 
L 198.205155 391.68 
L 237.003093 391.68 
L 256.402062 425.28 
L 237.003093 458.88 
L 275.801031 458.88 
L 295.2 492.48 
L 314.598969 458.88 
L 353.396907 458.88 
L 333.997938 425.28 
L 353.396907 391.68 
L 392.194845 391.68 
L 411.593814 425.28 
L 430.992783 391.68 
L 469.790721 391.68 
L 450.391752 358.08 
L 469.790721 324.48 
L 430.992783 324.48 
L 411.593814 290.88 
L 430.992783 257.28 
L 469.790721 257.28 
L 450.391752 223.68 
L 469.790721 190.08 
L 430.992783 190.08 
L 411.593814 156.48 
L 392.194845 190.08 
L 353.396907 190.08 
L 333.997938 156.48 
L 353.396907 122.88 
L 314.598969 122.88 
z
" clip-path="url(#p1a51cec420)" style="fill: #1f77b4"/>
   </g>
   <g id="matplotlib.axis_1"/>
   <g id="matplotlib.axis_2"/>
   <g id="patch_4">
    <path d="M 72 512.64 
L 72 69.12 
" style="fill: none; stroke: #000000; stroke-width: 0.8; stroke-linejoin: miter; stroke-linecap: square"/>
   </g>
   <g id="patch_5">
    <path d="M 518.4 512.64 
L 518.4 69.12 
" style="fill: none; stroke: #000000; stroke-width: 0.8; stroke-linejoin: miter; stroke-linecap: square"/>
   </g>
   <g id="patch_6">
    <path d="M 72 512.64 
L 518.4 512.64 
" style="fill: none; stroke: #000000; stroke-width: 0.8; stroke-linejoin: miter; stroke-linecap: square"/>
   </g>
   <g id="patch_7">
    <path d="M 72 69.12 
L 518.4 69.12 
" style="fill: none; stroke: #000000; stroke-width: 0.8; stroke-linejoin: miter; stroke-linecap: square"/>
   </g>
  </g>
 </g>
 <defs>
  <clipPath id="p1a51cec420">
   <rect x="72" y="69.12" width="446.4" height="443.52"/>
  </clipPath>
 </defs>
</svg>
