<?xml version="1.0" encoding="utf-8" standalone="no"?>
<!DOCTYPE svg PUBLIC "-//W3C//DTD SVG 1.1//EN"
  "http://www.w3.org/Graphics/SVG/1.1/DTD/svg11.dtd">
<svg xmlns:xlink="http://www.w3.org/1999/xlink" width="576pt" height="576pt" viewBox="0 0 576 576" xmlns="http://www.w3.org/2000/svg" version="1.1">
 <metadata>
  <rdf:RDF xmlns:dc="http://purl.org/dc/elements/1.1/" xmlns:cc="http://creativecommons.org/ns#" xmlns:rdf="http://www.w3.org/1999/02/22-rdf-syntax-ns#">
   <cc:Work>
    <dc:type rdf:resource="http://purl.org/dc/dcmitype/StillImage"/>
    <dc:date>2023-05-15T19:43:37.672936</dc:date>
    <dc:format>image/svg+xml</dc:format>
    <dc:creator>
     <cc:Agent>
      <dc:title>Matplotlib v3.6.3, https://matplotlib.org/</dc:title>
     </cc:Agent>
    </dc:creator>
   </cc:Work>
  </rdf:RDF>
 </metadata>
 <defs>
  <style type="text/css">*{stroke-linejoin: round; stroke-linecap: butt}</style>
 </defs>
 <g id="figure_1">
  <g id="patch_1">
   <path d="M 0 576 
L 576 576 
L 576 0 
L 0 0 
z
" style="fill: #ffffff"/>
  </g>
  <g id="axes_1">
   <g id="patch_2">
    <path d="M 72 512.64 
L 518.4 512.64 
L 518.4 69.12 
L 72 69.12 
z
" style="fill: #ffffff"/>
   </g>
   <g id="patch_3">
    <path d="M 295.2 89.28 
L 288.733677 100.48 
L 275.801031 100.48 
L 282.267354 111.68 
L 275.801031 122.88 
L 262.868385 122.88 
L 256.402062 111.68 
L 249.935739 122.88 
L 237.003093 122.88 
L 243.469416 134.08 
L 237.003093 145.28 
L 249.935739 145.28 
L 256.402062 156.48 
L 249.935739 167.68 
L 237.003093 167.68 
L 243.469416 178.88 
L 237.003093 190.08 
L 224.070447 190.08 
L 217.604124 178.88 
L 211.137801 190.08 
L 198.205155 190.08 
L 191.738832 178.88 
L 198.205155 167.68 
L 185.272509 167.68 
L 178.806186 156.48 
L 172.339863 167.68 
L 159.407217 167.68 
L 165.87354 178.88 
L 159.407217 190.08 
L 146.474571 190.08 
L 140.008248 178.88 
L 133.541925 190.08 
L 120.609279 190.08 
L 127.075602 201.28 
L 120.609279 212.48 
L 133.541925 212.48 
L 140.008248 223.68 
L 133.541925 234.88 
L 120.609279 234.88 
L 127.075602 246.08 
L 120.609279 257.28 
L 133.541925 257.28 
L 140.008248 268.48 
L 146.474571 257.28 
L 159.407217 257.28 
L 165.87354 268.48 
L 159.407217 279.68 
L 172.339863 279.68 
L 178.806186 290.88 
L 172.339863 302.08 
L 159.407217 302.08 
L 165.87354 313.28 
L 159.407217 324.48 
L 146.474571 324.48 
L 140.008248 313.28 
L 133.541925 324.48 
L 120.609279 324.48 
L 127.075602 335.68 
L 120.609279 346.88 
L 133.541925 346.88 
L 140.008248 358.08 
L 133.541925 369.28 
L 120.609279 369.28 
L 127.075602 380.48 
L 120.609279 391.68 
L 133.541925 391.68 
L 140.008248 402.88 
L 146.474571 391.68 
L 159.407217 391.68 
L 165.87354 402.88 
L 159.407217 414.08 
L 172.339863 414.08 
L 178.806186 425.28 
L 185.272509 414.08 
L 198.205155 414.08 
L 191.738832 402.88 
L 198.205155 391.68 
L 211.137801 391.68 
L 217.604124 402.88 
L 224.070447 391.68 
L 237.003093 391.68 
L 243.469416 402.88 
L 237.003093 414.08 
L 249.935739 414.08 
L 256.402062 425.28 
L 249.935739 436.48 
L 237.003093 436.48 
L 243.469416 447.68 
L 237.003093 458.88 
L 249.935739 458.88 
L 256.402062 470.08 
L 262.868385 458.88 
L 275.801031 458.88 
L 282.267354 470.08 
L 275.801031 481.28 
L 288.733677 481.28 
L 295.2 492.48 
L 301.666323 481.28 
L 314.598969 481.28 
L 308.132646 470.08 
L 314.598969 458.88 
L 327.531615 458.88 
L 333.997938 470.08 
L 340.464261 458.88 
L 353.396907 458.88 
L 346.930584 447.68 
L 353.396907 436.48 
L 340.464261 436.48 
L 333.997938 425.28 
L 340.464261 414.08 
L 353.396907 414.08 
L 346.930584 402.88 
L 353.396907 391.68 
L 366.329553 391.68 
L 372.795876 402.88 
L 379.262199 391.68 
L 392.194845 391.68 
L 398.661168 402.88 
L 392.194845 414.08 
L 405.127491 414.08 
L 411.593814 425.28 
L 418.060137 414.08 
L 430.992783 414.08 
L 424.52646 402.88 
L 430.992783 391.68 
L 443.925429 391.68 
L 450.391752 402.88 
L 456.858075 391.68 
L 469.790721 391.68 
L 463.324398 380.48 
L 469.790721 369.28 
L 456.858075 369.28 
L 450.391752 358.08 
L 456.858075 346.88 
L 469.790721 346.88 
L 463.324398 335.68 
L 469.790721 324.48 
L 456.858075 324.48 
L 450.391752 313.28 
L 443.925429 324.48 
L 430.992783 324.48 
L 424.52646 313.28 
L 430.992783 302.08 
L 418.060137 302.08 
L 411.593814 290.88 
L 418.060137 279.68 
L 430.992783 279.68 
L 424.52646 268.48 
L 430.992783 257.28 
L 443.925429 257.28 
L 450.391752 268.48 
L 456.858075 257.28 
L 469.790721 257.28 
L 463.324398 246.08 
L 469.790721 234.88 
L 456.858075 234.88 
L 450.391752 223.68 
L 456.858075 212.48 
L 469.790721 212.48 
L 463.324398 201.28 
L 469.790721 190.08 
L 456.858075 190.08 
L 450.391752 178.88 
L 443.925429 190.08 
L 430.992783 190.08 
L 424.52646 178.88 
L 430.992783 167.68 
L 418.060137 167.68 
L 411.593814 156.48 
L 405.127491 167.68 
L 392.194845 167.68 
L 398.661168 178.88 
L 392.194845 190.08 
L 379.262199 190.08 
L 372.795876 178.88 
L 366.329553 190.08 
L 353.396907 190.08 
L 346.930584 178.88 
L 353.396907 167.68 
L 340.464261 167.68 
L 333.997938 156.48 
L 340.464261 145.28 
L 353.396907 145.28 
L 346.930584 134.08 
L 353.396907 122.88 
L 340.464261 122.88 
L 333.997938 111.68 
L 327.531615 122.88 
L 314.598969 122.88 
L 308.132646 111.68 
L 314.598969 100.48 
L 301.666323 100.48 
z
" clip-path="url(#p45d93d4fed)" style="fill: #1f77b4"/>
   </g>
   <g id="matplotlib.axis_1"/>
   <g id="matplotlib.axis_2"/>
   <g id="patch_4">
    <path d="M 72 512.64 
L 72 69.12 
" style="fill: none; stroke: #000000; stroke-width: 0.8; stroke-linejoin: miter; stroke-linecap: square"/>
   </g>
   <g id="patch_5">
    <path d="M 518.4 512.64 
L 518.4 69.12 
" style="fill: none; stroke: #000000; stroke-width: 0.8; stroke-linejoin: miter; stroke-linecap: square"/>
   </g>
   <g id="patch_6">
    <path d="M 72 512.64 
L 518.4 512.64 
" style="fill: none; stroke: #000000; stroke-width: 0.8; stroke-linejoin: miter; stroke-linecap: square"/>
   </g>
   <g id="patch_7">
    <path d="M 72 69.12 
L 518.4 69.12 
" style="fill: none; stroke: #000000; stroke-width: 0.8; stroke-linejoin: miter; stroke-linecap: square"/>
   </g>
  </g>
 </g>
 <defs>
  <clipPath id="p45d93d4fed">
   <rect x="72" y="69.12" width="446.4" height="443.52"/>
  </clipPath>
 </defs>
</svg>
