<?xml version="1.0" encoding="utf-8" standalone="no"?>
<!DOCTYPE svg PUBLIC "-//W3C//DTD SVG 1.1//EN"
  "http://www.w3.org/Graphics/SVG/1.1/DTD/svg11.dtd">
<svg xmlns:xlink="http://www.w3.org/1999/xlink" width="460.8pt" height="345.6pt" viewBox="0 0 460.8 345.6" xmlns="http://www.w3.org/2000/svg" version="1.1">
 <metadata>
  <rdf:RDF xmlns:dc="http://purl.org/dc/elements/1.1/" xmlns:cc="http://creativecommons.org/ns#" xmlns:rdf="http://www.w3.org/1999/02/22-rdf-syntax-ns#">
   <cc:Work>
    <dc:type rdf:resource="http://purl.org/dc/dcmitype/StillImage"/>
    <dc:date>2023-04-24T10:55:27.807630</dc:date>
    <dc:format>image/svg+xml</dc:format>
    <dc:creator>
     <cc:Agent>
      <dc:title>Matplotlib v3.6.3, https://matplotlib.org/</dc:title>
     </cc:Agent>
    </dc:creator>
   </cc:Work>
  </rdf:RDF>
 </metadata>
 <defs>
  <style type="text/css">*{stroke-linejoin: round; stroke-linecap: butt}</style>
 </defs>
 <g id="figure_1">
  <g id="patch_1">
   <path d="M 0 345.6 
L 460.8 345.6 
L 460.8 0 
L 0 0 
z
" style="fill: #ffffff"/>
  </g>
  <g id="axes_1">
   <g id="patch_2">
    <path d="M 57.6 307.584 
L 414.72 307.584 
L 414.72 41.472 
L 57.6 41.472 
z
" style="fill: #ffffff"/>
   </g>
   <g id="matplotlib.axis_1"/>
   <g id="matplotlib.axis_2"/>
   <g id="line2d_1">
    <path d="M 129.479862 58.534988 
L 147.798646 55.666234 
L 167.881534 54.009201 
L 189.327579 53.580782 
L 211.708616 54.385342 
L 234.577817 56.414681 
L 257.478605 59.648111 
L 279.953775 64.052669 
L 301.554617 69.583453 
L 321.849879 76.18408 
L 340.434371 83.787262 
L 356.937062 92.315488 
L 371.02848 101.681818 
L 382.427295 111.79077 
L 390.905935 122.539287 
L 396.295125 133.817797 
L 398.487273 145.511322 
L 397.438612 157.500653 
L 393.17008 169.663568 
L 385.766896 181.876072 
L 375.376862 194.013667 
L 362.207411 205.952619 
L 346.521467 217.571216 
L 328.632194 228.751015 
L 308.896746 239.378044 
L 287.709134 249.343968 
L 265.492361 258.54719 
L 242.689978 266.89389 
L 219.757225 274.298979 
L 197.151949 280.686965 
L 175.325455 285.992727 
L 154.713502 290.162177 
L 135.7276 293.152809 
L 118.746796 294.934137 
L 104.110106 295.488 
L 92.109747 294.808752 
L 82.985301 292.903318 
L 76.918936 289.791123 
L 74.031763 285.503892 
L 74.381425 280.085333 
L 77.96094 273.590683 
L 84.698845 266.086152 
L 94.46062 257.648243 
L 107.051373 248.362976 
L 122.219736 238.325008 
L 139.662877 227.636669 
L 159.03255 216.406922 
L 179.942046 204.750245 
L 201.973914 192.785472 
L 224.688295 180.634575 
L 247.631705 168.421425 
L 270.346086 156.270528 
L 292.377954 144.305755 
L 313.28745 132.649078 
L 332.657123 121.419331 
L 350.100264 110.730992 
L 365.268627 100.693024 
L 377.85938 91.407757 
L 387.621155 82.969848 
L 394.35906 75.465317 
L 397.938575 68.970667 
L 398.288237 63.552108 
L 395.401064 59.264877 
L 389.334699 56.152682 
L 380.210253 54.247248 
L 368.209894 53.568 
L 353.573204 54.121863 
L 336.5924 55.903191 
L 317.606498 58.893823 
L 296.994545 63.063273 
L 275.168051 68.369035 
L 252.562775 74.757021 
L 229.630022 82.16211 
L 206.827639 90.50881 
L 184.610866 99.712032 
L 163.423254 109.677956 
L 143.687806 120.304985 
L 125.798533 131.484784 
L 110.112589 143.103381 
L 96.943138 155.042333 
L 86.553104 167.179928 
L 79.14992 179.392432 
L 74.881388 191.555347 
L 73.832727 203.544678 
L 76.024875 215.238203 
L 81.414065 226.516713 
L 89.892705 237.26523 
L 101.29152 247.374182 
L 115.382938 256.740512 
L 131.885629 265.268738 
L 150.470121 272.87192 
L 170.765383 279.472547 
L 192.366225 285.003331 
L 214.841395 289.407889 
L 237.742183 292.641319 
L 260.611384 294.670658 
L 282.992421 295.475218 
L 304.438466 295.046799 
L 324.521354 293.389766 
L 342.840138 290.521012 
" clip-path="url(#pf81b9591b6)" style="fill: none; stroke: #1f77b4; stroke-width: 1.5; stroke-linecap: square"/>
   </g>
   <g id="patch_3">
    <path d="M 57.6 307.584 
L 57.6 41.472 
" style="fill: none; stroke: #000000; stroke-width: 0.8; stroke-linejoin: miter; stroke-linecap: square"/>
   </g>
   <g id="patch_4">
    <path d="M 414.72 307.584 
L 414.72 41.472 
" style="fill: none; stroke: #000000; stroke-width: 0.8; stroke-linejoin: miter; stroke-linecap: square"/>
   </g>
   <g id="patch_5">
    <path d="M 57.6 307.584 
L 414.72 307.584 
" style="fill: none; stroke: #000000; stroke-width: 0.8; stroke-linejoin: miter; stroke-linecap: square"/>
   </g>
   <g id="patch_6">
    <path d="M 57.6 41.472 
L 414.72 41.472 
" style="fill: none; stroke: #000000; stroke-width: 0.8; stroke-linejoin: miter; stroke-linecap: square"/>
   </g>
  </g>
 </g>
 <defs>
  <clipPath id="pf81b9591b6">
   <rect x="57.6" y="41.472" width="357.12" height="266.112"/>
  </clipPath>
 </defs>
</svg>
