<?xml version="1.0" encoding="utf-8" standalone="no"?>
<!DOCTYPE svg PUBLIC "-//W3C//DTD SVG 1.1//EN"
  "http://www.w3.org/Graphics/SVG/1.1/DTD/svg11.dtd">
<svg xmlns:xlink="http://www.w3.org/1999/xlink" width="460.8pt" height="345.6pt" viewBox="0 0 460.8 345.6" xmlns="http://www.w3.org/2000/svg" version="1.1">
 <metadata>
  <rdf:RDF xmlns:dc="http://purl.org/dc/elements/1.1/" xmlns:cc="http://creativecommons.org/ns#" xmlns:rdf="http://www.w3.org/1999/02/22-rdf-syntax-ns#">
   <cc:Work>
    <dc:type rdf:resource="http://purl.org/dc/dcmitype/StillImage"/>
    <dc:date>2023-04-27T15:21:11.844764</dc:date>
    <dc:format>image/svg+xml</dc:format>
    <dc:creator>
     <cc:Agent>
      <dc:title>Matplotlib v3.6.3, https://matplotlib.org/</dc:title>
     </cc:Agent>
    </dc:creator>
   </cc:Work>
  </rdf:RDF>
 </metadata>
 <defs>
  <style type="text/css">*{stroke-linejoin: round; stroke-linecap: butt}</style>
 </defs>
 <g id="figure_1">
  <g id="patch_1">
   <path d="M 0 345.6 
L 460.8 345.6 
L 460.8 0 
L 0 0 
z
" style="fill: #ffffff"/>
  </g>
  <g id="axes_1">
   <g id="patch_2">
    <path d="M 57.6 307.584 
L 414.72 307.584 
L 414.72 41.472 
L 57.6 41.472 
z
" style="fill: #ffffff"/>
   </g>
   <g id="matplotlib.axis_1"/>
   <g id="matplotlib.axis_2"/>
   <g id="line2d_1">
    <path d="M 73.832727 295.488 
L 75.971347 293.894384 
L 78.175341 292.252053 
L 80.443809 290.561678 
L 82.775827 288.823949 
L 85.170441 287.039574 
L 87.626676 285.209283 
L 90.143529 283.333822 
L 92.719971 281.413957 
L 95.354953 279.45047 
L 98.047399 277.444164 
L 100.796209 275.395857 
L 103.600262 273.306385 
L 106.458414 271.176601 
L 109.369498 269.007374 
L 112.332327 266.799589 
L 115.34569 264.554147 
L 118.408359 262.271965 
L 121.519083 259.953974 
L 124.676593 257.60112 
L 127.8796 255.214363 
L 131.126797 252.794677 
L 134.416859 250.34305 
L 137.748443 247.860483 
L 141.12019 245.347988 
L 144.530723 242.80659 
L 147.978651 240.237328 
L 151.462566 237.641249 
L 154.981047 235.019413 
L 158.532658 232.372891 
L 162.115949 229.702761 
L 165.729458 227.010114 
L 169.37171 224.296048 
L 173.041219 221.561672 
L 176.736487 218.808101 
L 180.456007 216.036459 
L 184.19826 213.247878 
L 187.961718 210.443494 
L 191.744847 207.624453 
L 195.546102 204.791904 
L 199.363932 201.947005 
L 203.196779 199.090917 
L 207.043078 196.224803 
L 210.90126 193.349835 
L 214.76975 190.467186 
L 218.64697 187.578032 
L 222.531337 184.683552 
L 226.421266 181.784928 
L 230.315169 178.883342 
L 234.211458 175.979978 
L 238.108542 173.076022 
L 242.004831 170.172658 
L 245.898734 167.271072 
L 249.788663 164.372448 
L 253.67303 161.477968 
L 257.55025 158.588814 
L 261.41874 155.706165 
L 265.276922 152.831197 
L 269.123221 149.965083 
L 272.956068 147.108995 
L 276.773898 144.264096 
L 280.575153 141.431547 
L 284.358282 138.612506 
L 288.12174 135.808122 
L 291.863993 133.019541 
L 295.583513 130.247899 
L 299.278781 127.494328 
L 302.94829 124.759952 
L 306.590542 122.045886 
L 310.204051 119.353239 
L 313.787342 116.683109 
L 317.338953 114.036587 
L 320.857434 111.414751 
L 324.341349 108.818672 
L 327.789277 106.24941 
L 331.19981 103.708012 
L 334.571557 101.195517 
L 337.903141 98.71295 
L 341.193203 96.261323 
L 344.4404 93.841637 
L 347.643407 91.45488 
L 350.800917 89.102026 
L 353.911641 86.784035 
L 356.97431 84.501853 
L 359.987673 82.256411 
L 362.950502 80.048626 
L 365.861586 77.879399 
L 368.719738 75.749615 
L 371.523791 73.660143 
L 374.272601 71.611836 
L 376.965047 69.60553 
L 379.600029 67.642043 
L 382.176471 65.722178 
L 384.693324 63.846717 
L 387.149559 62.016426 
L 389.544173 60.232051 
L 391.876191 58.494322 
L 394.144659 56.803947 
L 396.348653 55.161616 
L 398.487273 53.568 
" clip-path="url(#p75cb0e019c)" style="fill: none; stroke: #1f77b4; stroke-width: 1.5; stroke-linecap: square"/>
   </g>
   <g id="patch_3">
    <path d="M 57.6 307.584 
L 57.6 41.472 
" style="fill: none; stroke: #000000; stroke-width: 0.8; stroke-linejoin: miter; stroke-linecap: square"/>
   </g>
   <g id="patch_4">
    <path d="M 414.72 307.584 
L 414.72 41.472 
" style="fill: none; stroke: #000000; stroke-width: 0.8; stroke-linejoin: miter; stroke-linecap: square"/>
   </g>
   <g id="patch_5">
    <path d="M 57.6 307.584 
L 414.72 307.584 
" style="fill: none; stroke: #000000; stroke-width: 0.8; stroke-linejoin: miter; stroke-linecap: square"/>
   </g>
   <g id="patch_6">
    <path d="M 57.6 41.472 
L 414.72 41.472 
" style="fill: none; stroke: #000000; stroke-width: 0.8; stroke-linejoin: miter; stroke-linecap: square"/>
   </g>
  </g>
 </g>
 <defs>
  <clipPath id="p75cb0e019c">
   <rect x="57.6" y="41.472" width="357.12" height="266.112"/>
  </clipPath>
 </defs>
</svg>
