<?xml version="1.0" encoding="utf-8" standalone="no"?>
<!DOCTYPE svg PUBLIC "-//W3C//DTD SVG 1.1//EN"
  "http://www.w3.org/Graphics/SVG/1.1/DTD/svg11.dtd">
<svg xmlns:xlink="http://www.w3.org/1999/xlink" width="460.8pt" height="345.6pt" viewBox="0 0 460.8 345.6" xmlns="http://www.w3.org/2000/svg" version="1.1">
 <metadata>
  <rdf:RDF xmlns:dc="http://purl.org/dc/elements/1.1/" xmlns:cc="http://creativecommons.org/ns#" xmlns:rdf="http://www.w3.org/1999/02/22-rdf-syntax-ns#">
   <cc:Work>
    <dc:type rdf:resource="http://purl.org/dc/dcmitype/StillImage"/>
    <dc:date>2023-05-15T20:22:29.409411</dc:date>
    <dc:format>image/svg+xml</dc:format>
    <dc:creator>
     <cc:Agent>
      <dc:title>Matplotlib v3.6.3, https://matplotlib.org/</dc:title>
     </cc:Agent>
    </dc:creator>
   </cc:Work>
  </rdf:RDF>
 </metadata>
 <defs>
  <style type="text/css">*{stroke-linejoin: round; stroke-linecap: butt}</style>
 </defs>
 <g id="figure_1">
  <g id="patch_1">
   <path d="M 0 345.6 
L 460.8 345.6 
L 460.8 0 
L 0 0 
z
" style="fill: #ffffff"/>
  </g>
  <g id="axes_1">
   <g id="patch_2">
    <path d="M 57.6 307.584 
L 414.72 307.584 
L 414.72 41.472 
L 57.6 41.472 
z
" style="fill: #ffffff"/>
   </g>
   <g id="matplotlib.axis_1"/>
   <g id="matplotlib.axis_2"/>
   <g id="line2d_1">
    <path d="M 281.564207 191.603359 
L 300.096898 198.827441 
L 317.691353 205.962297 
L 334.089384 212.981726 
L 349.050361 219.859955 
L 362.35474 226.571726 
L 373.807287 233.092395 
L 383.239943 239.398016 
L 390.514289 245.465437 
L 395.523578 251.272377 
L 398.194304 256.797515 
L 398.487273 262.020561 
L 396.398187 266.922337 
L 391.957702 271.484844 
L 385.23098 275.691328 
L 376.31673 279.526343 
L 365.345765 282.975808 
L 352.479077 286.027055 
L 337.905476 288.668882 
L 321.838822 290.891586 
L 304.514882 292.687007 
L 286.187876 294.048551 
L 267.12674 294.971219 
L 247.611187 295.451624 
L 227.927594 295.488 
L 208.364807 295.080215 
L 189.209897 294.229766 
L 170.743952 292.939775 
L 153.237948 291.21498 
L 136.948775 289.061714 
L 122.115468 286.487883 
L 108.955695 283.502939 
L 97.662569 280.117842 
L 88.401809 276.345022 
L 81.309312 272.198334 
L 76.489155 267.693002 
L 74.012073 262.845572 
L 73.914413 257.673842 
L 76.19761 252.196803 
L 80.828158 246.434566 
L 87.738108 240.408291 
L 96.82606 234.140105 
L 107.958654 227.653026 
L 120.972525 220.970872 
L 135.676703 214.118182 
L 151.855413 207.120118 
L 169.271242 200.002377 
L 187.668623 192.791094 
L 206.777587 185.51275 
L 226.317719 178.194071 
L 246.002281 170.861929 
L 265.542413 163.54325 
L 284.651377 156.264906 
L 303.048758 149.053623 
L 320.464587 141.935882 
L 336.643297 134.937818 
L 351.347475 128.085128 
L 364.361346 121.402974 
L 375.49394 114.915895 
L 384.581892 108.647709 
L 391.491842 102.621434 
L 396.12239 96.859197 
L 398.405587 91.382158 
L 398.307927 86.210428 
L 395.830845 81.362998 
L 391.010688 76.857666 
L 383.918191 72.710978 
L 374.657431 68.938158 
L 363.364305 65.553061 
L 350.204532 62.568117 
L 335.371225 59.994286 
L 319.082052 57.84102 
L 301.576048 56.116225 
L 283.110103 54.826234 
L 263.955193 53.975785 
L 244.392406 53.568 
L 224.708813 53.604376 
L 205.19326 54.084781 
L 186.132124 55.007449 
L 167.805118 56.368993 
L 150.481178 58.164414 
L 134.414524 60.387118 
L 119.840923 63.028945 
L 106.974235 66.080192 
L 96.00327 69.529657 
L 87.08902 73.364672 
L 80.362298 77.571156 
L 75.921813 82.133663 
L 73.832727 87.035439 
L 74.125696 92.258485 
L 76.796422 97.783623 
L 81.805711 103.590563 
L 89.080057 109.657984 
L 98.512713 115.963605 
L 109.96526 122.484274 
L 123.269639 129.196045 
L 138.230616 136.074274 
L 154.628647 143.093703 
L 172.223102 150.228559 
L 190.755793 157.452641 
" clip-path="url(#p20af1d6956)" style="fill: none; stroke: #1f77b4; stroke-width: 1.5; stroke-linecap: square"/>
   </g>
   <g id="patch_3">
    <path d="M 57.6 307.584 
L 57.6 41.472 
" style="fill: none; stroke: #000000; stroke-width: 0.8; stroke-linejoin: miter; stroke-linecap: square"/>
   </g>
   <g id="patch_4">
    <path d="M 414.72 307.584 
L 414.72 41.472 
" style="fill: none; stroke: #000000; stroke-width: 0.8; stroke-linejoin: miter; stroke-linecap: square"/>
   </g>
   <g id="patch_5">
    <path d="M 57.6 307.584 
L 414.72 307.584 
" style="fill: none; stroke: #000000; stroke-width: 0.8; stroke-linejoin: miter; stroke-linecap: square"/>
   </g>
   <g id="patch_6">
    <path d="M 57.6 41.472 
L 414.72 41.472 
" style="fill: none; stroke: #000000; stroke-width: 0.8; stroke-linejoin: miter; stroke-linecap: square"/>
   </g>
  </g>
 </g>
 <defs>
  <clipPath id="p20af1d6956">
   <rect x="57.6" y="41.472" width="357.12" height="266.112"/>
  </clipPath>
 </defs>
</svg>
