<?xml version="1.0" encoding="utf-8" standalone="no"?>
<!DOCTYPE svg PUBLIC "-//W3C//DTD SVG 1.1//EN"
  "http://www.w3.org/Graphics/SVG/1.1/DTD/svg11.dtd">
<svg xmlns:xlink="http://www.w3.org/1999/xlink" width="460.8pt" height="345.6pt" viewBox="0 0 460.8 345.6" xmlns="http://www.w3.org/2000/svg" version="1.1">
 <metadata>
  <rdf:RDF xmlns:dc="http://purl.org/dc/elements/1.1/" xmlns:cc="http://creativecommons.org/ns#" xmlns:rdf="http://www.w3.org/1999/02/22-rdf-syntax-ns#">
   <cc:Work>
    <dc:type rdf:resource="http://purl.org/dc/dcmitype/StillImage"/>
    <dc:date>2023-05-18T13:02:03.848696</dc:date>
    <dc:format>image/svg+xml</dc:format>
    <dc:creator>
     <cc:Agent>
      <dc:title>Matplotlib v3.7.1, https://matplotlib.org/</dc:title>
     </cc:Agent>
    </dc:creator>
   </cc:Work>
  </rdf:RDF>
 </metadata>
 <defs>
  <style type="text/css">*{stroke-linejoin: round; stroke-linecap: butt}</style>
 </defs>
 <g id="figure_1">
  <g id="patch_1">
   <path d="M 0 345.6 
L 460.8 345.6 
L 460.8 0 
L 0 0 
z
" style="fill: #ffffff"/>
  </g>
  <g id="axes_1">
   <g id="patch_2">
    <path d="M 57.6 307.584 
L 414.72 307.584 
L 414.72 41.472 
L 57.6 41.472 
z
" style="fill: #ffffff"/>
   </g>
   <g id="matplotlib.axis_1"/>
   <g id="matplotlib.axis_2"/>
   <g id="line2d_1">
    <path d="M 213.245016 191.603359 
L 203.55036 198.827441 
L 193.975446 205.962297 
L 184.555432 212.981726 
L 175.324908 219.859955 
L 166.31777 226.571726 
L 157.567089 233.092395 
L 149.105 239.398016 
L 140.962574 245.465437 
L 133.16971 251.272377 
L 125.755024 256.797515 
L 118.745741 262.020561 
L 112.1676 266.922337 
L 106.044755 271.484844 
L 100.39969 275.691328 
L 95.253132 279.526343 
L 90.623981 282.975808 
L 86.529233 286.027055 
L 82.983925 288.668882 
L 80.001075 290.891586 
L 77.591636 292.687007 
L 75.764456 294.048551 
L 74.526243 294.971219 
L 73.881544 295.451624 
L 73.832727 295.488 
L 74.379971 295.080215 
L 75.521267 294.229766 
L 77.252423 292.939775 
L 79.567083 291.21498 
L 82.456748 289.061714 
L 85.910807 286.487883 
L 89.916576 283.502939 
L 94.459346 280.117842 
L 99.522438 276.345022 
L 105.087258 272.198334 
L 111.133373 267.693002 
L 117.638583 262.845572 
L 124.579 257.673842 
L 131.929139 252.196803 
L 139.66201 246.434566 
L 147.74922 240.408291 
L 156.161071 234.140105 
L 164.866676 227.653026 
L 173.834067 220.970872 
L 183.030318 214.118182 
L 192.421659 207.120118 
L 201.973607 200.002377 
L 211.651085 192.791094 
L 221.41856 185.51275 
L 231.240165 178.194071 
L 241.079835 170.861929 
L 250.90144 163.54325 
L 260.668915 156.264906 
L 270.346393 149.053623 
L 279.898341 141.935882 
L 289.289682 134.937818 
L 298.485933 128.085128 
L 307.453324 121.402974 
L 316.158929 114.915895 
L 324.57078 108.647709 
L 332.65799 102.621434 
L 340.390861 96.859197 
L 347.741 91.382158 
L 354.681417 86.210428 
L 361.186627 81.362998 
L 367.232742 76.857666 
L 372.797562 72.710978 
L 377.860654 68.938158 
L 382.403424 65.553061 
L 386.409193 62.568117 
L 389.863252 59.994286 
L 392.752917 57.84102 
L 395.067577 56.116225 
L 396.798733 54.826234 
L 397.940029 53.975785 
L 398.487273 53.568 
L 398.438456 53.604376 
L 397.793757 54.084781 
L 396.555544 55.007449 
L 394.728364 56.368993 
L 392.318925 58.164414 
L 389.336075 60.387118 
L 385.790767 63.028945 
L 381.696019 66.080192 
L 377.066868 69.529657 
L 371.92031 73.364672 
L 366.275245 77.571156 
L 360.1524 82.133663 
L 353.574259 87.035439 
L 346.564976 92.258485 
L 339.15029 97.783623 
L 331.357426 103.590563 
L 323.215 109.657984 
L 314.752911 115.963605 
L 306.00223 122.484274 
L 296.995092 129.196045 
L 287.764568 136.074274 
L 278.344554 143.093703 
L 268.76964 150.228559 
L 259.074984 157.452641 
" clip-path="url(#p692ec87684)" style="fill: none; stroke: #1f77b4; stroke-width: 1.5; stroke-linecap: square"/>
   </g>
   <g id="patch_3">
    <path d="M 57.6 307.584 
L 57.6 41.472 
" style="fill: none; stroke: #000000; stroke-width: 0.8; stroke-linejoin: miter; stroke-linecap: square"/>
   </g>
   <g id="patch_4">
    <path d="M 414.72 307.584 
L 414.72 41.472 
" style="fill: none; stroke: #000000; stroke-width: 0.8; stroke-linejoin: miter; stroke-linecap: square"/>
   </g>
   <g id="patch_5">
    <path d="M 57.6 307.584 
L 414.72 307.584 
" style="fill: none; stroke: #000000; stroke-width: 0.8; stroke-linejoin: miter; stroke-linecap: square"/>
   </g>
   <g id="patch_6">
    <path d="M 57.6 41.472 
L 414.72 41.472 
" style="fill: none; stroke: #000000; stroke-width: 0.8; stroke-linejoin: miter; stroke-linecap: square"/>
   </g>
  </g>
 </g>
 <defs>
  <clipPath id="p692ec87684">
   <rect x="57.6" y="41.472" width="357.12" height="266.112"/>
  </clipPath>
 </defs>
</svg>
