<?xml version="1.0" encoding="utf-8" standalone="no"?>
<!DOCTYPE svg PUBLIC "-//W3C//DTD SVG 1.1//EN"
  "http://www.w3.org/Graphics/SVG/1.1/DTD/svg11.dtd">
<svg xmlns:xlink="http://www.w3.org/1999/xlink" width="460.8pt" height="345.6pt" viewBox="0 0 460.8 345.6" xmlns="http://www.w3.org/2000/svg" version="1.1">
 <metadata>
  <rdf:RDF xmlns:dc="http://purl.org/dc/elements/1.1/" xmlns:cc="http://creativecommons.org/ns#" xmlns:rdf="http://www.w3.org/1999/02/22-rdf-syntax-ns#">
   <cc:Work>
    <dc:type rdf:resource="http://purl.org/dc/dcmitype/StillImage"/>
    <dc:date>2023-04-22T11:15:18.429217</dc:date>
    <dc:format>image/svg+xml</dc:format>
    <dc:creator>
     <cc:Agent>
      <dc:title>Matplotlib v3.6.3, https://matplotlib.org/</dc:title>
     </cc:Agent>
    </dc:creator>
   </cc:Work>
  </rdf:RDF>
 </metadata>
 <defs>
  <style type="text/css">*{stroke-linejoin: round; stroke-linecap: butt}</style>
 </defs>
 <g id="figure_1">
  <g id="patch_1">
   <path d="M 0 345.6 
L 460.8 345.6 
L 460.8 0 
L 0 0 
z
" style="fill: #ffffff"/>
  </g>
  <g id="axes_1">
   <g id="patch_2">
    <path d="M 57.6 307.584 
L 414.72 307.584 
L 414.72 41.472 
L 57.6 41.472 
z
" style="fill: #ffffff"/>
   </g>
   <g id="matplotlib.axis_1"/>
   <g id="matplotlib.axis_2"/>
   <g id="line2d_1">
    <path d="M 75.540636 191.603359 
L 73.832727 198.827441 
L 76.355551 205.962297 
L 83.043355 212.981726 
L 93.721835 219.859955 
L 108.112678 226.571726 
L 125.840816 233.092395 
L 146.4442 239.398016 
L 169.385845 245.465437 
L 194.067824 251.272377 
L 219.84685 256.797515 
L 246.051046 262.020561 
L 271.997451 266.922337 
L 297.009826 271.484844 
L 320.436273 275.691328 
L 341.666229 279.526343 
L 360.146379 282.975808 
L 375.395074 286.027055 
L 387.014888 288.668882 
L 394.702974 290.891586 
L 398.258958 292.687007 
L 397.59016 294.048551 
L 392.714011 294.971219 
L 383.757599 295.451624 
L 370.954352 295.488 
L 354.637964 295.080215 
L 335.233687 294.229766 
L 313.247254 292.939775 
L 289.251698 291.21498 
L 263.872414 289.061714 
L 237.770862 286.487883 
L 211.627326 283.502939 
L 186.123184 280.117842 
L 161.923151 276.345022 
L 139.657952 272.198334 
L 119.907883 267.693002 
L 103.187691 262.845572 
L 89.933154 257.673842 
L 80.489724 252.196803 
L 75.103525 246.434566 
L 73.914938 240.408291 
L 76.95494 234.140105 
L 84.144301 227.653026 
L 95.295644 220.970872 
L 110.118331 214.118182 
L 128.22604 207.120118 
L 149.14683 200.002377 
L 172.335442 192.791094 
L 197.187512 185.51275 
L 223.055322 178.194071 
L 249.264678 170.861929 
L 275.132488 163.54325 
L 299.984558 156.264906 
L 323.17317 149.053623 
L 344.09396 141.935882 
L 362.201669 134.937818 
L 377.024356 128.085128 
L 388.175699 121.402974 
L 395.36506 114.915895 
L 398.405062 108.647709 
L 397.216475 102.621434 
L 391.830276 96.859197 
L 382.386846 91.382158 
L 369.132309 86.210428 
L 352.412117 81.362998 
L 332.662048 76.857666 
L 310.396849 72.710978 
L 286.196816 68.938158 
L 260.692674 65.553061 
L 234.549138 62.568117 
L 208.447586 59.994286 
L 183.068302 57.84102 
L 159.072746 56.116225 
L 137.086313 54.826234 
L 117.682036 53.975785 
L 101.365648 53.568 
L 88.562401 53.604376 
L 79.605989 54.084781 
L 74.72984 55.007449 
L 74.061042 56.368993 
L 77.617026 58.164414 
L 85.305112 60.387118 
L 96.924926 63.028945 
L 112.173621 66.080192 
L 130.653771 69.529657 
L 151.883727 73.364672 
L 175.310174 77.571156 
L 200.322549 82.133663 
L 226.268954 87.035439 
L 252.47315 92.258485 
L 278.252176 97.783623 
L 302.934155 103.590563 
L 325.8758 109.657984 
L 346.479184 115.963605 
L 364.207322 122.484274 
L 378.598165 129.196045 
L 389.276645 136.074274 
L 395.964449 143.093703 
L 398.487273 150.228559 
L 396.779364 157.452641 
" clip-path="url(#pd9cb66fa72)" style="fill: none; stroke: #1f77b4; stroke-width: 1.5; stroke-linecap: square"/>
   </g>
   <g id="patch_3">
    <path d="M 57.6 307.584 
L 57.6 41.472 
" style="fill: none; stroke: #000000; stroke-width: 0.8; stroke-linejoin: miter; stroke-linecap: square"/>
   </g>
   <g id="patch_4">
    <path d="M 414.72 307.584 
L 414.72 41.472 
" style="fill: none; stroke: #000000; stroke-width: 0.8; stroke-linejoin: miter; stroke-linecap: square"/>
   </g>
   <g id="patch_5">
    <path d="M 57.6 307.584 
L 414.72 307.584 
" style="fill: none; stroke: #000000; stroke-width: 0.8; stroke-linejoin: miter; stroke-linecap: square"/>
   </g>
   <g id="patch_6">
    <path d="M 57.6 41.472 
L 414.72 41.472 
" style="fill: none; stroke: #000000; stroke-width: 0.8; stroke-linejoin: miter; stroke-linecap: square"/>
   </g>
  </g>
 </g>
 <defs>
  <clipPath id="pd9cb66fa72">
   <rect x="57.6" y="41.472" width="357.12" height="266.112"/>
  </clipPath>
 </defs>
</svg>
