<?xml version="1.0" encoding="utf-8" standalone="no"?>
<!DOCTYPE svg PUBLIC "-//W3C//DTD SVG 1.1//EN"
  "http://www.w3.org/Graphics/SVG/1.1/DTD/svg11.dtd">
<svg xmlns:xlink="http://www.w3.org/1999/xlink" width="460.8pt" height="345.6pt" viewBox="0 0 460.8 345.6" xmlns="http://www.w3.org/2000/svg" version="1.1">
 <metadata>
  <rdf:RDF xmlns:dc="http://purl.org/dc/elements/1.1/" xmlns:cc="http://creativecommons.org/ns#" xmlns:rdf="http://www.w3.org/1999/02/22-rdf-syntax-ns#">
   <cc:Work>
    <dc:type rdf:resource="http://purl.org/dc/dcmitype/StillImage"/>
    <dc:date>2023-04-27T10:57:58.477098</dc:date>
    <dc:format>image/svg+xml</dc:format>
    <dc:creator>
     <cc:Agent>
      <dc:title>Matplotlib v3.6.3, https://matplotlib.org/</dc:title>
     </cc:Agent>
    </dc:creator>
   </cc:Work>
  </rdf:RDF>
 </metadata>
 <defs>
  <style type="text/css">*{stroke-linejoin: round; stroke-linecap: butt}</style>
 </defs>
 <g id="figure_1">
  <g id="patch_1">
   <path d="M 0 345.6 
L 460.8 345.6 
L 460.8 0 
L 0 0 
z
" style="fill: #ffffff"/>
  </g>
  <g id="axes_1">
   <g id="patch_2">
    <path d="M 57.6 307.584 
L 414.72 307.584 
L 414.72 41.472 
L 57.6 41.472 
z
" style="fill: #ffffff"/>
   </g>
   <g id="matplotlib.axis_1"/>
   <g id="matplotlib.axis_2"/>
   <g id="line2d_1">
    <path d="M 75.540636 224.393863 
L 73.832727 243.506321 
L 76.355551 260.344779 
L 83.043355 274.354124 
L 93.721835 285.072514 
L 108.112678 292.146596 
L 125.840816 295.343159 
L 146.4442 294.556823 
L 169.385845 289.81351 
L 194.067824 281.269594 
L 219.84685 269.20674 
L 246.051046 254.022624 
L 271.997451 236.217817 
L 297.009826 216.379289 
L 320.436273 195.161055 
L 341.666229 173.262613 
L 360.146379 151.405887 
L 375.395074 130.311425 
L 387.014888 110.674646 
L 394.702974 93.142913 
L 398.258958 78.294192 
L 397.59016 66.618 
L 392.714011 58.499265 
L 383.757599 54.205635 
L 370.954352 53.878658 
L 354.637964 57.529115 
L 335.233687 65.03666 
L 313.247254 76.153793 
L 289.251698 90.514017 
L 263.872414 107.64392 
L 237.770862 126.978783 
L 211.627326 147.881195 
L 186.123184 169.66207 
L 161.923151 191.603359 
L 139.657952 212.981726 
L 119.907883 233.092395 
L 103.187691 251.272377 
L 89.933154 266.922337 
L 80.489724 279.526343 
L 75.103525 288.668882 
L 73.914938 294.048551 
L 76.95494 295.488 
L 84.144301 292.939775 
L 95.295644 286.487883 
L 110.118331 276.345022 
L 128.22604 262.845572 
L 149.14683 246.434566 
L 172.335442 227.653026 
L 197.187512 207.120118 
L 223.055322 185.51275 
L 249.264678 163.54325 
L 275.132488 141.935882 
L 299.984558 121.402974 
L 323.17317 102.621434 
L 344.09396 86.210428 
L 362.201669 72.710978 
L 377.024356 62.568117 
L 388.175699 56.116225 
L 395.36506 53.568 
L 398.405062 55.007449 
L 397.216475 60.387118 
L 391.830276 69.529657 
L 382.386846 82.133663 
L 369.132309 97.783623 
L 352.412117 115.963605 
L 332.662048 136.074274 
L 310.396849 157.452641 
L 286.196816 179.39393 
L 260.692674 201.174805 
L 234.549138 222.077217 
L 208.447586 241.41208 
L 183.068302 258.541983 
L 159.072746 272.902207 
L 137.086313 284.01934 
L 117.682036 291.526885 
L 101.365648 295.177342 
L 88.562401 294.850365 
L 79.605989 290.556735 
L 74.72984 282.438 
L 74.061042 270.761808 
L 77.617026 255.913087 
L 85.305112 238.381354 
L 96.924926 218.744575 
L 112.173621 197.650113 
L 130.653771 175.793387 
L 151.883727 153.894945 
L 175.310174 132.676711 
L 200.322549 112.838183 
L 226.268954 95.033376 
L 252.47315 79.84926 
L 278.252176 67.786406 
L 302.934155 59.24249 
L 325.8758 54.499177 
L 346.479184 53.712841 
L 364.207322 56.909404 
L 378.598165 63.983486 
L 389.276645 74.701876 
L 395.964449 88.711221 
L 398.487273 105.549679 
L 396.779364 124.662137 
" clip-path="url(#pc902448706)" style="fill: none; stroke: #1f77b4; stroke-width: 1.5; stroke-linecap: square"/>
   </g>
   <g id="patch_3">
    <path d="M 57.6 307.584 
L 57.6 41.472 
" style="fill: none; stroke: #000000; stroke-width: 0.8; stroke-linejoin: miter; stroke-linecap: square"/>
   </g>
   <g id="patch_4">
    <path d="M 414.72 307.584 
L 414.72 41.472 
" style="fill: none; stroke: #000000; stroke-width: 0.8; stroke-linejoin: miter; stroke-linecap: square"/>
   </g>
   <g id="patch_5">
    <path d="M 57.6 307.584 
L 414.72 307.584 
" style="fill: none; stroke: #000000; stroke-width: 0.8; stroke-linejoin: miter; stroke-linecap: square"/>
   </g>
   <g id="patch_6">
    <path d="M 57.6 41.472 
L 414.72 41.472 
" style="fill: none; stroke: #000000; stroke-width: 0.8; stroke-linejoin: miter; stroke-linecap: square"/>
   </g>
  </g>
 </g>
 <defs>
  <clipPath id="pc902448706">
   <rect x="57.6" y="41.472" width="357.12" height="266.112"/>
  </clipPath>
 </defs>
</svg>
