<?xml version="1.0" encoding="utf-8" standalone="no"?>
<!DOCTYPE svg PUBLIC "-//W3C//DTD SVG 1.1//EN"
  "http://www.w3.org/Graphics/SVG/1.1/DTD/svg11.dtd">
<svg xmlns:xlink="http://www.w3.org/1999/xlink" width="460.8pt" height="345.6pt" viewBox="0 0 460.8 345.6" xmlns="http://www.w3.org/2000/svg" version="1.1">
 <metadata>
  <rdf:RDF xmlns:dc="http://purl.org/dc/elements/1.1/" xmlns:cc="http://creativecommons.org/ns#" xmlns:rdf="http://www.w3.org/1999/02/22-rdf-syntax-ns#">
   <cc:Work>
    <dc:type rdf:resource="http://purl.org/dc/dcmitype/StillImage"/>
    <dc:date>2023-05-09T15:56:31.951092</dc:date>
    <dc:format>image/svg+xml</dc:format>
    <dc:creator>
     <cc:Agent>
      <dc:title>Matplotlib v3.6.3, https://matplotlib.org/</dc:title>
     </cc:Agent>
    </dc:creator>
   </cc:Work>
  </rdf:RDF>
 </metadata>
 <defs>
  <style type="text/css">*{stroke-linejoin: round; stroke-linecap: butt}</style>
 </defs>
 <g id="figure_1">
  <g id="patch_1">
   <path d="M 0 345.6 
L 460.8 345.6 
L 460.8 0 
L 0 0 
z
" style="fill: #ffffff"/>
  </g>
  <g id="axes_1">
   <g id="patch_2">
    <path d="M 57.6 307.584 
L 414.72 307.584 
L 414.72 41.472 
L 57.6 41.472 
z
" style="fill: #ffffff"/>
   </g>
   <g id="matplotlib.axis_1"/>
   <g id="matplotlib.axis_2"/>
   <g id="line2d_1">
    <path d="M 281.564207 284.529392 
L 300.096898 286.473122 
L 317.691353 288.234129 
L 334.089384 289.809536 
L 349.050361 291.196774 
L 362.35474 292.393578 
L 373.807287 293.397993 
L 383.239943 294.208382 
L 390.514289 294.82342 
L 395.523578 295.242105 
L 398.194304 295.463752 
L 398.487273 295.488 
L 396.398187 295.314809 
L 391.957702 294.944463 
L 385.23098 294.377564 
L 376.31673 293.61504 
L 365.345765 292.658134 
L 352.479077 291.508409 
L 337.905476 290.16774 
L 321.838822 288.638317 
L 304.514882 286.922636 
L 286.187876 285.023497 
L 267.12674 282.944 
L 247.611187 280.687539 
L 227.927594 278.257798 
L 208.364807 275.658743 
L 189.209897 272.894615 
L 170.743952 269.969928 
L 153.237948 266.889453 
L 136.948775 263.658221 
L 122.115468 260.281504 
L 108.955695 256.764815 
L 97.662569 253.113894 
L 88.401809 249.334699 
L 81.309312 245.433401 
L 76.489155 241.416366 
L 74.012073 237.290151 
L 73.914413 233.061492 
L 76.19761 228.737291 
L 80.828158 224.324606 
L 87.738108 219.83064 
L 96.82606 215.262728 
L 107.958654 210.628326 
L 120.972525 205.934999 
L 135.676703 201.190408 
L 151.855413 196.402296 
L 169.271242 191.578479 
L 187.668623 186.726832 
L 206.777587 181.855273 
L 226.317719 176.971754 
L 246.002281 172.084246 
L 265.542413 167.200727 
L 284.651377 162.329168 
L 303.048758 157.477521 
L 320.464587 152.653704 
L 336.643297 147.865592 
L 351.347475 143.121001 
L 364.361346 138.427674 
L 375.49394 133.793272 
L 384.581892 129.22536 
L 391.491842 124.731394 
L 396.12239 120.318709 
L 398.405587 115.994508 
L 398.307927 111.765849 
L 395.830845 107.639634 
L 391.010688 103.622599 
L 383.918191 99.721301 
L 374.657431 95.942106 
L 363.364305 92.291185 
L 350.204532 88.774496 
L 335.371225 85.397779 
L 319.082052 82.166547 
L 301.576048 79.086072 
L 283.110103 76.161385 
L 263.955193 73.397257 
L 244.392406 70.798202 
L 224.708813 68.368461 
L 205.19326 66.112 
L 186.132124 64.032503 
L 167.805118 62.133364 
L 150.481178 60.417683 
L 134.414524 58.88826 
L 119.840923 57.547591 
L 106.974235 56.397866 
L 96.00327 55.44096 
L 87.08902 54.678436 
L 80.362298 54.111537 
L 75.921813 53.741191 
L 73.832727 53.568 
L 74.125696 53.592248 
L 76.796422 53.813895 
L 81.805711 54.23258 
L 89.080057 54.847618 
L 98.512713 55.658007 
L 109.96526 56.662422 
L 123.269639 57.859226 
L 138.230616 59.246464 
L 154.628647 60.821871 
L 172.223102 62.582878 
L 190.755793 64.526608 
" clip-path="url(#pfc094e72d7)" style="fill: none; stroke: #1f77b4; stroke-width: 1.5; stroke-linecap: square"/>
   </g>
   <g id="patch_3">
    <path d="M 57.6 307.584 
L 57.6 41.472 
" style="fill: none; stroke: #000000; stroke-width: 0.8; stroke-linejoin: miter; stroke-linecap: square"/>
   </g>
   <g id="patch_4">
    <path d="M 414.72 307.584 
L 414.72 41.472 
" style="fill: none; stroke: #000000; stroke-width: 0.8; stroke-linejoin: miter; stroke-linecap: square"/>
   </g>
   <g id="patch_5">
    <path d="M 57.6 307.584 
L 414.72 307.584 
" style="fill: none; stroke: #000000; stroke-width: 0.8; stroke-linejoin: miter; stroke-linecap: square"/>
   </g>
   <g id="patch_6">
    <path d="M 57.6 41.472 
L 414.72 41.472 
" style="fill: none; stroke: #000000; stroke-width: 0.8; stroke-linejoin: miter; stroke-linecap: square"/>
   </g>
  </g>
 </g>
 <defs>
  <clipPath id="pfc094e72d7">
   <rect x="57.6" y="41.472" width="357.12" height="266.112"/>
  </clipPath>
 </defs>
</svg>
