<?xml version="1.0" encoding="utf-8" standalone="no"?>
<!DOCTYPE svg PUBLIC "-//W3C//DTD SVG 1.1//EN"
  "http://www.w3.org/Graphics/SVG/1.1/DTD/svg11.dtd">
<svg xmlns:xlink="http://www.w3.org/1999/xlink" width="460.8pt" height="345.6pt" viewBox="0 0 460.8 345.6" xmlns="http://www.w3.org/2000/svg" version="1.1">
 <metadata>
  <rdf:RDF xmlns:dc="http://purl.org/dc/elements/1.1/" xmlns:cc="http://creativecommons.org/ns#" xmlns:rdf="http://www.w3.org/1999/02/22-rdf-syntax-ns#">
   <cc:Work>
    <dc:type rdf:resource="http://purl.org/dc/dcmitype/StillImage"/>
    <dc:date>2023-04-16T14:18:31.786013</dc:date>
    <dc:format>image/svg+xml</dc:format>
    <dc:creator>
     <cc:Agent>
      <dc:title>Matplotlib v3.6.3, https://matplotlib.org/</dc:title>
     </cc:Agent>
    </dc:creator>
   </cc:Work>
  </rdf:RDF>
 </metadata>
 <defs>
  <style type="text/css">*{stroke-linejoin: round; stroke-linecap: butt}</style>
 </defs>
 <g id="figure_1">
  <g id="patch_1">
   <path d="M 0 345.6 
L 460.8 345.6 
L 460.8 0 
L 0 0 
z
" style="fill: #ffffff"/>
  </g>
  <g id="axes_1">
   <g id="patch_2">
    <path d="M 57.6 307.584 
L 414.72 307.584 
L 414.72 41.472 
L 57.6 41.472 
z
" style="fill: #ffffff"/>
   </g>
   <g id="matplotlib.axis_1"/>
   <g id="matplotlib.axis_2"/>
   <g id="line2d_1">
    <path d="M 169.240443 58.534988 
L 143.59169 55.666234 
L 120.994626 54.009201 
L 102.194205 53.580782 
L 87.810219 54.385342 
L 78.316863 56.414681 
L 74.027103 59.648111 
L 75.082359 64.052669 
L 81.447843 69.583453 
L 92.913705 76.18408 
L 109.10195 83.787262 
L 129.478903 92.315488 
L 153.3728 101.681818 
L 179.995932 111.79077 
L 208.470619 122.539287 
L 237.858139 133.817797 
L 267.189675 145.511322 
L 295.498261 157.500653 
L 321.850649 169.663568 
L 345.378083 181.876072 
L 365.304937 194.013667 
L 380.974286 205.952619 
L 391.869558 217.571216 
L 397.631572 228.751015 
L 398.070372 239.378044 
L 393.171491 249.343968 
L 383.096431 258.54719 
L 368.177334 266.89389 
L 348.906038 274.298979 
L 325.917856 280.686965 
L 299.970638 285.992727 
L 271.919781 290.162177 
L 242.690036 293.152809 
L 213.245016 294.934137 
L 184.555432 295.488 
L 157.567089 294.808752 
L 133.16971 292.903318 
L 112.1676 289.791123 
L 95.253132 285.503892 
L 82.983925 280.085333 
L 75.764456 273.590683 
L 73.832727 266.086152 
L 77.252423 257.648243 
L 85.910807 248.362976 
L 99.522438 238.325008 
L 117.638583 227.636669 
L 139.66201 216.406922 
L 164.866676 204.750245 
L 192.421659 192.785472 
L 221.41856 180.634575 
L 250.90144 168.421425 
L 279.898341 156.270528 
L 307.453324 144.305755 
L 332.65799 132.649078 
L 354.681417 121.419331 
L 372.797562 110.730992 
L 386.409193 100.693024 
L 395.067577 91.407757 
L 398.487273 82.969848 
L 396.555544 75.465317 
L 389.336075 68.970667 
L 377.066868 63.552108 
L 360.1524 59.264877 
L 339.15029 56.152682 
L 314.752911 54.247248 
L 287.764568 53.568 
L 259.074984 54.121863 
L 229.629964 55.903191 
L 200.400219 58.893823 
L 172.349362 63.063273 
L 146.402144 68.369035 
L 123.413962 74.757021 
L 104.142666 82.16211 
L 89.223569 90.50881 
L 79.148509 99.712032 
L 74.249628 109.677956 
L 74.688428 120.304985 
L 80.450442 131.484784 
L 91.345714 143.103381 
L 107.015063 155.042333 
L 126.941917 167.179928 
L 150.469351 179.392432 
L 176.821739 191.555347 
L 205.130325 203.544678 
L 234.461861 215.238203 
L 263.849381 226.516713 
L 292.324068 237.26523 
L 318.9472 247.374182 
L 342.841097 256.740512 
L 363.21805 265.268738 
L 379.406295 272.87192 
L 390.872157 279.472547 
L 397.237641 285.003331 
L 398.292897 289.407889 
L 394.003137 292.641319 
L 384.509781 294.670658 
L 370.125795 295.475218 
L 351.325374 295.046799 
L 328.72831 293.389766 
L 303.079557 290.521012 
" clip-path="url(#p4bae49a844)" style="fill: none; stroke: #1f77b4; stroke-width: 1.5; stroke-linecap: square"/>
   </g>
   <g id="patch_3">
    <path d="M 57.6 307.584 
L 57.6 41.472 
" style="fill: none; stroke: #000000; stroke-width: 0.8; stroke-linejoin: miter; stroke-linecap: square"/>
   </g>
   <g id="patch_4">
    <path d="M 414.72 307.584 
L 414.72 41.472 
" style="fill: none; stroke: #000000; stroke-width: 0.8; stroke-linejoin: miter; stroke-linecap: square"/>
   </g>
   <g id="patch_5">
    <path d="M 57.6 307.584 
L 414.72 307.584 
" style="fill: none; stroke: #000000; stroke-width: 0.8; stroke-linejoin: miter; stroke-linecap: square"/>
   </g>
   <g id="patch_6">
    <path d="M 57.6 41.472 
L 414.72 41.472 
" style="fill: none; stroke: #000000; stroke-width: 0.8; stroke-linejoin: miter; stroke-linecap: square"/>
   </g>
  </g>
 </g>
 <defs>
  <clipPath id="p4bae49a844">
   <rect x="57.6" y="41.472" width="357.12" height="266.112"/>
  </clipPath>
 </defs>
</svg>
