<?xml version="1.0" encoding="utf-8" standalone="no"?>
<!DOCTYPE svg PUBLIC "-//W3C//DTD SVG 1.1//EN"
  "http://www.w3.org/Graphics/SVG/1.1/DTD/svg11.dtd">
<svg xmlns:xlink="http://www.w3.org/1999/xlink" width="576pt" height="576pt" viewBox="0 0 576 576" xmlns="http://www.w3.org/2000/svg" version="1.1">
 <metadata>
  <rdf:RDF xmlns:dc="http://purl.org/dc/elements/1.1/" xmlns:cc="http://creativecommons.org/ns#" xmlns:rdf="http://www.w3.org/1999/02/22-rdf-syntax-ns#">
   <cc:Work>
    <dc:type rdf:resource="http://purl.org/dc/dcmitype/StillImage"/>
    <dc:date>2023-05-15T20:35:02.881829</dc:date>
    <dc:format>image/svg+xml</dc:format>
    <dc:creator>
     <cc:Agent>
      <dc:title>Matplotlib v3.6.3, https://matplotlib.org/</dc:title>
     </cc:Agent>
    </dc:creator>
   </cc:Work>
  </rdf:RDF>
 </metadata>
 <defs>
  <style type="text/css">*{stroke-linejoin: round; stroke-linecap: butt}</style>
 </defs>
 <g id="figure_1">
  <g id="patch_1">
   <path d="M 0 576 
L 576 576 
L 576 0 
L 0 0 
z
" style="fill: #ffffff"/>
  </g>
  <g id="axes_1">
   <g id="patch_2">
    <path d="M 72 512.64 
L 518.4 512.64 
L 518.4 69.12 
L 72 69.12 
z
" style="fill: #ffffff"/>
   </g>
   <g id="line2d_1">
    <path d="M 92.290909 198.108319 
L 100.875524 227.545487 
L 109.46014 255.43333 
L 118.044755 281.771849 
L 126.629371 306.561043 
L 135.213986 329.800913 
L 143.798601 351.491458 
L 152.383217 371.632678 
L 160.967832 390.224574 
L 169.552448 407.267145 
L 178.137063 422.760391 
L 186.721678 436.704313 
L 195.306294 449.09891 
L 203.890909 459.944183 
L 212.475524 469.24013 
L 221.06014 476.986754 
L 229.644755 483.184052 
L 238.229371 487.832026 
L 246.813986 490.930675 
L 255.398601 492.48 
L 263.983217 492.48 
L 272.567832 490.930675 
L 281.152448 487.832026 
L 289.737063 483.184052 
L 298.321678 476.986754 
L 306.906294 469.24013 
L 315.490909 459.944183 
L 324.075524 449.09891 
L 332.66014 436.704313 
L 341.244755 422.760391 
L 349.829371 407.267145 
L 358.413986 390.224574 
L 366.998601 371.632678 
L 375.583217 351.491458 
L 384.167832 329.800913 
L 392.752448 306.561043 
L 401.337063 281.771849 
L 409.921678 255.43333 
L 418.506294 227.545487 
L 427.090909 198.108319 
" clip-path="url(#pb33d5cb8b3)" style="fill: none; stroke: #000000; stroke-width: 1.5; stroke-linecap: square"/>
   </g>
   <g id="line2d_2">
    <path d="M 427.090909 198.108319 
L 425.998322 194.36177 
L 424.905734 190.812408 
L 423.813147 187.460233 
L 422.720559 184.305245 
L 421.627972 181.347443 
L 420.535385 178.586828 
L 419.442797 176.0234 
L 418.35021 173.657159 
L 417.257622 171.488104 
L 416.165035 169.516237 
L 415.072448 167.741556 
L 413.97986 166.164061 
L 412.887273 164.783754 
L 411.794685 163.600633 
L 410.702098 162.6147 
L 409.60951 161.825952 
L 408.516923 161.234392 
L 407.424336 160.840019 
L 406.331748 160.642832 
L 405.239161 160.642832 
L 404.146573 160.840019 
L 403.053986 161.234392 
L 401.961399 161.825952 
L 400.868811 162.6147 
L 399.776224 163.600633 
L 398.683636 164.783754 
L 397.591049 166.164061 
L 396.498462 167.741556 
L 395.405874 169.516237 
L 394.313287 171.488104 
L 393.220699 173.657159 
L 392.128112 176.0234 
L 391.035524 178.586828 
L 389.942937 181.347443 
L 388.85035 184.305245 
L 387.757762 187.460233 
L 386.665175 190.812408 
L 385.572587 194.36177 
L 384.48 198.108319 
" clip-path="url(#pb33d5cb8b3)" style="fill: none; stroke: #000000; stroke-width: 1.5; stroke-linecap: square"/>
   </g>
   <g id="line2d_3">
    <path d="M 384.48 198.108319 
L 383.387413 201.854867 
L 382.294825 205.404229 
L 381.202238 208.756404 
L 380.10965 211.911393 
L 379.017063 214.869194 
L 377.924476 217.629809 
L 376.831888 220.193237 
L 375.739301 222.559478 
L 374.646713 224.728533 
L 373.554126 226.700401 
L 372.461538 228.475082 
L 371.368951 230.052576 
L 370.276364 231.432883 
L 369.183776 232.616004 
L 368.091189 233.601938 
L 366.998601 234.390685 
L 365.906014 234.982245 
L 364.813427 235.376619 
L 363.720839 235.573805 
L 362.628252 235.573805 
L 361.535664 235.376619 
L 360.443077 234.982245 
L 359.35049 234.390685 
L 358.257902 233.601938 
L 357.165315 232.616004 
L 356.072727 231.432883 
L 354.98014 230.052576 
L 353.887552 228.475082 
L 352.794965 226.700401 
L 351.702378 224.728533 
L 350.60979 222.559478 
L 349.517203 220.193237 
L 348.424615 217.629809 
L 347.332028 214.869194 
L 346.239441 211.911393 
L 345.146853 208.756404 
L 344.054266 205.404229 
L 342.961678 201.854867 
L 341.869091 198.108319 
" clip-path="url(#pb33d5cb8b3)" style="fill: none; stroke: #000000; stroke-width: 1.5; stroke-linecap: square"/>
   </g>
   <g id="line2d_4">
    <path d="M 341.869091 198.108319 
L 338.695385 187.225487 
L 335.521678 176.915435 
L 332.347972 167.178165 
L 329.174266 158.013675 
L 326.000559 149.421966 
L 322.826853 141.403037 
L 319.653147 133.956889 
L 316.479441 127.083521 
L 313.305734 120.782934 
L 310.132028 115.055128 
L 306.958322 109.900102 
L 303.784615 105.317857 
L 300.610909 101.308393 
L 297.437203 97.871709 
L 294.263497 95.007806 
L 291.08979 92.716684 
L 287.916084 90.998342 
L 284.742378 89.852781 
L 281.568671 89.28 
L 278.394965 89.28 
L 275.221259 89.852781 
L 272.047552 90.998342 
L 268.873846 92.716684 
L 265.70014 95.007806 
L 262.526434 97.871709 
L 259.352727 101.308393 
L 256.179021 105.317857 
L 253.005315 109.900102 
L 249.831608 115.055128 
L 246.657902 120.782934 
L 243.484196 127.083521 
L 240.31049 133.956889 
L 237.136783 141.403037 
L 233.963077 149.421966 
L 230.789371 158.013675 
L 227.615664 167.178165 
L 224.441958 176.915435 
L 221.268252 187.225487 
L 218.094545 198.108319 
" clip-path="url(#pb33d5cb8b3)" style="fill: none; stroke: #000000; stroke-width: 1.5; stroke-linecap: square"/>
   </g>
   <g id="line2d_5">
    <path d="M 218.094545 198.108319 
L 215.961399 205.423009 
L 213.828252 212.352715 
L 211.695105 218.897438 
L 209.561958 225.057177 
L 207.428811 230.831933 
L 205.295664 236.221705 
L 203.162517 241.226493 
L 201.029371 245.846297 
L 198.896224 250.081118 
L 196.763077 253.930955 
L 194.62993 257.395808 
L 192.496783 260.475678 
L 190.363636 263.170564 
L 188.23049 265.480466 
L 186.097343 267.405384 
L 183.964196 268.945319 
L 181.831049 270.10027 
L 179.697902 270.870238 
L 177.564755 271.255221 
L 175.431608 271.255221 
L 173.298462 270.870238 
L 171.165315 270.10027 
L 169.032168 268.945319 
L 166.899021 267.405384 
L 164.765874 265.480466 
L 162.632727 263.170564 
L 160.49958 260.475678 
L 158.366434 257.395808 
L 156.233287 253.930955 
L 154.10014 250.081118 
L 151.966993 245.846297 
L 149.833846 241.226493 
L 147.700699 236.221705 
L 145.567552 230.831933 
L 143.434406 225.057177 
L 141.301259 218.897438 
L 139.168112 212.352715 
L 137.034965 205.423009 
L 134.901818 198.108319 
" clip-path="url(#pb33d5cb8b3)" style="fill: none; stroke: #000000; stroke-width: 1.5; stroke-linecap: square"/>
   </g>
   <g id="matplotlib.axis_1"/>
   <g id="matplotlib.axis_2"/>
   <g id="line2d_6">
    <path d="M 92.290909 198.108319 
L 498.109091 198.108319 
" clip-path="url(#pb33d5cb8b3)" style="fill: none; stroke: #808080; stroke-width: 1.5; stroke-linecap: square"/>
   </g>
   <g id="patch_3">
    <path d="M 72 512.64 
L 72 69.12 
" style="fill: none; stroke: #000000; stroke-width: 0.8; stroke-linejoin: miter; stroke-linecap: square"/>
   </g>
   <g id="patch_4">
    <path d="M 518.4 512.64 
L 518.4 69.12 
" style="fill: none; stroke: #000000; stroke-width: 0.8; stroke-linejoin: miter; stroke-linecap: square"/>
   </g>
   <g id="patch_5">
    <path d="M 72 512.64 
L 518.4 512.64 
" style="fill: none; stroke: #000000; stroke-width: 0.8; stroke-linejoin: miter; stroke-linecap: square"/>
   </g>
   <g id="patch_6">
    <path d="M 72 69.12 
L 518.4 69.12 
" style="fill: none; stroke: #000000; stroke-width: 0.8; stroke-linejoin: miter; stroke-linecap: square"/>
   </g>
   <g id="PathCollection_1">
    <defs>
     <path id="m2dbb272a10" d="M 0 2.236068 
C 0.593012 2.236068 1.161816 2.000462 1.581139 1.581139 
C 2.000462 1.161816 2.236068 0.593012 2.236068 0 
C 2.236068 -0.593012 2.000462 -1.161816 1.581139 -1.581139 
C 1.161816 -2.000462 0.593012 -2.236068 0 -2.236068 
C -0.593012 -2.236068 -1.161816 -2.000462 -1.581139 -1.581139 
C -2.000462 -1.161816 -2.236068 -0.593012 -2.236068 0 
C -2.236068 0.593012 -2.000462 1.161816 -1.581139 1.581139 
C -1.161816 2.000462 -0.593012 2.236068 0 2.236068 
z
" style="stroke: #ff0000"/>
    </defs>
    <g clip-path="url(#pb33d5cb8b3)">
     <use xlink:href="#m2dbb272a10" x="92.290909" y="198.108319" style="fill: #ff0000; stroke: #ff0000"/>
    </g>
   </g>
   <g id="PathCollection_2">
    <g clip-path="url(#pb33d5cb8b3)">
     <use xlink:href="#m2dbb272a10" x="134.901818" y="198.108319" style="fill: #ff0000; stroke: #ff0000"/>
    </g>
   </g>
   <g id="PathCollection_3">
    <g clip-path="url(#pb33d5cb8b3)">
     <use xlink:href="#m2dbb272a10" x="218.094545" y="198.108319" style="fill: #ff0000; stroke: #ff0000"/>
    </g>
   </g>
   <g id="PathCollection_4">
    <g clip-path="url(#pb33d5cb8b3)">
     <use xlink:href="#m2dbb272a10" x="341.869091" y="198.108319" style="fill: #ff0000; stroke: #ff0000"/>
    </g>
   </g>
   <g id="PathCollection_5">
    <g clip-path="url(#pb33d5cb8b3)">
     <use xlink:href="#m2dbb272a10" x="384.48" y="198.108319" style="fill: #ff0000; stroke: #ff0000"/>
    </g>
   </g>
   <g id="PathCollection_6">
    <g clip-path="url(#pb33d5cb8b3)">
     <use xlink:href="#m2dbb272a10" x="427.090909" y="198.108319" style="fill: #ff0000; stroke: #ff0000"/>
    </g>
   </g>
  </g>
 </g>
 <defs>
  <clipPath id="pb33d5cb8b3">
   <rect x="72" y="69.12" width="446.4" height="443.52"/>
  </clipPath>
 </defs>
</svg>
