<?xml version="1.0" encoding="utf-8" standalone="no"?>
<!DOCTYPE svg PUBLIC "-//W3C//DTD SVG 1.1//EN"
  "http://www.w3.org/Graphics/SVG/1.1/DTD/svg11.dtd">
<svg xmlns:xlink="http://www.w3.org/1999/xlink" width="576pt" height="576pt" viewBox="0 0 576 576" xmlns="http://www.w3.org/2000/svg" version="1.1">
 <metadata>
  <rdf:RDF xmlns:dc="http://purl.org/dc/elements/1.1/" xmlns:cc="http://creativecommons.org/ns#" xmlns:rdf="http://www.w3.org/1999/02/22-rdf-syntax-ns#">
   <cc:Work>
    <dc:type rdf:resource="http://purl.org/dc/dcmitype/StillImage"/>
    <dc:date>2023-04-22T10:21:41.911512</dc:date>
    <dc:format>image/svg+xml</dc:format>
    <dc:creator>
     <cc:Agent>
      <dc:title>Matplotlib v3.6.3, https://matplotlib.org/</dc:title>
     </cc:Agent>
    </dc:creator>
   </cc:Work>
  </rdf:RDF>
 </metadata>
 <defs>
  <style type="text/css">*{stroke-linejoin: round; stroke-linecap: butt}</style>
 </defs>
 <g id="figure_1">
  <g id="patch_1">
   <path d="M 0 576 
L 576 576 
L 576 0 
L 0 0 
z
" style="fill: #ffffff"/>
  </g>
  <g id="axes_1">
   <g id="patch_2">
    <path d="M 72 512.64 
L 518.4 512.64 
L 518.4 69.12 
L 72 69.12 
z
" style="fill: #ffffff"/>
   </g>
   <g id="line2d_1">
    <path d="M 173.454545 290.88 
L 176.628252 311.04 
L 179.801958 330.138947 
L 182.975664 348.176842 
L 186.149371 365.153684 
L 189.323077 381.069474 
L 192.496783 395.924211 
L 195.67049 409.717895 
L 198.844196 422.450526 
L 202.017902 434.122105 
L 205.191608 444.732632 
L 208.365315 454.282105 
L 211.539021 462.770526 
L 214.712727 470.197895 
L 217.886434 476.564211 
L 221.06014 481.869474 
L 224.233846 486.113684 
L 227.407552 489.296842 
L 230.581259 491.418947 
L 233.754965 492.48 
L 236.928671 492.48 
L 240.102378 491.418947 
L 243.276084 489.296842 
L 246.44979 486.113684 
L 249.623497 481.869474 
L 252.797203 476.564211 
L 255.970909 470.197895 
L 259.144615 462.770526 
L 262.318322 454.282105 
L 265.492028 444.732632 
L 268.665734 434.122105 
L 271.839441 422.450526 
L 275.013147 409.717895 
L 278.186853 395.924211 
L 281.360559 381.069474 
L 284.534266 365.153684 
L 287.707972 348.176842 
L 290.881678 330.138947 
L 294.055385 311.04 
L 297.229091 290.88 
" clip-path="url(#p3eec6140b3)" style="fill: none; stroke: #000000; stroke-width: 1.5; stroke-linecap: square"/>
   </g>
   <g id="line2d_2">
    <path d="M 297.229091 290.88 
L 300.402797 270.72 
L 303.576503 251.621053 
L 306.75021 233.583158 
L 309.923916 216.606316 
L 313.097622 200.690526 
L 316.271329 185.835789 
L 319.445035 172.042105 
L 322.618741 159.309474 
L 325.792448 147.637895 
L 328.966154 137.027368 
L 332.13986 127.477895 
L 335.313566 118.989474 
L 338.487273 111.562105 
L 341.660979 105.195789 
L 344.834685 99.890526 
L 348.008392 95.646316 
L 351.182098 92.463158 
L 354.355804 90.341053 
L 357.52951 89.28 
L 360.703217 89.28 
L 363.876923 90.341053 
L 367.050629 92.463158 
L 370.224336 95.646316 
L 373.398042 99.890526 
L 376.571748 105.195789 
L 379.745455 111.562105 
L 382.919161 118.989474 
L 386.092867 127.477895 
L 389.266573 137.027368 
L 392.44028 147.637895 
L 395.613986 159.309474 
L 398.787692 172.042105 
L 401.961399 185.835789 
L 405.135105 200.690526 
L 408.308811 216.606316 
L 411.482517 233.583158 
L 414.656224 251.621053 
L 417.82993 270.72 
L 421.003636 290.88 
" clip-path="url(#p3eec6140b3)" style="fill: none; stroke: #000000; stroke-width: 1.5; stroke-linecap: square"/>
   </g>
   <g id="matplotlib.axis_1"/>
   <g id="matplotlib.axis_2"/>
   <g id="line2d_3">
    <path d="M 92.290909 290.88 
L 498.109091 290.88 
" clip-path="url(#p3eec6140b3)" style="fill: none; stroke: #808080; stroke-width: 1.5; stroke-linecap: square"/>
   </g>
   <g id="patch_3">
    <path d="M 72 512.64 
L 72 69.12 
" style="fill: none; stroke: #000000; stroke-width: 0.8; stroke-linejoin: miter; stroke-linecap: square"/>
   </g>
   <g id="patch_4">
    <path d="M 518.4 512.64 
L 518.4 69.12 
" style="fill: none; stroke: #000000; stroke-width: 0.8; stroke-linejoin: miter; stroke-linecap: square"/>
   </g>
   <g id="patch_5">
    <path d="M 72 512.64 
L 518.4 512.64 
" style="fill: none; stroke: #000000; stroke-width: 0.8; stroke-linejoin: miter; stroke-linecap: square"/>
   </g>
   <g id="patch_6">
    <path d="M 72 69.12 
L 518.4 69.12 
" style="fill: none; stroke: #000000; stroke-width: 0.8; stroke-linejoin: miter; stroke-linecap: square"/>
   </g>
   <g id="PathCollection_1">
    <defs>
     <path id="mb9fe263200" d="M 0 2.236068 
C 0.593012 2.236068 1.161816 2.000462 1.581139 1.581139 
C 2.000462 1.161816 2.236068 0.593012 2.236068 0 
C 2.236068 -0.593012 2.000462 -1.161816 1.581139 -1.581139 
C 1.161816 -2.000462 0.593012 -2.236068 0 -2.236068 
C -0.593012 -2.236068 -1.161816 -2.000462 -1.581139 -1.581139 
C -2.000462 -1.161816 -2.236068 -0.593012 -2.236068 0 
C -2.236068 0.593012 -2.000462 1.161816 -1.581139 1.581139 
C -1.161816 2.000462 -0.593012 2.236068 0 2.236068 
z
" style="stroke: #ff0000"/>
    </defs>
    <g clip-path="url(#p3eec6140b3)">
     <use xlink:href="#mb9fe263200" x="173.454545" y="290.88" style="fill: #ff0000; stroke: #ff0000"/>
    </g>
   </g>
   <g id="PathCollection_2">
    <g clip-path="url(#p3eec6140b3)">
     <use xlink:href="#mb9fe263200" x="297.229091" y="290.88" style="fill: #ff0000; stroke: #ff0000"/>
    </g>
   </g>
   <g id="PathCollection_3">
    <g clip-path="url(#p3eec6140b3)">
     <use xlink:href="#mb9fe263200" x="421.003636" y="290.88" style="fill: #ff0000; stroke: #ff0000"/>
    </g>
   </g>
  </g>
 </g>
 <defs>
  <clipPath id="p3eec6140b3">
   <rect x="72" y="69.12" width="446.4" height="443.52"/>
  </clipPath>
 </defs>
</svg>
