<?xml version="1.0" encoding="utf-8" standalone="no"?>
<!DOCTYPE svg PUBLIC "-//W3C//DTD SVG 1.1//EN"
  "http://www.w3.org/Graphics/SVG/1.1/DTD/svg11.dtd">
<svg xmlns:xlink="http://www.w3.org/1999/xlink" width="576pt" height="576pt" viewBox="0 0 576 576" xmlns="http://www.w3.org/2000/svg" version="1.1">
 <metadata>
  <rdf:RDF xmlns:dc="http://purl.org/dc/elements/1.1/" xmlns:cc="http://creativecommons.org/ns#" xmlns:rdf="http://www.w3.org/1999/02/22-rdf-syntax-ns#">
   <cc:Work>
    <dc:type rdf:resource="http://purl.org/dc/dcmitype/StillImage"/>
    <dc:date>2023-04-03T12:49:56.687310</dc:date>
    <dc:format>image/svg+xml</dc:format>
    <dc:creator>
     <cc:Agent>
      <dc:title>Matplotlib v3.6.3, https://matplotlib.org/</dc:title>
     </cc:Agent>
    </dc:creator>
   </cc:Work>
  </rdf:RDF>
 </metadata>
 <defs>
  <style type="text/css">*{stroke-linejoin: round; stroke-linecap: butt}</style>
 </defs>
 <g id="figure_1">
  <g id="patch_1">
   <path d="M 0 576 
L 576 576 
L 576 0 
L 0 0 
z
" style="fill: #ffffff"/>
  </g>
  <g id="axes_1">
   <g id="patch_2">
    <path d="M 72 512.64 
L 518.4 512.64 
L 518.4 69.12 
L 72 69.12 
z
" style="fill: #ffffff"/>
   </g>
   <g id="line2d_1">
    <path d="M 92.290909 273.349565 
L 93.383497 277.030957 
L 94.476084 280.51859 
L 95.568671 283.812467 
L 96.661259 286.912586 
L 97.753846 289.818947 
L 98.846434 292.531551 
L 99.939021 295.050398 
L 101.031608 297.375487 
L 102.124196 299.506819 
L 103.216783 301.444394 
L 104.309371 303.188211 
L 105.401958 304.73827 
L 106.494545 306.094572 
L 107.587133 307.257117 
L 108.67972 308.225904 
L 109.772308 309.000934 
L 110.864895 309.582206 
L 111.957483 309.969721 
L 113.05007 310.163478 
L 114.142657 310.163478 
L 115.235245 309.969721 
L 116.327832 309.582206 
L 117.42042 309.000934 
L 118.513007 308.225904 
L 119.605594 307.257117 
L 120.698182 306.094572 
L 121.790769 304.73827 
L 122.883357 303.188211 
L 123.975944 301.444394 
L 125.068531 299.506819 
L 126.161119 297.375487 
L 127.253706 295.050398 
L 128.346294 292.531551 
L 129.438881 289.818947 
L 130.531469 286.912586 
L 131.624056 283.812467 
L 132.716643 280.51859 
L 133.809231 277.030957 
L 134.901818 273.349565 
" clip-path="url(#pa00e2746f0)" style="fill: none; stroke: #000000; stroke-width: 1.5; stroke-linecap: square"/>
   </g>
   <g id="line2d_2">
    <path d="M 134.901818 273.349565 
L 140.364755 254.942609 
L 145.827692 237.504439 
L 151.290629 221.035057 
L 156.753566 205.534462 
L 162.216503 191.002654 
L 167.679441 177.439634 
L 173.142378 164.8454 
L 178.605315 153.219954 
L 184.068252 142.563295 
L 189.531189 132.875423 
L 194.994126 124.156339 
L 200.457063 116.406041 
L 205.92 109.624531 
L 211.382937 103.811808 
L 216.845874 98.967872 
L 222.308811 95.092723 
L 227.771748 92.186362 
L 233.234685 90.248787 
L 238.697622 89.28 
L 244.160559 89.28 
L 249.623497 90.248787 
L 255.086434 92.186362 
L 260.549371 95.092723 
L 266.012308 98.967872 
L 271.475245 103.811808 
L 276.938182 109.624531 
L 282.401119 116.406041 
L 287.864056 124.156339 
L 293.326993 132.875423 
L 298.78993 142.563295 
L 304.252867 153.219954 
L 309.715804 164.8454 
L 315.178741 177.439634 
L 320.641678 191.002654 
L 326.104615 205.534462 
L 331.567552 221.035057 
L 337.03049 237.504439 
L 342.493427 254.942609 
L 347.956364 273.349565 
" clip-path="url(#pa00e2746f0)" style="fill: none; stroke: #000000; stroke-width: 1.5; stroke-linecap: square"/>
   </g>
   <g id="line2d_3">
    <path d="M 347.956364 273.349565 
L 346.863776 277.030957 
L 345.771189 280.51859 
L 344.678601 283.812467 
L 343.586014 286.912586 
L 342.493427 289.818947 
L 341.400839 292.531551 
L 340.308252 295.050398 
L 339.215664 297.375487 
L 338.123077 299.506819 
L 337.03049 301.444394 
L 335.937902 303.188211 
L 334.845315 304.73827 
L 333.752727 306.094572 
L 332.66014 307.257117 
L 331.567552 308.225904 
L 330.474965 309.000934 
L 329.382378 309.582206 
L 328.28979 309.969721 
L 327.197203 310.163478 
L 326.104615 310.163478 
L 325.012028 309.969721 
L 323.919441 309.582206 
L 322.826853 309.000934 
L 321.734266 308.225904 
L 320.641678 307.257117 
L 319.549091 306.094572 
L 318.456503 304.73827 
L 317.363916 303.188211 
L 316.271329 301.444394 
L 315.178741 299.506819 
L 314.086154 297.375487 
L 312.993566 295.050398 
L 311.900979 292.531551 
L 310.808392 289.818947 
L 309.715804 286.912586 
L 308.623217 283.812467 
L 307.530629 280.51859 
L 306.438042 277.030957 
L 305.345455 273.349565 
" clip-path="url(#pa00e2746f0)" style="fill: none; stroke: #000000; stroke-width: 1.5; stroke-linecap: square"/>
   </g>
   <g id="line2d_4">
    <path d="M 305.345455 273.349565 
L 304.252867 269.668174 
L 303.16028 266.18054 
L 302.067692 262.886664 
L 300.975105 259.786545 
L 299.882517 256.880183 
L 298.78993 254.167579 
L 297.697343 251.648732 
L 296.604755 249.323643 
L 295.512168 247.192311 
L 294.41958 245.254737 
L 293.326993 243.51092 
L 292.234406 241.96086 
L 291.141818 240.604558 
L 290.049231 239.442014 
L 288.956643 238.473227 
L 287.864056 237.698197 
L 286.771469 237.116924 
L 285.678881 236.72941 
L 284.586294 236.535652 
L 283.493706 236.535652 
L 282.401119 236.72941 
L 281.308531 237.116924 
L 280.215944 237.698197 
L 279.123357 238.473227 
L 278.030769 239.442014 
L 276.938182 240.604558 
L 275.845594 241.96086 
L 274.753007 243.51092 
L 273.66042 245.254737 
L 272.567832 247.192311 
L 271.475245 249.323643 
L 270.382657 251.648732 
L 269.29007 254.167579 
L 268.197483 256.880183 
L 267.104895 259.786545 
L 266.012308 262.886664 
L 264.91972 266.18054 
L 263.827133 269.668174 
L 262.734545 273.349565 
" clip-path="url(#pa00e2746f0)" style="fill: none; stroke: #000000; stroke-width: 1.5; stroke-linecap: square"/>
   </g>
   <g id="line2d_5">
    <path d="M 262.734545 273.349565 
L 261.641958 277.030957 
L 260.549371 280.51859 
L 259.456783 283.812467 
L 258.364196 286.912586 
L 257.271608 289.818947 
L 256.179021 292.531551 
L 255.086434 295.050398 
L 253.993846 297.375487 
L 252.901259 299.506819 
L 251.808671 301.444394 
L 250.716084 303.188211 
L 249.623497 304.73827 
L 248.530909 306.094572 
L 247.438322 307.257117 
L 246.345734 308.225904 
L 245.253147 309.000934 
L 244.160559 309.582206 
L 243.067972 309.969721 
L 241.975385 310.163478 
L 240.882797 310.163478 
L 239.79021 309.969721 
L 238.697622 309.582206 
L 237.605035 309.000934 
L 236.512448 308.225904 
L 235.41986 307.257117 
L 234.327273 306.094572 
L 233.234685 304.73827 
L 232.142098 303.188211 
L 231.04951 301.444394 
L 229.956923 299.506819 
L 228.864336 297.375487 
L 227.771748 295.050398 
L 226.679161 292.531551 
L 225.586573 289.818947 
L 224.493986 286.912586 
L 223.401399 283.812467 
L 222.308811 280.51859 
L 221.216224 277.030957 
L 220.123636 273.349565 
" clip-path="url(#pa00e2746f0)" style="fill: none; stroke: #000000; stroke-width: 1.5; stroke-linecap: square"/>
   </g>
   <g id="line2d_6">
    <path d="M 220.123636 273.349565 
L 219.031049 269.668174 
L 217.938462 266.18054 
L 216.845874 262.886664 
L 215.753287 259.786545 
L 214.660699 256.880183 
L 213.568112 254.167579 
L 212.475524 251.648732 
L 211.382937 249.323643 
L 210.29035 247.192311 
L 209.197762 245.254737 
L 208.105175 243.51092 
L 207.012587 241.96086 
L 205.92 240.604558 
L 204.827413 239.442014 
L 203.734825 238.473227 
L 202.642238 237.698197 
L 201.54965 237.116924 
L 200.457063 236.72941 
L 199.364476 236.535652 
L 198.271888 236.535652 
L 197.179301 236.72941 
L 196.086713 237.116924 
L 194.994126 237.698197 
L 193.901538 238.473227 
L 192.808951 239.442014 
L 191.716364 240.604558 
L 190.623776 241.96086 
L 189.531189 243.51092 
L 188.438601 245.254737 
L 187.346014 247.192311 
L 186.253427 249.323643 
L 185.160839 251.648732 
L 184.068252 254.167579 
L 182.975664 256.880183 
L 181.883077 259.786545 
L 180.79049 262.886664 
L 179.697902 266.18054 
L 178.605315 269.668174 
L 177.512727 273.349565 
" clip-path="url(#pa00e2746f0)" style="fill: none; stroke: #000000; stroke-width: 1.5; stroke-linecap: square"/>
   </g>
   <g id="line2d_7">
    <path d="M 177.512727 273.349565 
L 184.016224 295.262609 
L 190.51972 316.022334 
L 197.023217 335.628741 
L 203.526713 354.081831 
L 210.03021 371.381602 
L 216.533706 387.528055 
L 223.037203 402.52119 
L 229.540699 416.361007 
L 236.044196 429.047506 
L 242.547692 440.580686 
L 249.051189 450.960549 
L 255.554685 460.187094 
L 262.058182 468.26032 
L 268.561678 475.180229 
L 275.065175 480.946819 
L 281.568671 485.560092 
L 288.072168 489.020046 
L 294.575664 491.326682 
L 301.079161 492.48 
L 307.582657 492.48 
L 314.086154 491.326682 
L 320.58965 489.020046 
L 327.093147 485.560092 
L 333.596643 480.946819 
L 340.10014 475.180229 
L 346.603636 468.26032 
L 353.107133 460.187094 
L 359.610629 450.960549 
L 366.114126 440.580686 
L 372.617622 429.047506 
L 379.121119 416.361007 
L 385.624615 402.52119 
L 392.128112 387.528055 
L 398.631608 371.381602 
L 405.135105 354.081831 
L 411.638601 335.628741 
L 418.142098 316.022334 
L 424.645594 295.262609 
L 431.149091 273.349565 
" clip-path="url(#pa00e2746f0)" style="fill: none; stroke: #000000; stroke-width: 1.5; stroke-linecap: square"/>
   </g>
   <g id="line2d_8">
    <path d="M 431.149091 273.349565 
L 432.241678 269.668174 
L 433.334266 266.18054 
L 434.426853 262.886664 
L 435.519441 259.786545 
L 436.612028 256.880183 
L 437.704615 254.167579 
L 438.797203 251.648732 
L 439.88979 249.323643 
L 440.982378 247.192311 
L 442.074965 245.254737 
L 443.167552 243.51092 
L 444.26014 241.96086 
L 445.352727 240.604558 
L 446.445315 239.442014 
L 447.537902 238.473227 
L 448.63049 237.698197 
L 449.723077 237.116924 
L 450.815664 236.72941 
L 451.908252 236.535652 
L 453.000839 236.535652 
L 454.093427 236.72941 
L 455.186014 237.116924 
L 456.278601 237.698197 
L 457.371189 238.473227 
L 458.463776 239.442014 
L 459.556364 240.604558 
L 460.648951 241.96086 
L 461.741538 243.51092 
L 462.834126 245.254737 
L 463.926713 247.192311 
L 465.019301 249.323643 
L 466.111888 251.648732 
L 467.204476 254.167579 
L 468.297063 256.880183 
L 469.38965 259.786545 
L 470.482238 262.886664 
L 471.574825 266.18054 
L 472.667413 269.668174 
L 473.76 273.349565 
" clip-path="url(#pa00e2746f0)" style="fill: none; stroke: #000000; stroke-width: 1.5; stroke-linecap: square"/>
   </g>
   <g id="matplotlib.axis_1"/>
   <g id="matplotlib.axis_2"/>
   <g id="line2d_9">
    <path d="M 92.290909 273.349565 
L 498.109091 273.349565 
" clip-path="url(#pa00e2746f0)" style="fill: none; stroke: #808080; stroke-width: 1.5; stroke-linecap: square"/>
   </g>
   <g id="patch_3">
    <path d="M 72 512.64 
L 72 69.12 
" style="fill: none; stroke: #000000; stroke-width: 0.8; stroke-linejoin: miter; stroke-linecap: square"/>
   </g>
   <g id="patch_4">
    <path d="M 518.4 512.64 
L 518.4 69.12 
" style="fill: none; stroke: #000000; stroke-width: 0.8; stroke-linejoin: miter; stroke-linecap: square"/>
   </g>
   <g id="patch_5">
    <path d="M 72 512.64 
L 518.4 512.64 
" style="fill: none; stroke: #000000; stroke-width: 0.8; stroke-linejoin: miter; stroke-linecap: square"/>
   </g>
   <g id="patch_6">
    <path d="M 72 69.12 
L 518.4 69.12 
" style="fill: none; stroke: #000000; stroke-width: 0.8; stroke-linejoin: miter; stroke-linecap: square"/>
   </g>
   <g id="PathCollection_1">
    <defs>
     <path id="m71d3ff11a8" d="M 0 2.236068 
C 0.593012 2.236068 1.161816 2.000462 1.581139 1.581139 
C 2.000462 1.161816 2.236068 0.593012 2.236068 0 
C 2.236068 -0.593012 2.000462 -1.161816 1.581139 -1.581139 
C 1.161816 -2.000462 0.593012 -2.236068 0 -2.236068 
C -0.593012 -2.236068 -1.161816 -2.000462 -1.581139 -1.581139 
C -2.000462 -1.161816 -2.236068 -0.593012 -2.236068 0 
C -2.236068 0.593012 -2.000462 1.161816 -1.581139 1.581139 
C -1.161816 2.000462 -0.593012 2.236068 0 2.236068 
z
" style="stroke: #ff0000"/>
    </defs>
    <g clip-path="url(#pa00e2746f0)">
     <use xlink:href="#m71d3ff11a8" x="92.290909" y="273.349565" style="fill: #ff0000; stroke: #ff0000"/>
    </g>
   </g>
   <g id="PathCollection_2">
    <g clip-path="url(#pa00e2746f0)">
     <use xlink:href="#m71d3ff11a8" x="134.901818" y="273.349565" style="fill: #ff0000; stroke: #ff0000"/>
    </g>
   </g>
   <g id="PathCollection_3">
    <g clip-path="url(#pa00e2746f0)">
     <use xlink:href="#m71d3ff11a8" x="177.512727" y="273.349565" style="fill: #ff0000; stroke: #ff0000"/>
    </g>
   </g>
   <g id="PathCollection_4">
    <g clip-path="url(#pa00e2746f0)">
     <use xlink:href="#m71d3ff11a8" x="220.123636" y="273.349565" style="fill: #ff0000; stroke: #ff0000"/>
    </g>
   </g>
   <g id="PathCollection_5">
    <g clip-path="url(#pa00e2746f0)">
     <use xlink:href="#m71d3ff11a8" x="262.734545" y="273.349565" style="fill: #ff0000; stroke: #ff0000"/>
    </g>
   </g>
   <g id="PathCollection_6">
    <g clip-path="url(#pa00e2746f0)">
     <use xlink:href="#m71d3ff11a8" x="305.345455" y="273.349565" style="fill: #ff0000; stroke: #ff0000"/>
    </g>
   </g>
   <g id="PathCollection_7">
    <g clip-path="url(#pa00e2746f0)">
     <use xlink:href="#m71d3ff11a8" x="347.956364" y="273.349565" style="fill: #ff0000; stroke: #ff0000"/>
    </g>
   </g>
   <g id="PathCollection_8">
    <g clip-path="url(#pa00e2746f0)">
     <use xlink:href="#m71d3ff11a8" x="431.149091" y="273.349565" style="fill: #ff0000; stroke: #ff0000"/>
    </g>
   </g>
   <g id="PathCollection_9">
    <g clip-path="url(#pa00e2746f0)">
     <use xlink:href="#m71d3ff11a8" x="473.76" y="273.349565" style="fill: #ff0000; stroke: #ff0000"/>
    </g>
   </g>
  </g>
 </g>
 <defs>
  <clipPath id="pa00e2746f0">
   <rect x="72" y="69.12" width="446.4" height="443.52"/>
  </clipPath>
 </defs>
</svg>
