<?xml version="1.0" encoding="utf-8" standalone="no"?>
<!DOCTYPE svg PUBLIC "-//W3C//DTD SVG 1.1//EN"
  "http://www.w3.org/Graphics/SVG/1.1/DTD/svg11.dtd">
<svg xmlns:xlink="http://www.w3.org/1999/xlink" width="576pt" height="576pt" viewBox="0 0 576 576" xmlns="http://www.w3.org/2000/svg" version="1.1">
 <metadata>
  <rdf:RDF xmlns:dc="http://purl.org/dc/elements/1.1/" xmlns:cc="http://creativecommons.org/ns#" xmlns:rdf="http://www.w3.org/1999/02/22-rdf-syntax-ns#">
   <cc:Work>
    <dc:type rdf:resource="http://purl.org/dc/dcmitype/StillImage"/>
    <dc:date>2023-04-27T11:27:41.225885</dc:date>
    <dc:format>image/svg+xml</dc:format>
    <dc:creator>
     <cc:Agent>
      <dc:title>Matplotlib v3.6.3, https://matplotlib.org/</dc:title>
     </cc:Agent>
    </dc:creator>
   </cc:Work>
  </rdf:RDF>
 </metadata>
 <defs>
  <style type="text/css">*{stroke-linejoin: round; stroke-linecap: butt}</style>
 </defs>
 <g id="figure_1">
  <g id="patch_1">
   <path d="M 0 576 
L 576 576 
L 576 0 
L 0 0 
z
" style="fill: #ffffff"/>
  </g>
  <g id="axes_1">
   <g id="patch_2">
    <path d="M 72 512.64 
L 518.4 512.64 
L 518.4 69.12 
L 72 69.12 
z
" style="fill: #ffffff"/>
   </g>
   <g id="line2d_1">
    <path d="M 132.872727 332.385882 
L 133.965315 336.536471 
L 135.057902 340.468607 
L 136.15049 344.182291 
L 137.243077 347.677523 
L 138.335664 350.954303 
L 139.428252 354.012632 
L 140.520839 356.852508 
L 141.613427 359.473932 
L 142.706014 361.876904 
L 143.798601 364.061424 
L 144.891189 366.027492 
L 145.983776 367.775108 
L 147.076364 369.304272 
L 148.168951 370.614985 
L 149.261538 371.707245 
L 150.354126 372.581053 
L 151.446713 373.236409 
L 152.539301 373.673313 
L 153.631888 373.891765 
L 154.724476 373.891765 
L 155.817063 373.673313 
L 156.90965 373.236409 
L 158.002238 372.581053 
L 159.094825 371.707245 
L 160.187413 370.614985 
L 161.28 369.304272 
L 162.372587 367.775108 
L 163.465175 366.027492 
L 164.557762 364.061424 
L 165.65035 361.876904 
L 166.742937 359.473932 
L 167.835524 356.852508 
L 168.928112 354.012632 
L 170.020699 350.954303 
L 171.113287 347.677523 
L 172.205874 344.182291 
L 173.298462 340.468607 
L 174.391049 336.536471 
L 175.483636 332.385882 
" clip-path="url(#pea86b91fb5)" style="fill: none; stroke: #000000; stroke-width: 1.5; stroke-linecap: square"/>
   </g>
   <g id="line2d_2">
    <path d="M 175.483636 332.385882 
L 181.883077 308.075294 
L 188.282517 285.044211 
L 194.681958 263.292632 
L 201.081399 242.820557 
L 207.480839 223.627988 
L 213.88028 205.714923 
L 220.27972 189.081362 
L 226.679161 173.727307 
L 233.078601 159.652755 
L 239.478042 146.857709 
L 245.877483 135.342167 
L 252.276923 125.10613 
L 258.676364 116.149598 
L 265.075804 108.47257 
L 271.475245 102.075046 
L 277.874685 96.957028 
L 284.274126 93.118514 
L 290.673566 90.559505 
L 297.073007 89.28 
L 303.472448 89.28 
L 309.871888 90.559505 
L 316.271329 93.118514 
L 322.670769 96.957028 
L 329.07021 102.075046 
L 335.46965 108.47257 
L 341.869091 116.149598 
L 348.268531 125.10613 
L 354.667972 135.342167 
L 361.067413 146.857709 
L 367.466853 159.652755 
L 373.866294 173.727307 
L 380.265734 189.081362 
L 386.665175 205.714923 
L 393.064615 223.627988 
L 399.464056 242.820557 
L 405.863497 263.292632 
L 412.262937 285.044211 
L 418.662378 308.075294 
L 425.061818 332.385882 
" clip-path="url(#pea86b91fb5)" style="fill: none; stroke: #000000; stroke-width: 1.5; stroke-linecap: square"/>
   </g>
   <g id="line2d_3">
    <path d="M 425.061818 332.385882 
L 420.847552 348.395294 
L 416.633287 363.562105 
L 412.419021 377.886316 
L 408.204755 391.367926 
L 403.99049 404.006935 
L 399.776224 415.803344 
L 395.561958 426.757152 
L 391.347692 436.868359 
L 387.133427 446.136966 
L 382.919161 454.562972 
L 378.704895 462.146378 
L 374.490629 468.887183 
L 370.276364 474.785387 
L 366.062098 479.840991 
L 361.847832 484.053994 
L 357.633566 487.424396 
L 353.419301 489.952198 
L 349.205035 491.637399 
L 344.990769 492.48 
L 340.776503 492.48 
L 336.562238 491.637399 
L 332.347972 489.952198 
L 328.133706 487.424396 
L 323.919441 484.053994 
L 319.705175 479.840991 
L 315.490909 474.785387 
L 311.276643 468.887183 
L 307.062378 462.146378 
L 302.848112 454.562972 
L 298.633846 446.136966 
L 294.41958 436.868359 
L 290.205315 426.757152 
L 285.991049 415.803344 
L 281.776783 404.006935 
L 277.562517 391.367926 
L 273.348252 377.886316 
L 269.133986 363.562105 
L 264.91972 348.395294 
L 260.705455 332.385882 
" clip-path="url(#pea86b91fb5)" style="fill: none; stroke: #000000; stroke-width: 1.5; stroke-linecap: square"/>
   </g>
   <g id="line2d_4">
    <path d="M 260.705455 332.385882 
L 259.612867 328.235294 
L 258.52028 324.303158 
L 257.427692 320.589474 
L 256.335105 317.094241 
L 255.242517 313.817461 
L 254.14993 310.759133 
L 253.057343 307.919257 
L 251.964755 305.297833 
L 250.872168 302.894861 
L 249.77958 300.710341 
L 248.686993 298.744272 
L 247.594406 296.996656 
L 246.501818 295.467492 
L 245.409231 294.15678 
L 244.316643 293.06452 
L 243.224056 292.190712 
L 242.131469 291.535356 
L 241.038881 291.098452 
L 239.946294 290.88 
L 238.853706 290.88 
L 237.761119 291.098452 
L 236.668531 291.535356 
L 235.575944 292.190712 
L 234.483357 293.06452 
L 233.390769 294.15678 
L 232.298182 295.467492 
L 231.205594 296.996656 
L 230.113007 298.744272 
L 229.02042 300.710341 
L 227.927832 302.894861 
L 226.835245 305.297833 
L 225.742657 307.919257 
L 224.65007 310.759133 
L 223.557483 313.817461 
L 222.464895 317.094241 
L 221.372308 320.589474 
L 220.27972 324.303158 
L 219.187133 328.235294 
L 218.094545 332.385882 
" clip-path="url(#pea86b91fb5)" style="fill: none; stroke: #000000; stroke-width: 1.5; stroke-linecap: square"/>
   </g>
   <g id="matplotlib.axis_1"/>
   <g id="matplotlib.axis_2"/>
   <g id="line2d_5">
    <path d="M 92.290909 332.385882 
L 498.109091 332.385882 
" clip-path="url(#pea86b91fb5)" style="fill: none; stroke: #808080; stroke-width: 1.5; stroke-linecap: square"/>
   </g>
   <g id="patch_3">
    <path d="M 72 512.64 
L 72 69.12 
" style="fill: none; stroke: #000000; stroke-width: 0.8; stroke-linejoin: miter; stroke-linecap: square"/>
   </g>
   <g id="patch_4">
    <path d="M 518.4 512.64 
L 518.4 69.12 
" style="fill: none; stroke: #000000; stroke-width: 0.8; stroke-linejoin: miter; stroke-linecap: square"/>
   </g>
   <g id="patch_5">
    <path d="M 72 512.64 
L 518.4 512.64 
" style="fill: none; stroke: #000000; stroke-width: 0.8; stroke-linejoin: miter; stroke-linecap: square"/>
   </g>
   <g id="patch_6">
    <path d="M 72 69.12 
L 518.4 69.12 
" style="fill: none; stroke: #000000; stroke-width: 0.8; stroke-linejoin: miter; stroke-linecap: square"/>
   </g>
   <g id="PathCollection_1">
    <defs>
     <path id="m0ae2f4955e" d="M 0 2.236068 
C 0.593012 2.236068 1.161816 2.000462 1.581139 1.581139 
C 2.000462 1.161816 2.236068 0.593012 2.236068 0 
C 2.236068 -0.593012 2.000462 -1.161816 1.581139 -1.581139 
C 1.161816 -2.000462 0.593012 -2.236068 0 -2.236068 
C -0.593012 -2.236068 -1.161816 -2.000462 -1.581139 -1.581139 
C -2.000462 -1.161816 -2.236068 -0.593012 -2.236068 0 
C -2.236068 0.593012 -2.000462 1.161816 -1.581139 1.581139 
C -1.161816 2.000462 -0.593012 2.236068 0 2.236068 
z
" style="stroke: #ff0000"/>
    </defs>
    <g clip-path="url(#pea86b91fb5)">
     <use xlink:href="#m0ae2f4955e" x="132.872727" y="332.385882" style="fill: #ff0000; stroke: #ff0000"/>
    </g>
   </g>
   <g id="PathCollection_2">
    <g clip-path="url(#pea86b91fb5)">
     <use xlink:href="#m0ae2f4955e" x="175.483636" y="332.385882" style="fill: #ff0000; stroke: #ff0000"/>
    </g>
   </g>
   <g id="PathCollection_3">
    <g clip-path="url(#pea86b91fb5)">
     <use xlink:href="#m0ae2f4955e" x="218.094545" y="332.385882" style="fill: #ff0000; stroke: #ff0000"/>
    </g>
   </g>
   <g id="PathCollection_4">
    <g clip-path="url(#pea86b91fb5)">
     <use xlink:href="#m0ae2f4955e" x="260.705455" y="332.385882" style="fill: #ff0000; stroke: #ff0000"/>
    </g>
   </g>
   <g id="PathCollection_5">
    <g clip-path="url(#pea86b91fb5)">
     <use xlink:href="#m0ae2f4955e" x="425.061818" y="332.385882" style="fill: #ff0000; stroke: #ff0000"/>
    </g>
   </g>
  </g>
 </g>
 <defs>
  <clipPath id="pea86b91fb5">
   <rect x="72" y="69.12" width="446.4" height="443.52"/>
  </clipPath>
 </defs>
</svg>
