<?xml version="1.0" encoding="utf-8" standalone="no"?>
<!DOCTYPE svg PUBLIC "-//W3C//DTD SVG 1.1//EN"
  "http://www.w3.org/Graphics/SVG/1.1/DTD/svg11.dtd">
<svg xmlns:xlink="http://www.w3.org/1999/xlink" width="576pt" height="576pt" viewBox="0 0 576 576" xmlns="http://www.w3.org/2000/svg" version="1.1">
 <metadata>
  <rdf:RDF xmlns:dc="http://purl.org/dc/elements/1.1/" xmlns:cc="http://creativecommons.org/ns#" xmlns:rdf="http://www.w3.org/1999/02/22-rdf-syntax-ns#">
   <cc:Work>
    <dc:type rdf:resource="http://purl.org/dc/dcmitype/StillImage"/>
    <dc:date>2023-04-16T16:18:25.675266</dc:date>
    <dc:format>image/svg+xml</dc:format>
    <dc:creator>
     <cc:Agent>
      <dc:title>Matplotlib v3.6.3, https://matplotlib.org/</dc:title>
     </cc:Agent>
    </dc:creator>
   </cc:Work>
  </rdf:RDF>
 </metadata>
 <defs>
  <style type="text/css">*{stroke-linejoin: round; stroke-linecap: butt}</style>
 </defs>
 <g id="figure_1">
  <g id="patch_1">
   <path d="M 0 576 
L 576 576 
L 576 0 
L 0 0 
z
" style="fill: #ffffff"/>
  </g>
  <g id="axes_1">
   <g id="patch_2">
    <path d="M 72 512.64 
L 518.4 512.64 
L 518.4 69.12 
L 72 69.12 
z
" style="fill: #ffffff"/>
   </g>
   <g id="line2d_1">
    <path d="M 92.290909 358.63082 
L 93.383497 362.100984 
L 94.476084 365.388507 
L 95.568671 368.493391 
L 96.661259 371.415634 
L 97.753846 374.155237 
L 98.846434 376.7122 
L 99.939021 379.086523 
L 101.031608 381.278205 
L 102.124196 383.287248 
L 103.216783 385.11365 
L 104.309371 386.757412 
L 105.401958 388.218533 
L 106.494545 389.497015 
L 107.587133 390.592856 
L 108.67972 391.506057 
L 109.772308 392.236618 
L 110.864895 392.784538 
L 111.957483 393.149819 
L 113.05007 393.332459 
L 114.142657 393.332459 
L 115.235245 393.149819 
L 116.327832 392.784538 
L 117.42042 392.236618 
L 118.513007 391.506057 
L 119.605594 390.592856 
L 120.698182 389.497015 
L 121.790769 388.218533 
L 122.883357 386.757412 
L 123.975944 385.11365 
L 125.068531 383.287248 
L 126.161119 381.278205 
L 127.253706 379.086523 
L 128.346294 376.7122 
L 129.438881 374.155237 
L 130.531469 371.415634 
L 131.624056 368.493391 
L 132.716643 365.388507 
L 133.809231 362.100984 
L 134.901818 358.63082 
" clip-path="url(#p1a73906aa6)" style="fill: none; stroke: #000000; stroke-width: 1.5; stroke-linecap: square"/>
   </g>
   <g id="line2d_2">
    <path d="M 134.901818 358.63082 
L 143.382378 331.695738 
L 151.862937 306.178292 
L 160.343497 282.078481 
L 168.824056 259.396307 
L 177.304615 238.131769 
L 185.785175 218.284866 
L 194.265734 199.8556 
L 202.746294 182.843969 
L 211.226853 167.249974 
L 219.707413 153.073615 
L 228.187972 140.314892 
L 236.668531 128.973805 
L 245.149091 119.050354 
L 253.62965 110.544538 
L 262.11021 103.456359 
L 270.590769 97.785815 
L 279.071329 93.532908 
L 287.551888 90.697636 
L 296.032448 89.28 
L 304.513007 89.28 
L 312.993566 90.697636 
L 321.474126 93.532908 
L 329.954685 97.785815 
L 338.435245 103.456359 
L 346.915804 110.544538 
L 355.396364 119.050354 
L 363.876923 128.973805 
L 372.357483 140.314892 
L 380.838042 153.073615 
L 389.318601 167.249974 
L 397.799161 182.843969 
L 406.27972 199.8556 
L 414.76028 218.284866 
L 423.240839 238.131769 
L 431.721399 259.396307 
L 440.201958 282.078481 
L 448.682517 306.178292 
L 457.163077 331.695738 
L 465.643636 358.63082 
" clip-path="url(#p1a73906aa6)" style="fill: none; stroke: #000000; stroke-width: 1.5; stroke-linecap: square"/>
   </g>
   <g id="line2d_3">
    <path d="M 465.643636 358.63082 
L 461.429371 372.015738 
L 457.215105 384.696186 
L 453.000839 396.672166 
L 448.786573 407.943676 
L 444.572308 418.510716 
L 440.358042 428.373287 
L 436.143776 437.531389 
L 431.92951 445.985022 
L 427.715245 453.734185 
L 423.500979 460.778878 
L 419.286713 467.119103 
L 415.072448 472.754858 
L 410.858182 477.686143 
L 406.643916 481.912959 
L 402.42965 485.435306 
L 398.215385 488.253184 
L 394.001119 490.366592 
L 389.786853 491.775531 
L 385.572587 492.48 
L 381.358322 492.48 
L 377.144056 491.775531 
L 372.92979 490.366592 
L 368.715524 488.253184 
L 364.501259 485.435306 
L 360.286993 481.912959 
L 356.072727 477.686143 
L 351.858462 472.754858 
L 347.644196 467.119103 
L 343.42993 460.778878 
L 339.215664 453.734185 
L 335.001399 445.985022 
L 330.787133 437.531389 
L 326.572867 428.373287 
L 322.358601 418.510716 
L 318.144336 407.943676 
L 313.93007 396.672166 
L 309.715804 384.696186 
L 305.501538 372.015738 
L 301.287273 358.63082 
" clip-path="url(#p1a73906aa6)" style="fill: none; stroke: #000000; stroke-width: 1.5; stroke-linecap: square"/>
   </g>
   <g id="line2d_4">
    <path d="M 301.287273 358.63082 
L 298.113566 348.55082 
L 294.93986 339.001346 
L 291.766154 329.982399 
L 288.592448 321.493978 
L 285.418741 313.536083 
L 282.245035 306.108714 
L 279.071329 299.211872 
L 275.897622 292.845557 
L 272.723916 287.009767 
L 269.55021 281.704504 
L 266.376503 276.929767 
L 263.202797 272.685557 
L 260.029091 268.971872 
L 256.855385 265.788714 
L 253.681678 263.136083 
L 250.507972 261.013978 
L 247.334266 259.422399 
L 244.160559 258.361346 
L 240.986853 257.83082 
L 237.813147 257.83082 
L 234.639441 258.361346 
L 231.465734 259.422399 
L 228.292028 261.013978 
L 225.118322 263.136083 
L 221.944615 265.788714 
L 218.770909 268.971872 
L 215.597203 272.685557 
L 212.423497 276.929767 
L 209.24979 281.704504 
L 206.076084 287.009767 
L 202.902378 292.845557 
L 199.728671 299.211872 
L 196.554965 306.108714 
L 193.381259 313.536083 
L 190.207552 321.493978 
L 187.033846 329.982399 
L 183.86014 339.001346 
L 180.686434 348.55082 
L 177.512727 358.63082 
" clip-path="url(#p1a73906aa6)" style="fill: none; stroke: #000000; stroke-width: 1.5; stroke-linecap: square"/>
   </g>
   <g id="matplotlib.axis_1"/>
   <g id="matplotlib.axis_2"/>
   <g id="line2d_5">
    <path d="M 92.290909 358.63082 
L 498.109091 358.63082 
" clip-path="url(#p1a73906aa6)" style="fill: none; stroke: #808080; stroke-width: 1.5; stroke-linecap: square"/>
   </g>
   <g id="patch_3">
    <path d="M 72 512.64 
L 72 69.12 
" style="fill: none; stroke: #000000; stroke-width: 0.8; stroke-linejoin: miter; stroke-linecap: square"/>
   </g>
   <g id="patch_4">
    <path d="M 518.4 512.64 
L 518.4 69.12 
" style="fill: none; stroke: #000000; stroke-width: 0.8; stroke-linejoin: miter; stroke-linecap: square"/>
   </g>
   <g id="patch_5">
    <path d="M 72 512.64 
L 518.4 512.64 
" style="fill: none; stroke: #000000; stroke-width: 0.8; stroke-linejoin: miter; stroke-linecap: square"/>
   </g>
   <g id="patch_6">
    <path d="M 72 69.12 
L 518.4 69.12 
" style="fill: none; stroke: #000000; stroke-width: 0.8; stroke-linejoin: miter; stroke-linecap: square"/>
   </g>
   <g id="PathCollection_1">
    <defs>
     <path id="m6838876882" d="M 0 2.236068 
C 0.593012 2.236068 1.161816 2.000462 1.581139 1.581139 
C 2.000462 1.161816 2.236068 0.593012 2.236068 0 
C 2.236068 -0.593012 2.000462 -1.161816 1.581139 -1.581139 
C 1.161816 -2.000462 0.593012 -2.236068 0 -2.236068 
C -0.593012 -2.236068 -1.161816 -2.000462 -1.581139 -1.581139 
C -2.000462 -1.161816 -2.236068 -0.593012 -2.236068 0 
C -2.236068 0.593012 -2.000462 1.161816 -1.581139 1.581139 
C -1.161816 2.000462 -0.593012 2.236068 0 2.236068 
z
" style="stroke: #ff0000"/>
    </defs>
    <g clip-path="url(#p1a73906aa6)">
     <use xlink:href="#m6838876882" x="92.290909" y="358.63082" style="fill: #ff0000; stroke: #ff0000"/>
    </g>
   </g>
   <g id="PathCollection_2">
    <g clip-path="url(#p1a73906aa6)">
     <use xlink:href="#m6838876882" x="134.901818" y="358.63082" style="fill: #ff0000; stroke: #ff0000"/>
    </g>
   </g>
   <g id="PathCollection_3">
    <g clip-path="url(#p1a73906aa6)">
     <use xlink:href="#m6838876882" x="177.512727" y="358.63082" style="fill: #ff0000; stroke: #ff0000"/>
    </g>
   </g>
   <g id="PathCollection_4">
    <g clip-path="url(#p1a73906aa6)">
     <use xlink:href="#m6838876882" x="301.287273" y="358.63082" style="fill: #ff0000; stroke: #ff0000"/>
    </g>
   </g>
   <g id="PathCollection_5">
    <g clip-path="url(#p1a73906aa6)">
     <use xlink:href="#m6838876882" x="465.643636" y="358.63082" style="fill: #ff0000; stroke: #ff0000"/>
    </g>
   </g>
  </g>
 </g>
 <defs>
  <clipPath id="p1a73906aa6">
   <rect x="72" y="69.12" width="446.4" height="443.52"/>
  </clipPath>
 </defs>
</svg>
