<?xml version="1.0" encoding="utf-8" standalone="no"?>
<!DOCTYPE svg PUBLIC "-//W3C//DTD SVG 1.1//EN"
  "http://www.w3.org/Graphics/SVG/1.1/DTD/svg11.dtd">
<svg xmlns:xlink="http://www.w3.org/1999/xlink" width="576pt" height="576pt" viewBox="0 0 576 576" xmlns="http://www.w3.org/2000/svg" version="1.1">
 <metadata>
  <rdf:RDF xmlns:dc="http://purl.org/dc/elements/1.1/" xmlns:cc="http://creativecommons.org/ns#" xmlns:rdf="http://www.w3.org/1999/02/22-rdf-syntax-ns#">
   <cc:Work>
    <dc:type rdf:resource="http://purl.org/dc/dcmitype/StillImage"/>
    <dc:date>2023-04-22T18:08:28.621442</dc:date>
    <dc:format>image/svg+xml</dc:format>
    <dc:creator>
     <cc:Agent>
      <dc:title>Matplotlib v3.6.3, https://matplotlib.org/</dc:title>
     </cc:Agent>
    </dc:creator>
   </cc:Work>
  </rdf:RDF>
 </metadata>
 <defs>
  <style type="text/css">*{stroke-linejoin: round; stroke-linecap: butt}</style>
 </defs>
 <g id="figure_1">
  <g id="patch_1">
   <path d="M 0 576 
L 576 576 
L 576 0 
L 0 0 
z
" style="fill: #ffffff"/>
  </g>
  <g id="axes_1">
   <g id="patch_2">
    <path d="M 72 512.64 
L 518.4 512.64 
L 518.4 69.12 
L 72 69.12 
z
" style="fill: #ffffff"/>
   </g>
   <g id="line2d_1">
    <path d="M 173.454545 290.88 
L 174.547133 294.990291 
L 175.63972 298.884251 
L 176.732308 302.56188 
L 177.824895 306.023178 
L 178.917483 309.268145 
L 180.01007 312.296781 
L 181.102657 315.109085 
L 182.195245 317.705059 
L 183.287832 320.084701 
L 184.38042 322.248012 
L 185.473007 324.194992 
L 186.565594 325.925641 
L 187.658182 327.439959 
L 188.750769 328.737946 
L 189.843357 329.819601 
L 190.935944 330.684926 
L 192.028531 331.333919 
L 193.121119 331.766582 
L 194.213706 331.982913 
L 195.306294 331.982913 
L 196.398881 331.766582 
L 197.491469 331.333919 
L 198.584056 330.684926 
L 199.676643 329.819601 
L 200.769231 328.737946 
L 201.861818 327.439959 
L 202.954406 325.925641 
L 204.046993 324.194992 
L 205.13958 322.248012 
L 206.232168 320.084701 
L 207.324755 317.705059 
L 208.417343 315.109085 
L 209.50993 312.296781 
L 210.602517 309.268145 
L 211.695105 306.023178 
L 212.787692 302.56188 
L 213.88028 298.884251 
L 214.972867 294.990291 
L 216.065455 290.88 
" clip-path="url(#pdf540dfb26)" style="fill: none; stroke: #000000; stroke-width: 1.5; stroke-linecap: square"/>
   </g>
   <g id="line2d_2">
    <path d="M 216.065455 290.88 
L 221.424336 270.72 
L 226.783217 251.621053 
L 232.142098 233.583158 
L 237.500979 216.606316 
L 242.85986 200.690526 
L 248.218741 185.835789 
L 253.577622 172.042105 
L 258.936503 159.309474 
L 264.295385 147.637895 
L 269.654266 137.027368 
L 275.013147 127.477895 
L 280.372028 118.989474 
L 285.730909 111.562105 
L 291.08979 105.195789 
L 296.448671 99.890526 
L 301.807552 95.646316 
L 307.166434 92.463158 
L 312.525315 90.341053 
L 317.884196 89.28 
L 323.243077 89.28 
L 328.601958 90.341053 
L 333.960839 92.463158 
L 339.31972 95.646316 
L 344.678601 99.890526 
L 350.037483 105.195789 
L 355.396364 111.562105 
L 360.755245 118.989474 
L 366.114126 127.477895 
L 371.473007 137.027368 
L 376.831888 147.637895 
L 382.190769 159.309474 
L 387.54965 172.042105 
L 392.908531 185.835789 
L 398.267413 200.690526 
L 403.626294 216.606316 
L 408.985175 233.583158 
L 414.344056 251.621053 
L 419.702937 270.72 
L 425.061818 290.88 
" clip-path="url(#pdf540dfb26)" style="fill: none; stroke: #000000; stroke-width: 1.5; stroke-linecap: square"/>
   </g>
   <g id="line2d_3">
    <path d="M 425.061818 290.88 
L 422.928671 298.904854 
L 420.795524 306.507348 
L 418.662378 313.687481 
L 416.529231 320.445253 
L 414.396084 326.780664 
L 412.262937 332.693715 
L 410.12979 338.184405 
L 407.996643 343.252734 
L 405.863497 347.898702 
L 403.73035 352.12231 
L 401.597203 355.923556 
L 399.464056 359.302443 
L 397.330909 362.258968 
L 395.197762 364.793132 
L 393.064615 366.904936 
L 390.931469 368.594379 
L 388.798322 369.861461 
L 386.665175 370.706183 
L 384.532028 371.128544 
L 382.398881 371.128544 
L 380.265734 370.706183 
L 378.132587 369.861461 
L 375.999441 368.594379 
L 373.866294 366.904936 
L 371.733147 364.793132 
L 369.6 362.258968 
L 367.466853 359.302443 
L 365.333706 355.923556 
L 363.200559 352.12231 
L 361.067413 347.898702 
L 358.934266 343.252734 
L 356.801119 338.184405 
L 354.667972 332.693715 
L 352.534825 326.780664 
L 350.401678 320.445253 
L 348.268531 313.687481 
L 346.135385 306.507348 
L 344.002238 298.904854 
L 341.869091 290.88 
" clip-path="url(#pdf540dfb26)" style="fill: none; stroke: #000000; stroke-width: 1.5; stroke-linecap: square"/>
   </g>
   <g id="line2d_4">
    <path d="M 341.869091 290.88 
L 339.735944 282.855146 
L 337.602797 275.252652 
L 335.46965 268.072519 
L 333.336503 261.314747 
L 331.203357 254.979336 
L 329.07021 249.066285 
L 326.937063 243.575595 
L 324.803916 238.507266 
L 322.670769 233.861298 
L 320.537622 229.63769 
L 318.404476 225.836444 
L 316.271329 222.457557 
L 314.138182 219.501032 
L 312.005035 216.966868 
L 309.871888 214.855064 
L 307.738741 213.165621 
L 305.605594 211.898539 
L 303.472448 211.053817 
L 301.339301 210.631456 
L 299.206154 210.631456 
L 297.073007 211.053817 
L 294.93986 211.898539 
L 292.806713 213.165621 
L 290.673566 214.855064 
L 288.54042 216.966868 
L 286.407273 219.501032 
L 284.274126 222.457557 
L 282.140979 225.836444 
L 280.007832 229.63769 
L 277.874685 233.861298 
L 275.741538 238.507266 
L 273.608392 243.575595 
L 271.475245 249.066285 
L 269.342098 254.979336 
L 267.208951 261.314747 
L 265.075804 268.072519 
L 262.942657 275.252652 
L 260.80951 282.855146 
L 258.676364 290.88 
" clip-path="url(#pdf540dfb26)" style="fill: none; stroke: #000000; stroke-width: 1.5; stroke-linecap: square"/>
   </g>
   <g id="line2d_5">
    <path d="M 258.676364 290.88 
L 264.035245 311.04 
L 269.394126 330.138947 
L 274.753007 348.176842 
L 280.111888 365.153684 
L 285.470769 381.069474 
L 290.82965 395.924211 
L 296.188531 409.717895 
L 301.547413 422.450526 
L 306.906294 434.122105 
L 312.265175 444.732632 
L 317.624056 454.282105 
L 322.982937 462.770526 
L 328.341818 470.197895 
L 333.700699 476.564211 
L 339.05958 481.869474 
L 344.418462 486.113684 
L 349.777343 489.296842 
L 355.136224 491.418947 
L 360.495105 492.48 
L 365.853986 492.48 
L 371.212867 491.418947 
L 376.571748 489.296842 
L 381.930629 486.113684 
L 387.28951 481.869474 
L 392.648392 476.564211 
L 398.007273 470.197895 
L 403.366154 462.770526 
L 408.725035 454.282105 
L 414.083916 444.732632 
L 419.442797 434.122105 
L 424.801678 422.450526 
L 430.160559 409.717895 
L 435.519441 395.924211 
L 440.878322 381.069474 
L 446.237203 365.153684 
L 451.596084 348.176842 
L 456.954965 330.138947 
L 462.313846 311.04 
L 467.672727 290.88 
" clip-path="url(#pdf540dfb26)" style="fill: none; stroke: #000000; stroke-width: 1.5; stroke-linecap: square"/>
   </g>
   <g id="matplotlib.axis_1"/>
   <g id="matplotlib.axis_2"/>
   <g id="line2d_6">
    <path d="M 92.290909 290.88 
L 498.109091 290.88 
" clip-path="url(#pdf540dfb26)" style="fill: none; stroke: #808080; stroke-width: 1.5; stroke-linecap: square"/>
   </g>
   <g id="patch_3">
    <path d="M 72 512.64 
L 72 69.12 
" style="fill: none; stroke: #000000; stroke-width: 0.8; stroke-linejoin: miter; stroke-linecap: square"/>
   </g>
   <g id="patch_4">
    <path d="M 518.4 512.64 
L 518.4 69.12 
" style="fill: none; stroke: #000000; stroke-width: 0.8; stroke-linejoin: miter; stroke-linecap: square"/>
   </g>
   <g id="patch_5">
    <path d="M 72 512.64 
L 518.4 512.64 
" style="fill: none; stroke: #000000; stroke-width: 0.8; stroke-linejoin: miter; stroke-linecap: square"/>
   </g>
   <g id="patch_6">
    <path d="M 72 69.12 
L 518.4 69.12 
" style="fill: none; stroke: #000000; stroke-width: 0.8; stroke-linejoin: miter; stroke-linecap: square"/>
   </g>
   <g id="PathCollection_1">
    <defs>
     <path id="m54a102d133" d="M 0 2.236068 
C 0.593012 2.236068 1.161816 2.000462 1.581139 1.581139 
C 2.000462 1.161816 2.236068 0.593012 2.236068 0 
C 2.236068 -0.593012 2.000462 -1.161816 1.581139 -1.581139 
C 1.161816 -2.000462 0.593012 -2.236068 0 -2.236068 
C -0.593012 -2.236068 -1.161816 -2.000462 -1.581139 -1.581139 
C -2.000462 -1.161816 -2.236068 -0.593012 -2.236068 0 
C -2.236068 0.593012 -2.000462 1.161816 -1.581139 1.581139 
C -1.161816 2.000462 -0.593012 2.236068 0 2.236068 
z
" style="stroke: #ff0000"/>
    </defs>
    <g clip-path="url(#pdf540dfb26)">
     <use xlink:href="#m54a102d133" x="173.454545" y="290.88" style="fill: #ff0000; stroke: #ff0000"/>
    </g>
   </g>
   <g id="PathCollection_2">
    <g clip-path="url(#pdf540dfb26)">
     <use xlink:href="#m54a102d133" x="216.065455" y="290.88" style="fill: #ff0000; stroke: #ff0000"/>
    </g>
   </g>
   <g id="PathCollection_3">
    <g clip-path="url(#pdf540dfb26)">
     <use xlink:href="#m54a102d133" x="258.676364" y="290.88" style="fill: #ff0000; stroke: #ff0000"/>
    </g>
   </g>
   <g id="PathCollection_4">
    <g clip-path="url(#pdf540dfb26)">
     <use xlink:href="#m54a102d133" x="341.869091" y="290.88" style="fill: #ff0000; stroke: #ff0000"/>
    </g>
   </g>
   <g id="PathCollection_5">
    <g clip-path="url(#pdf540dfb26)">
     <use xlink:href="#m54a102d133" x="425.061818" y="290.88" style="fill: #ff0000; stroke: #ff0000"/>
    </g>
   </g>
   <g id="PathCollection_6">
    <g clip-path="url(#pdf540dfb26)">
     <use xlink:href="#m54a102d133" x="467.672727" y="290.88" style="fill: #ff0000; stroke: #ff0000"/>
    </g>
   </g>
  </g>
 </g>
 <defs>
  <clipPath id="pdf540dfb26">
   <rect x="72" y="69.12" width="446.4" height="443.52"/>
  </clipPath>
 </defs>
</svg>
