<?xml version="1.0" encoding="utf-8" standalone="no"?>
<!DOCTYPE svg PUBLIC "-//W3C//DTD SVG 1.1//EN"
  "http://www.w3.org/Graphics/SVG/1.1/DTD/svg11.dtd">
<svg xmlns:xlink="http://www.w3.org/1999/xlink" width="576pt" height="576pt" viewBox="0 0 576 576" xmlns="http://www.w3.org/2000/svg" version="1.1">
 <metadata>
  <rdf:RDF xmlns:dc="http://purl.org/dc/elements/1.1/" xmlns:cc="http://creativecommons.org/ns#" xmlns:rdf="http://www.w3.org/1999/02/22-rdf-syntax-ns#">
   <cc:Work>
    <dc:type rdf:resource="http://purl.org/dc/dcmitype/StillImage"/>
    <dc:date>2023-04-03T12:45:36.328336</dc:date>
    <dc:format>image/svg+xml</dc:format>
    <dc:creator>
     <cc:Agent>
      <dc:title>Matplotlib v3.6.3, https://matplotlib.org/</dc:title>
     </cc:Agent>
    </dc:creator>
   </cc:Work>
  </rdf:RDF>
 </metadata>
 <defs>
  <style type="text/css">*{stroke-linejoin: round; stroke-linecap: butt}</style>
 </defs>
 <g id="figure_1">
  <g id="patch_1">
   <path d="M 0 576 
L 576 576 
L 576 0 
L 0 0 
z
" style="fill: #ffffff"/>
  </g>
  <g id="axes_1">
   <g id="patch_2">
    <path d="M 72 512.64 
L 518.4 512.64 
L 518.4 69.12 
L 72 69.12 
z
" style="fill: #ffffff"/>
   </g>
   <g id="line2d_1">
    <path d="M 92.290909 251.350588 
L 93.383497 259.651765 
L 94.476084 267.516037 
L 95.568671 274.943406 
L 96.661259 281.93387 
L 97.753846 288.48743 
L 98.846434 294.604087 
L 99.939021 300.283839 
L 101.031608 305.526687 
L 102.124196 310.332632 
L 103.216783 314.701672 
L 104.309371 318.633808 
L 105.401958 322.12904 
L 106.494545 325.187368 
L 107.587133 327.808793 
L 108.67972 329.993313 
L 109.772308 331.740929 
L 110.864895 333.051641 
L 111.957483 333.925449 
L 113.05007 334.362353 
L 114.142657 334.362353 
L 115.235245 333.925449 
L 116.327832 333.051641 
L 117.42042 331.740929 
L 118.513007 329.993313 
L 119.605594 327.808793 
L 120.698182 325.187368 
L 121.790769 322.12904 
L 122.883357 318.633808 
L 123.975944 314.701672 
L 125.068531 310.332632 
L 126.161119 305.526687 
L 127.253706 300.283839 
L 128.346294 294.604087 
L 129.438881 288.48743 
L 130.531469 281.93387 
L 131.624056 274.943406 
L 132.716643 267.516037 
L 133.809231 259.651765 
L 134.901818 251.350588 
" clip-path="url(#p767cb76bf1)" style="fill: none; stroke: #000000; stroke-width: 1.5; stroke-linecap: square"/>
   </g>
   <g id="line2d_2">
    <path d="M 134.901818 251.350588 
L 137.034965 235.143529 
L 139.168112 219.789474 
L 141.301259 205.288421 
L 143.434406 191.640372 
L 145.567552 178.845325 
L 147.700699 166.903282 
L 149.833846 155.814241 
L 151.966993 145.578204 
L 154.10014 136.19517 
L 156.233287 127.665139 
L 158.366434 119.988111 
L 160.49958 113.164087 
L 162.632727 107.193065 
L 164.765874 102.075046 
L 166.899021 97.810031 
L 169.032168 94.398019 
L 171.165315 91.839009 
L 173.298462 90.133003 
L 175.431608 89.28 
L 177.564755 89.28 
L 179.697902 90.133003 
L 181.831049 91.839009 
L 183.964196 94.398019 
L 186.097343 97.810031 
L 188.23049 102.075046 
L 190.363636 107.193065 
L 192.496783 113.164087 
L 194.62993 119.988111 
L 196.763077 127.665139 
L 198.896224 136.19517 
L 201.029371 145.578204 
L 203.162517 155.814241 
L 205.295664 166.903282 
L 207.428811 178.845325 
L 209.561958 191.640372 
L 211.695105 205.288421 
L 213.828252 219.789474 
L 215.961399 235.143529 
L 218.094545 251.350588 
" clip-path="url(#p767cb76bf1)" style="fill: none; stroke: #000000; stroke-width: 1.5; stroke-linecap: square"/>
   </g>
   <g id="line2d_3">
    <path d="M 218.094545 251.350588 
L 220.227692 267.557647 
L 222.360839 282.911703 
L 224.493986 297.412755 
L 226.627133 311.060805 
L 228.76028 323.855851 
L 230.893427 335.797895 
L 233.026573 346.886935 
L 235.15972 357.122972 
L 237.292867 366.506006 
L 239.426014 375.036037 
L 241.559161 382.713065 
L 243.692308 389.53709 
L 245.825455 395.508111 
L 247.958601 400.62613 
L 250.091748 404.891146 
L 252.224895 408.303158 
L 254.358042 410.862167 
L 256.491189 412.568173 
L 258.624336 413.421176 
L 260.757483 413.421176 
L 262.890629 412.568173 
L 265.023776 410.862167 
L 267.156923 408.303158 
L 269.29007 404.891146 
L 271.423217 400.62613 
L 273.556364 395.508111 
L 275.68951 389.53709 
L 277.822657 382.713065 
L 279.955804 375.036037 
L 282.088951 366.506006 
L 284.222098 357.122972 
L 286.355245 346.886935 
L 288.488392 335.797895 
L 290.621538 323.855851 
L 292.754685 311.060805 
L 294.887832 297.412755 
L 297.020979 282.911703 
L 299.154126 267.557647 
L 301.287273 251.350588 
" clip-path="url(#p767cb76bf1)" style="fill: none; stroke: #000000; stroke-width: 1.5; stroke-linecap: square"/>
   </g>
   <g id="line2d_4">
    <path d="M 301.287273 251.350588 
L 302.37986 243.049412 
L 303.472448 235.185139 
L 304.565035 227.757771 
L 305.657622 220.767307 
L 306.75021 214.213746 
L 307.842797 208.09709 
L 308.935385 202.417337 
L 310.027972 197.174489 
L 311.120559 192.368545 
L 312.213147 187.999505 
L 313.305734 184.067368 
L 314.398322 180.572136 
L 315.490909 177.513808 
L 316.583497 174.892384 
L 317.676084 172.707864 
L 318.768671 170.960248 
L 319.861259 169.649536 
L 320.953846 168.775728 
L 322.046434 168.338824 
L 323.139021 168.338824 
L 324.231608 168.775728 
L 325.324196 169.649536 
L 326.416783 170.960248 
L 327.509371 172.707864 
L 328.601958 174.892384 
L 329.694545 177.513808 
L 330.787133 180.572136 
L 331.87972 184.067368 
L 332.972308 187.999505 
L 334.064895 192.368545 
L 335.157483 197.174489 
L 336.25007 202.417337 
L 337.342657 208.09709 
L 338.435245 214.213746 
L 339.527832 220.767307 
L 340.62042 227.757771 
L 341.713007 235.185139 
L 342.805594 243.049412 
L 343.898182 251.350588 
" clip-path="url(#p767cb76bf1)" style="fill: none; stroke: #000000; stroke-width: 1.5; stroke-linecap: square"/>
   </g>
   <g id="line2d_5">
    <path d="M 343.898182 251.350588 
L 347.071888 275.463529 
L 350.245594 298.307368 
L 353.419301 319.882105 
L 356.593007 340.18774 
L 359.766713 359.224272 
L 362.94042 376.991703 
L 366.114126 393.490031 
L 369.287832 408.719257 
L 372.461538 422.679381 
L 375.635245 435.370402 
L 378.808951 446.792322 
L 381.982657 456.945139 
L 385.156364 465.828854 
L 388.33007 473.443467 
L 391.503776 479.788978 
L 394.677483 484.865387 
L 397.851189 488.672693 
L 401.024895 491.210898 
L 404.198601 492.48 
L 407.372308 492.48 
L 410.546014 491.210898 
L 413.71972 488.672693 
L 416.893427 484.865387 
L 420.067133 479.788978 
L 423.240839 473.443467 
L 426.414545 465.828854 
L 429.588252 456.945139 
L 432.761958 446.792322 
L 435.935664 435.370402 
L 439.109371 422.679381 
L 442.283077 408.719257 
L 445.456783 393.490031 
L 448.63049 376.991703 
L 451.804196 359.224272 
L 454.977902 340.18774 
L 458.151608 319.882105 
L 461.325315 298.307368 
L 464.499021 275.463529 
L 467.672727 251.350588 
" clip-path="url(#p767cb76bf1)" style="fill: none; stroke: #000000; stroke-width: 1.5; stroke-linecap: square"/>
   </g>
   <g id="matplotlib.axis_1"/>
   <g id="matplotlib.axis_2"/>
   <g id="line2d_6">
    <path d="M 92.290909 251.350588 
L 498.109091 251.350588 
" clip-path="url(#p767cb76bf1)" style="fill: none; stroke: #808080; stroke-width: 1.5; stroke-linecap: square"/>
   </g>
   <g id="patch_3">
    <path d="M 72 512.64 
L 72 69.12 
" style="fill: none; stroke: #000000; stroke-width: 0.8; stroke-linejoin: miter; stroke-linecap: square"/>
   </g>
   <g id="patch_4">
    <path d="M 518.4 512.64 
L 518.4 69.12 
" style="fill: none; stroke: #000000; stroke-width: 0.8; stroke-linejoin: miter; stroke-linecap: square"/>
   </g>
   <g id="patch_5">
    <path d="M 72 512.64 
L 518.4 512.64 
" style="fill: none; stroke: #000000; stroke-width: 0.8; stroke-linejoin: miter; stroke-linecap: square"/>
   </g>
   <g id="patch_6">
    <path d="M 72 69.12 
L 518.4 69.12 
" style="fill: none; stroke: #000000; stroke-width: 0.8; stroke-linejoin: miter; stroke-linecap: square"/>
   </g>
   <g id="PathCollection_1">
    <defs>
     <path id="mc72c8c015c" d="M 0 2.236068 
C 0.593012 2.236068 1.161816 2.000462 1.581139 1.581139 
C 2.000462 1.161816 2.236068 0.593012 2.236068 0 
C 2.236068 -0.593012 2.000462 -1.161816 1.581139 -1.581139 
C 1.161816 -2.000462 0.593012 -2.236068 0 -2.236068 
C -0.593012 -2.236068 -1.161816 -2.000462 -1.581139 -1.581139 
C -2.000462 -1.161816 -2.236068 -0.593012 -2.236068 0 
C -2.236068 0.593012 -2.000462 1.161816 -1.581139 1.581139 
C -1.161816 2.000462 -0.593012 2.236068 0 2.236068 
z
" style="stroke: #ff0000"/>
    </defs>
    <g clip-path="url(#p767cb76bf1)">
     <use xlink:href="#mc72c8c015c" x="92.290909" y="251.350588" style="fill: #ff0000; stroke: #ff0000"/>
    </g>
   </g>
   <g id="PathCollection_2">
    <g clip-path="url(#p767cb76bf1)">
     <use xlink:href="#mc72c8c015c" x="134.901818" y="251.350588" style="fill: #ff0000; stroke: #ff0000"/>
    </g>
   </g>
   <g id="PathCollection_3">
    <g clip-path="url(#p767cb76bf1)">
     <use xlink:href="#mc72c8c015c" x="218.094545" y="251.350588" style="fill: #ff0000; stroke: #ff0000"/>
    </g>
   </g>
   <g id="PathCollection_4">
    <g clip-path="url(#p767cb76bf1)">
     <use xlink:href="#mc72c8c015c" x="301.287273" y="251.350588" style="fill: #ff0000; stroke: #ff0000"/>
    </g>
   </g>
   <g id="PathCollection_5">
    <g clip-path="url(#p767cb76bf1)">
     <use xlink:href="#mc72c8c015c" x="343.898182" y="251.350588" style="fill: #ff0000; stroke: #ff0000"/>
    </g>
   </g>
   <g id="PathCollection_6">
    <g clip-path="url(#p767cb76bf1)">
     <use xlink:href="#mc72c8c015c" x="467.672727" y="251.350588" style="fill: #ff0000; stroke: #ff0000"/>
    </g>
   </g>
  </g>
 </g>
 <defs>
  <clipPath id="p767cb76bf1">
   <rect x="72" y="69.12" width="446.4" height="443.52"/>
  </clipPath>
 </defs>
</svg>
