<?xml version="1.0" encoding="utf-8" standalone="no"?>
<!DOCTYPE svg PUBLIC "-//W3C//DTD SVG 1.1//EN"
  "http://www.w3.org/Graphics/SVG/1.1/DTD/svg11.dtd">
<svg xmlns:xlink="http://www.w3.org/1999/xlink" width="576pt" height="576pt" viewBox="0 0 576 576" xmlns="http://www.w3.org/2000/svg" version="1.1">
 <metadata>
  <rdf:RDF xmlns:dc="http://purl.org/dc/elements/1.1/" xmlns:cc="http://creativecommons.org/ns#" xmlns:rdf="http://www.w3.org/1999/02/22-rdf-syntax-ns#">
   <cc:Work>
    <dc:type rdf:resource="http://purl.org/dc/dcmitype/StillImage"/>
    <dc:date>2023-04-22T12:20:56.859683</dc:date>
    <dc:format>image/svg+xml</dc:format>
    <dc:creator>
     <cc:Agent>
      <dc:title>Matplotlib v3.6.3, https://matplotlib.org/</dc:title>
     </cc:Agent>
    </dc:creator>
   </cc:Work>
  </rdf:RDF>
 </metadata>
 <defs>
  <style type="text/css">*{stroke-linejoin: round; stroke-linecap: butt}</style>
 </defs>
 <g id="figure_1">
  <g id="patch_1">
   <path d="M 0 576 
L 576 576 
L 576 0 
L 0 0 
z
" style="fill: #ffffff"/>
  </g>
  <g id="axes_1">
   <g id="patch_2">
    <path d="M 72 512.64 
L 518.4 512.64 
L 518.4 69.12 
L 72 69.12 
z
" style="fill: #ffffff"/>
   </g>
   <g id="line2d_1">
    <path d="M 92.290909 189.260488 
L 101.916084 219.582439 
L 111.541259 248.308498 
L 121.166434 275.438665 
L 130.791608 300.97294 
L 140.416783 324.911322 
L 150.041958 347.253813 
L 159.667133 368.000411 
L 169.292308 387.151117 
L 178.917483 404.705931 
L 188.542657 420.664852 
L 198.167832 435.027882 
L 207.793007 447.795019 
L 217.418182 458.966264 
L 227.043357 468.541617 
L 236.668531 476.521078 
L 246.293706 482.904647 
L 255.918881 487.692323 
L 265.544056 490.884108 
L 275.169231 492.48 
L 284.794406 492.48 
L 294.41958 490.884108 
L 304.044755 487.692323 
L 313.66993 482.904647 
L 323.295105 476.521078 
L 332.92028 468.541617 
L 342.545455 458.966264 
L 352.170629 447.795019 
L 361.795804 435.027882 
L 371.420979 420.664852 
L 381.046154 404.705931 
L 390.671329 387.151117 
L 400.296503 368.000411 
L 409.921678 347.253813 
L 419.546853 324.911322 
L 429.172028 300.97294 
L 438.797203 275.438665 
L 448.422378 248.308498 
L 458.047552 219.582439 
L 467.672727 189.260488 
" clip-path="url(#pe774d55c77)" style="fill: none; stroke: #000000; stroke-width: 1.5; stroke-linecap: square"/>
   </g>
   <g id="line2d_2">
    <path d="M 467.672727 189.260488 
L 466.58014 185.818537 
L 465.487552 182.557741 
L 464.394965 179.4781 
L 463.302378 176.579615 
L 462.20979 173.862285 
L 461.117203 171.32611 
L 460.024615 168.971091 
L 458.932028 166.797227 
L 457.839441 164.804519 
L 456.746853 162.992965 
L 455.654266 161.362567 
L 454.561678 159.913325 
L 453.469091 158.645237 
L 452.376503 157.558306 
L 451.283916 156.652529 
L 450.191329 155.927908 
L 449.098741 155.384442 
L 448.006154 155.022131 
L 446.913566 154.840976 
L 445.820979 154.840976 
L 444.728392 155.022131 
L 443.635804 155.384442 
L 442.543217 155.927908 
L 441.450629 156.652529 
L 440.358042 157.558306 
L 439.265455 158.645237 
L 438.172867 159.913325 
L 437.08028 161.362567 
L 435.987692 162.992965 
L 434.895105 164.804519 
L 433.802517 166.797227 
L 432.70993 168.971091 
L 431.617343 171.32611 
L 430.524755 173.862285 
L 429.432168 176.579615 
L 428.33958 179.4781 
L 427.246993 182.557741 
L 426.154406 185.818537 
L 425.061818 189.260488 
" clip-path="url(#pe774d55c77)" style="fill: none; stroke: #000000; stroke-width: 1.5; stroke-linecap: square"/>
   </g>
   <g id="line2d_3">
    <path d="M 425.061818 189.260488 
L 417.621818 212.698537 
L 410.181818 234.903004 
L 402.741818 255.87389 
L 395.301818 275.611194 
L 387.861818 294.114917 
L 380.421818 311.385058 
L 372.981818 327.421617 
L 365.541818 342.224596 
L 358.101818 355.793992 
L 350.661818 368.129807 
L 343.221818 379.232041 
L 335.781818 389.100693 
L 328.341818 397.735764 
L 320.901818 405.137253 
L 313.461818 411.30516 
L 306.021818 416.239487 
L 298.581818 419.940231 
L 291.141818 422.407394 
L 283.701818 423.640976 
L 276.261818 423.640976 
L 268.821818 422.407394 
L 261.381818 419.940231 
L 253.941818 416.239487 
L 246.501818 411.30516 
L 239.061818 405.137253 
L 231.621818 397.735764 
L 224.181818 389.100693 
L 216.741818 379.232041 
L 209.301818 368.129807 
L 201.861818 355.793992 
L 194.421818 342.224596 
L 186.981818 327.421617 
L 179.541818 311.385058 
L 172.101818 294.114917 
L 164.661818 275.611194 
L 157.221818 255.87389 
L 149.781818 234.903004 
L 142.341818 212.698537 
L 134.901818 189.260488 
" clip-path="url(#pe774d55c77)" style="fill: none; stroke: #000000; stroke-width: 1.5; stroke-linecap: square"/>
   </g>
   <g id="line2d_4">
    <path d="M 134.901818 189.260488 
L 138.075524 179.262439 
L 141.249231 169.790603 
L 144.422937 160.844981 
L 147.596643 152.425571 
L 150.77035 144.532375 
L 153.944056 137.165392 
L 157.117762 130.324621 
L 160.291469 124.010064 
L 163.465175 118.22172 
L 166.638881 112.959589 
L 169.812587 108.223671 
L 172.986294 104.013967 
L 176.16 100.330475 
L 179.333706 97.173196 
L 182.507413 94.542131 
L 185.681119 92.437279 
L 188.854825 90.858639 
L 192.028531 89.806213 
L 195.202238 89.28 
L 198.375944 89.28 
L 201.54965 89.806213 
L 204.723357 90.858639 
L 207.897063 92.437279 
L 211.070769 94.542131 
L 214.244476 97.173196 
L 217.418182 100.330475 
L 220.591888 104.013967 
L 223.765594 108.223671 
L 226.939301 112.959589 
L 230.113007 118.22172 
L 233.286713 124.010064 
L 236.46042 130.324621 
L 239.634126 137.165392 
L 242.807832 144.532375 
L 245.981538 152.425571 
L 249.155245 160.844981 
L 252.328951 169.790603 
L 255.502657 179.262439 
L 258.676364 189.260488 
" clip-path="url(#pe774d55c77)" style="fill: none; stroke: #000000; stroke-width: 1.5; stroke-linecap: square"/>
   </g>
   <g id="line2d_5">
    <path d="M 258.676364 189.260488 
L 261.85007 199.258537 
L 265.023776 208.730372 
L 268.197483 217.675995 
L 271.371189 226.095404 
L 274.544895 233.988601 
L 277.718601 241.355584 
L 280.892308 248.196354 
L 284.066014 254.510911 
L 287.23972 260.299255 
L 290.413427 265.561386 
L 293.587133 270.297304 
L 296.760839 274.507009 
L 299.934545 278.190501 
L 303.108252 281.347779 
L 306.281958 283.978845 
L 309.455664 286.083697 
L 312.629371 287.662336 
L 315.803077 288.714763 
L 318.976783 289.240976 
L 322.15049 289.240976 
L 325.324196 288.714763 
L 328.497902 287.662336 
L 331.671608 286.083697 
L 334.845315 283.978845 
L 338.019021 281.347779 
L 341.192727 278.190501 
L 344.366434 274.507009 
L 347.54014 270.297304 
L 350.713846 265.561386 
L 353.887552 260.299255 
L 357.061259 254.510911 
L 360.234965 248.196354 
L 363.408671 241.355584 
L 366.582378 233.988601 
L 369.756084 226.095404 
L 372.92979 217.675995 
L 376.103497 208.730372 
L 379.277203 199.258537 
L 382.450909 189.260488 
" clip-path="url(#pe774d55c77)" style="fill: none; stroke: #000000; stroke-width: 1.5; stroke-linecap: square"/>
   </g>
   <g id="matplotlib.axis_1"/>
   <g id="matplotlib.axis_2"/>
   <g id="line2d_6">
    <path d="M 92.290909 189.260488 
L 498.109091 189.260488 
" clip-path="url(#pe774d55c77)" style="fill: none; stroke: #808080; stroke-width: 1.5; stroke-linecap: square"/>
   </g>
   <g id="patch_3">
    <path d="M 72 512.64 
L 72 69.12 
" style="fill: none; stroke: #000000; stroke-width: 0.8; stroke-linejoin: miter; stroke-linecap: square"/>
   </g>
   <g id="patch_4">
    <path d="M 518.4 512.64 
L 518.4 69.12 
" style="fill: none; stroke: #000000; stroke-width: 0.8; stroke-linejoin: miter; stroke-linecap: square"/>
   </g>
   <g id="patch_5">
    <path d="M 72 512.64 
L 518.4 512.64 
" style="fill: none; stroke: #000000; stroke-width: 0.8; stroke-linejoin: miter; stroke-linecap: square"/>
   </g>
   <g id="patch_6">
    <path d="M 72 69.12 
L 518.4 69.12 
" style="fill: none; stroke: #000000; stroke-width: 0.8; stroke-linejoin: miter; stroke-linecap: square"/>
   </g>
   <g id="PathCollection_1">
    <defs>
     <path id="mcc8f0e8f77" d="M 0 2.236068 
C 0.593012 2.236068 1.161816 2.000462 1.581139 1.581139 
C 2.000462 1.161816 2.236068 0.593012 2.236068 0 
C 2.236068 -0.593012 2.000462 -1.161816 1.581139 -1.581139 
C 1.161816 -2.000462 0.593012 -2.236068 0 -2.236068 
C -0.593012 -2.236068 -1.161816 -2.000462 -1.581139 -1.581139 
C -2.000462 -1.161816 -2.236068 -0.593012 -2.236068 0 
C -2.236068 0.593012 -2.000462 1.161816 -1.581139 1.581139 
C -1.161816 2.000462 -0.593012 2.236068 0 2.236068 
z
" style="stroke: #ff0000"/>
    </defs>
    <g clip-path="url(#pe774d55c77)">
     <use xlink:href="#mcc8f0e8f77" x="92.290909" y="189.260488" style="fill: #ff0000; stroke: #ff0000"/>
    </g>
   </g>
   <g id="PathCollection_2">
    <g clip-path="url(#pe774d55c77)">
     <use xlink:href="#mcc8f0e8f77" x="134.901818" y="189.260488" style="fill: #ff0000; stroke: #ff0000"/>
    </g>
   </g>
   <g id="PathCollection_3">
    <g clip-path="url(#pe774d55c77)">
     <use xlink:href="#mcc8f0e8f77" x="258.676364" y="189.260488" style="fill: #ff0000; stroke: #ff0000"/>
    </g>
   </g>
   <g id="PathCollection_4">
    <g clip-path="url(#pe774d55c77)">
     <use xlink:href="#mcc8f0e8f77" x="382.450909" y="189.260488" style="fill: #ff0000; stroke: #ff0000"/>
    </g>
   </g>
   <g id="PathCollection_5">
    <g clip-path="url(#pe774d55c77)">
     <use xlink:href="#mcc8f0e8f77" x="425.061818" y="189.260488" style="fill: #ff0000; stroke: #ff0000"/>
    </g>
   </g>
   <g id="PathCollection_6">
    <g clip-path="url(#pe774d55c77)">
     <use xlink:href="#mcc8f0e8f77" x="467.672727" y="189.260488" style="fill: #ff0000; stroke: #ff0000"/>
    </g>
   </g>
  </g>
 </g>
 <defs>
  <clipPath id="pe774d55c77">
   <rect x="72" y="69.12" width="446.4" height="443.52"/>
  </clipPath>
 </defs>
</svg>
