<?xml version="1.0" encoding="utf-8" standalone="no"?>
<!DOCTYPE svg PUBLIC "-//W3C//DTD SVG 1.1//EN"
  "http://www.w3.org/Graphics/SVG/1.1/DTD/svg11.dtd">
<svg xmlns:xlink="http://www.w3.org/1999/xlink" width="576pt" height="576pt" viewBox="0 0 576 576" xmlns="http://www.w3.org/2000/svg" version="1.1">
 <metadata>
  <rdf:RDF xmlns:dc="http://purl.org/dc/elements/1.1/" xmlns:cc="http://creativecommons.org/ns#" xmlns:rdf="http://www.w3.org/1999/02/22-rdf-syntax-ns#">
   <cc:Work>
    <dc:type rdf:resource="http://purl.org/dc/dcmitype/StillImage"/>
    <dc:date>2023-05-09T15:57:29.675590</dc:date>
    <dc:format>image/svg+xml</dc:format>
    <dc:creator>
     <cc:Agent>
      <dc:title>Matplotlib v3.6.3, https://matplotlib.org/</dc:title>
     </cc:Agent>
    </dc:creator>
   </cc:Work>
  </rdf:RDF>
 </metadata>
 <defs>
  <style type="text/css">*{stroke-linejoin: round; stroke-linecap: butt}</style>
 </defs>
 <g id="figure_1">
  <g id="patch_1">
   <path d="M 0 576 
L 576 576 
L 576 0 
L 0 0 
z
" style="fill: #ffffff"/>
  </g>
  <g id="axes_1">
   <g id="patch_2">
    <path d="M 72 512.64 
L 518.4 512.64 
L 518.4 69.12 
L 72 69.12 
z
" style="fill: #ffffff"/>
   </g>
   <g id="line2d_1">
    <path d="M 132.872727 225.847742 
L 135.005874 252.510968 
L 137.139021 277.770866 
L 139.272168 301.627436 
L 141.405315 324.080679 
L 143.538462 345.130594 
L 145.671608 364.777182 
L 147.804755 383.020441 
L 149.937902 399.860374 
L 152.071049 415.296978 
L 154.204196 429.330255 
L 156.337343 441.960204 
L 158.47049 453.186825 
L 160.603636 463.010119 
L 162.736783 471.430085 
L 164.86993 478.446723 
L 167.003077 484.060034 
L 169.136224 488.270017 
L 171.269371 491.076672 
L 173.402517 492.48 
L 175.535664 492.48 
L 177.668811 491.076672 
L 179.801958 488.270017 
L 181.935105 484.060034 
L 184.068252 478.446723 
L 186.201399 471.430085 
L 188.334545 463.010119 
L 190.467692 453.186825 
L 192.600839 441.960204 
L 194.733986 429.330255 
L 196.867133 415.296978 
L 199.00028 399.860374 
L 201.133427 383.020441 
L 203.266573 364.777182 
L 205.39972 345.130594 
L 207.532867 324.080679 
L 209.666014 301.627436 
L 211.799161 277.770866 
L 213.932308 252.510968 
L 216.065455 225.847742 
" clip-path="url(#p04b8c7c49e)" style="fill: none; stroke: #000000; stroke-width: 1.5; stroke-linecap: square"/>
   </g>
   <g id="line2d_2">
    <path d="M 216.065455 225.847742 
L 217.158042 212.190968 
L 218.250629 199.252971 
L 219.343217 187.033752 
L 220.435804 175.533311 
L 221.528392 164.751647 
L 222.620979 154.688761 
L 223.713566 145.344652 
L 224.806154 136.719321 
L 225.898741 128.812767 
L 226.991329 121.624992 
L 228.083916 115.155993 
L 229.176503 109.405772 
L 230.269091 104.374329 
L 231.361678 100.061664 
L 232.454266 96.467776 
L 233.546853 93.592666 
L 234.639441 91.436333 
L 235.732028 89.998778 
L 236.824615 89.28 
L 237.917203 89.28 
L 239.00979 89.998778 
L 240.102378 91.436333 
L 241.194965 93.592666 
L 242.287552 96.467776 
L 243.38014 100.061664 
L 244.472727 104.374329 
L 245.565315 109.405772 
L 246.657902 115.155993 
L 247.75049 121.624992 
L 248.843077 128.812767 
L 249.935664 136.719321 
L 251.028252 145.344652 
L 252.120839 154.688761 
L 253.213427 164.751647 
L 254.306014 175.533311 
L 255.398601 187.033752 
L 256.491189 199.252971 
L 257.583776 212.190968 
L 258.676364 225.847742 
" clip-path="url(#p04b8c7c49e)" style="fill: none; stroke: #000000; stroke-width: 1.5; stroke-linecap: square"/>
   </g>
   <g id="line2d_3">
    <path d="M 258.676364 225.847742 
L 259.768951 239.504516 
L 260.861538 252.442513 
L 261.954126 264.661732 
L 263.046713 276.162173 
L 264.139301 286.943837 
L 265.231888 297.006723 
L 266.324476 306.350832 
L 267.417063 314.976163 
L 268.50965 322.882716 
L 269.602238 330.070492 
L 270.694825 336.539491 
L 271.787413 342.289711 
L 272.88 347.321154 
L 273.972587 351.63382 
L 275.065175 355.227708 
L 276.157762 358.102818 
L 277.25035 360.259151 
L 278.342937 361.696706 
L 279.435524 362.415484 
L 280.528112 362.415484 
L 281.620699 361.696706 
L 282.713287 360.259151 
L 283.805874 358.102818 
L 284.898462 355.227708 
L 285.991049 351.63382 
L 287.083636 347.321154 
L 288.176224 342.289711 
L 289.268811 336.539491 
L 290.361399 330.070492 
L 291.453986 322.882716 
L 292.546573 314.976163 
L 293.639161 306.350832 
L 294.731748 297.006723 
L 295.824336 286.943837 
L 296.916923 276.162173 
L 298.00951 264.661732 
L 299.102098 252.442513 
L 300.194685 239.504516 
L 301.287273 225.847742 
" clip-path="url(#p04b8c7c49e)" style="fill: none; stroke: #000000; stroke-width: 1.5; stroke-linecap: square"/>
   </g>
   <g id="line2d_4">
    <path d="M 301.287273 225.847742 
L 302.37986 212.190968 
L 303.472448 199.252971 
L 304.565035 187.033752 
L 305.657622 175.533311 
L 306.75021 164.751647 
L 307.842797 154.688761 
L 308.935385 145.344652 
L 310.027972 136.719321 
L 311.120559 128.812767 
L 312.213147 121.624992 
L 313.305734 115.155993 
L 314.398322 109.405772 
L 315.490909 104.374329 
L 316.583497 100.061664 
L 317.676084 96.467776 
L 318.768671 93.592666 
L 319.861259 91.436333 
L 320.953846 89.998778 
L 322.046434 89.28 
L 323.139021 89.28 
L 324.231608 89.998778 
L 325.324196 91.436333 
L 326.416783 93.592666 
L 327.509371 96.467776 
L 328.601958 100.061664 
L 329.694545 104.374329 
L 330.787133 109.405772 
L 331.87972 115.155993 
L 332.972308 121.624992 
L 334.064895 128.812767 
L 335.157483 136.719321 
L 336.25007 145.344652 
L 337.342657 154.688761 
L 338.435245 164.751647 
L 339.527832 175.533311 
L 340.62042 187.033752 
L 341.713007 199.252971 
L 342.805594 212.190968 
L 343.898182 225.847742 
" clip-path="url(#p04b8c7c49e)" style="fill: none; stroke: #000000; stroke-width: 1.5; stroke-linecap: square"/>
   </g>
   <g id="line2d_5">
    <path d="M 343.898182 225.847742 
L 344.990769 239.504516 
L 346.083357 252.442513 
L 347.175944 264.661732 
L 348.268531 276.162173 
L 349.361119 286.943837 
L 350.453706 297.006723 
L 351.546294 306.350832 
L 352.638881 314.976163 
L 353.731469 322.882716 
L 354.824056 330.070492 
L 355.916643 336.539491 
L 357.009231 342.289711 
L 358.101818 347.321154 
L 359.194406 351.63382 
L 360.286993 355.227708 
L 361.37958 358.102818 
L 362.472168 360.259151 
L 363.564755 361.696706 
L 364.657343 362.415484 
L 365.74993 362.415484 
L 366.842517 361.696706 
L 367.935105 360.259151 
L 369.027692 358.102818 
L 370.12028 355.227708 
L 371.212867 351.63382 
L 372.305455 347.321154 
L 373.398042 342.289711 
L 374.490629 336.539491 
L 375.583217 330.070492 
L 376.675804 322.882716 
L 377.768392 314.976163 
L 378.860979 306.350832 
L 379.953566 297.006723 
L 381.046154 286.943837 
L 382.138741 276.162173 
L 383.231329 264.661732 
L 384.323916 252.442513 
L 385.416503 239.504516 
L 386.509091 225.847742 
" clip-path="url(#p04b8c7c49e)" style="fill: none; stroke: #000000; stroke-width: 1.5; stroke-linecap: square"/>
   </g>
   <g id="matplotlib.axis_1"/>
   <g id="matplotlib.axis_2"/>
   <g id="line2d_6">
    <path d="M 92.290909 225.847742 
L 498.109091 225.847742 
" clip-path="url(#p04b8c7c49e)" style="fill: none; stroke: #808080; stroke-width: 1.5; stroke-linecap: square"/>
   </g>
   <g id="patch_3">
    <path d="M 72 512.64 
L 72 69.12 
" style="fill: none; stroke: #000000; stroke-width: 0.8; stroke-linejoin: miter; stroke-linecap: square"/>
   </g>
   <g id="patch_4">
    <path d="M 518.4 512.64 
L 518.4 69.12 
" style="fill: none; stroke: #000000; stroke-width: 0.8; stroke-linejoin: miter; stroke-linecap: square"/>
   </g>
   <g id="patch_5">
    <path d="M 72 512.64 
L 518.4 512.64 
" style="fill: none; stroke: #000000; stroke-width: 0.8; stroke-linejoin: miter; stroke-linecap: square"/>
   </g>
   <g id="patch_6">
    <path d="M 72 69.12 
L 518.4 69.12 
" style="fill: none; stroke: #000000; stroke-width: 0.8; stroke-linejoin: miter; stroke-linecap: square"/>
   </g>
   <g id="PathCollection_1">
    <defs>
     <path id="m3144df6ed4" d="M 0 2.236068 
C 0.593012 2.236068 1.161816 2.000462 1.581139 1.581139 
C 2.000462 1.161816 2.236068 0.593012 2.236068 0 
C 2.236068 -0.593012 2.000462 -1.161816 1.581139 -1.581139 
C 1.161816 -2.000462 0.593012 -2.236068 0 -2.236068 
C -0.593012 -2.236068 -1.161816 -2.000462 -1.581139 -1.581139 
C -2.000462 -1.161816 -2.236068 -0.593012 -2.236068 0 
C -2.236068 0.593012 -2.000462 1.161816 -1.581139 1.581139 
C -1.161816 2.000462 -0.593012 2.236068 0 2.236068 
z
" style="stroke: #ff0000"/>
    </defs>
    <g clip-path="url(#p04b8c7c49e)">
     <use xlink:href="#m3144df6ed4" x="132.872727" y="225.847742" style="fill: #ff0000; stroke: #ff0000"/>
    </g>
   </g>
   <g id="PathCollection_2">
    <g clip-path="url(#p04b8c7c49e)">
     <use xlink:href="#m3144df6ed4" x="216.065455" y="225.847742" style="fill: #ff0000; stroke: #ff0000"/>
    </g>
   </g>
   <g id="PathCollection_3">
    <g clip-path="url(#p04b8c7c49e)">
     <use xlink:href="#m3144df6ed4" x="258.676364" y="225.847742" style="fill: #ff0000; stroke: #ff0000"/>
    </g>
   </g>
   <g id="PathCollection_4">
    <g clip-path="url(#p04b8c7c49e)">
     <use xlink:href="#m3144df6ed4" x="301.287273" y="225.847742" style="fill: #ff0000; stroke: #ff0000"/>
    </g>
   </g>
   <g id="PathCollection_5">
    <g clip-path="url(#p04b8c7c49e)">
     <use xlink:href="#m3144df6ed4" x="343.898182" y="225.847742" style="fill: #ff0000; stroke: #ff0000"/>
    </g>
   </g>
   <g id="PathCollection_6">
    <g clip-path="url(#p04b8c7c49e)">
     <use xlink:href="#m3144df6ed4" x="386.509091" y="225.847742" style="fill: #ff0000; stroke: #ff0000"/>
    </g>
   </g>
  </g>
 </g>
 <defs>
  <clipPath id="p04b8c7c49e">
   <rect x="72" y="69.12" width="446.4" height="443.52"/>
  </clipPath>
 </defs>
</svg>
