<?xml version="1.0" encoding="utf-8" standalone="no"?>
<!DOCTYPE svg PUBLIC "-//W3C//DTD SVG 1.1//EN"
  "http://www.w3.org/Graphics/SVG/1.1/DTD/svg11.dtd">
<svg xmlns:xlink="http://www.w3.org/1999/xlink" width="576pt" height="576pt" viewBox="0 0 576 576" xmlns="http://www.w3.org/2000/svg" version="1.1">
 <metadata>
  <rdf:RDF xmlns:dc="http://purl.org/dc/elements/1.1/" xmlns:cc="http://creativecommons.org/ns#" xmlns:rdf="http://www.w3.org/1999/02/22-rdf-syntax-ns#">
   <cc:Work>
    <dc:type rdf:resource="http://purl.org/dc/dcmitype/StillImage"/>
    <dc:date>2023-05-19T11:31:22.169728</dc:date>
    <dc:format>image/svg+xml</dc:format>
    <dc:creator>
     <cc:Agent>
      <dc:title>Matplotlib v3.7.1, https://matplotlib.org/</dc:title>
     </cc:Agent>
    </dc:creator>
   </cc:Work>
  </rdf:RDF>
 </metadata>
 <defs>
  <style type="text/css">*{stroke-linejoin: round; stroke-linecap: butt}</style>
 </defs>
 <g id="figure_1">
  <g id="patch_1">
   <path d="M 0 576 
L 576 576 
L 576 0 
L 0 0 
z
" style="fill: #ffffff"/>
  </g>
  <g id="axes_1">
   <g id="patch_2">
    <path d="M 72 512.64 
L 518.4 512.64 
L 518.4 69.12 
L 72 69.12 
z
" style="fill: #ffffff"/>
   </g>
   <g id="line2d_1">
    <path d="M 92.290909 381.069474 
L 95.568671 392.210526 
L 98.846434 402.765208 
L 102.124196 412.733518 
L 105.401958 422.115457 
L 108.67972 430.911025 
L 111.957483 439.120222 
L 115.235245 446.743047 
L 118.513007 453.779501 
L 121.790769 460.229584 
L 125.068531 466.093296 
L 128.346294 471.370637 
L 131.624056 476.061607 
L 134.901818 480.166205 
L 138.17958 483.684432 
L 141.457343 486.616288 
L 144.735105 488.961773 
L 148.012867 490.720886 
L 151.290629 491.893629 
L 154.568392 492.48 
L 157.846154 492.48 
L 161.123916 491.893629 
L 164.401678 490.720886 
L 167.679441 488.961773 
L 170.957203 486.616288 
L 174.234965 483.684432 
L 177.512727 480.166205 
L 180.79049 476.061607 
L 184.068252 471.370637 
L 187.346014 466.093296 
L 190.623776 460.229584 
L 193.901538 453.779501 
L 197.179301 446.743047 
L 200.457063 439.120222 
L 203.734825 430.911025 
L 207.012587 422.115457 
L 210.29035 412.733518 
L 213.568112 402.765208 
L 216.845874 392.210526 
L 220.123636 381.069474 
" clip-path="url(#pbe5dd5a760)" style="fill: none; stroke: #000000; stroke-width: 1.5; stroke-linecap: square"/>
   </g>
   <g id="line2d_2">
    <path d="M 220.123636 381.069474 
L 219.031049 377.355789 
L 217.938462 373.837562 
L 216.845874 370.514792 
L 215.753287 367.387479 
L 214.660699 364.455623 
L 213.568112 361.719224 
L 212.475524 359.178283 
L 211.382937 356.832798 
L 210.29035 354.68277 
L 209.197762 352.728199 
L 208.105175 350.969086 
L 207.012587 349.405429 
L 205.92 348.03723 
L 204.827413 346.864488 
L 203.734825 345.887202 
L 202.642238 345.105374 
L 201.54965 344.519003 
L 200.457063 344.128089 
L 199.364476 343.932632 
L 198.271888 343.932632 
L 197.179301 344.128089 
L 196.086713 344.519003 
L 194.994126 345.105374 
L 193.901538 345.887202 
L 192.808951 346.864488 
L 191.716364 348.03723 
L 190.623776 349.405429 
L 189.531189 350.969086 
L 188.438601 352.728199 
L 187.346014 354.68277 
L 186.253427 356.832798 
L 185.160839 359.178283 
L 184.068252 361.719224 
L 182.975664 364.455623 
L 181.883077 367.387479 
L 180.79049 370.514792 
L 179.697902 373.837562 
L 178.605315 377.355789 
L 177.512727 381.069474 
" clip-path="url(#pbe5dd5a760)" style="fill: none; stroke: #000000; stroke-width: 1.5; stroke-linecap: square"/>
   </g>
   <g id="line2d_3">
    <path d="M 177.512727 381.069474 
L 176.42014 384.783158 
L 175.327552 388.301385 
L 174.234965 391.624155 
L 173.142378 394.751468 
L 172.04979 397.683324 
L 170.957203 400.419723 
L 169.864615 402.960665 
L 168.772028 405.30615 
L 167.679441 407.456177 
L 166.586853 409.410748 
L 165.494266 411.169861 
L 164.401678 412.733518 
L 163.309091 414.101717 
L 162.216503 415.27446 
L 161.123916 416.251745 
L 160.031329 417.033573 
L 158.938741 417.619945 
L 157.846154 418.010859 
L 156.753566 418.206316 
L 155.660979 418.206316 
L 154.568392 418.010859 
L 153.475804 417.619945 
L 152.383217 417.033573 
L 151.290629 416.251745 
L 150.198042 415.27446 
L 149.105455 414.101717 
L 148.012867 412.733518 
L 146.92028 411.169861 
L 145.827692 409.410748 
L 144.735105 407.456177 
L 143.642517 405.30615 
L 142.54993 402.960665 
L 141.457343 400.419723 
L 140.364755 397.683324 
L 139.272168 394.751468 
L 138.17958 391.624155 
L 137.086993 388.301385 
L 135.994406 384.783158 
L 134.901818 381.069474 
" clip-path="url(#pbe5dd5a760)" style="fill: none; stroke: #000000; stroke-width: 1.5; stroke-linecap: square"/>
   </g>
   <g id="line2d_4">
    <path d="M 134.901818 381.069474 
L 143.486434 351.890526 
L 152.071049 324.247313 
L 160.655664 298.139834 
L 169.24028 273.568089 
L 177.824895 250.532078 
L 186.40951 229.031801 
L 194.994126 209.067258 
L 203.578741 190.638449 
L 212.163357 173.745374 
L 220.747972 158.388033 
L 229.332587 144.566427 
L 237.917203 132.280554 
L 246.501818 121.530416 
L 255.086434 112.316011 
L 263.671049 104.637341 
L 272.255664 98.494404 
L 280.84028 93.887202 
L 289.424895 90.815734 
L 298.00951 89.28 
L 306.594126 89.28 
L 315.178741 90.815734 
L 323.763357 93.887202 
L 332.347972 98.494404 
L 340.932587 104.637341 
L 349.517203 112.316011 
L 358.101818 121.530416 
L 366.686434 132.280554 
L 375.271049 144.566427 
L 383.855664 158.388033 
L 392.44028 173.745374 
L 401.024895 190.638449 
L 409.60951 209.067258 
L 418.194126 229.031801 
L 426.778741 250.532078 
L 435.363357 273.568089 
L 443.947972 298.139834 
L 452.532587 324.247313 
L 461.117203 351.890526 
L 469.701818 381.069474 
" clip-path="url(#pbe5dd5a760)" style="fill: none; stroke: #000000; stroke-width: 1.5; stroke-linecap: square"/>
   </g>
   <g id="line2d_5">
    <path d="M 469.701818 381.069474 
L 466.528112 391.856842 
L 463.354406 402.076454 
L 460.180699 411.72831 
L 457.006993 420.81241 
L 453.833287 429.328753 
L 450.65958 437.277341 
L 447.485874 444.658172 
L 444.312168 451.471247 
L 441.138462 457.716565 
L 437.964755 463.394127 
L 434.791049 468.503934 
L 431.617343 473.045983 
L 428.443636 477.020277 
L 425.26993 480.426814 
L 422.096224 483.265596 
L 418.922517 485.53662 
L 415.748811 487.239889 
L 412.575105 488.375402 
L 409.401399 488.943158 
L 406.227692 488.943158 
L 403.053986 488.375402 
L 399.88028 487.239889 
L 396.706573 485.53662 
L 393.532867 483.265596 
L 390.359161 480.426814 
L 387.185455 477.020277 
L 384.011748 473.045983 
L 380.838042 468.503934 
L 377.664336 463.394127 
L 374.490629 457.716565 
L 371.316923 451.471247 
L 368.143217 444.658172 
L 364.96951 437.277341 
L 361.795804 429.328753 
L 358.622098 420.81241 
L 355.448392 411.72831 
L 352.274685 402.076454 
L 349.100979 391.856842 
L 345.927273 381.069474 
" clip-path="url(#pbe5dd5a760)" style="fill: none; stroke: #000000; stroke-width: 1.5; stroke-linecap: square"/>
   </g>
   <g id="line2d_6">
    <path d="M 345.927273 381.069474 
L 343.794126 373.818947 
L 341.660979 366.950028 
L 339.527832 360.462715 
L 337.394685 354.357008 
L 335.261538 348.632909 
L 333.128392 343.290416 
L 330.995245 338.329529 
L 328.862098 333.750249 
L 326.728951 329.552576 
L 324.595804 325.73651 
L 322.462657 322.30205 
L 320.32951 319.249197 
L 318.196364 316.57795 
L 316.063217 314.28831 
L 313.93007 312.380277 
L 311.796923 310.85385 
L 309.663776 309.70903 
L 307.530629 308.945817 
L 305.397483 308.564211 
L 303.264336 308.564211 
L 301.131189 308.945817 
L 298.998042 309.70903 
L 296.864895 310.85385 
L 294.731748 312.380277 
L 292.598601 314.28831 
L 290.465455 316.57795 
L 288.332308 319.249197 
L 286.199161 322.30205 
L 284.066014 325.73651 
L 281.932867 329.552576 
L 279.79972 333.750249 
L 277.666573 338.329529 
L 275.533427 343.290416 
L 273.40028 348.632909 
L 271.267133 354.357008 
L 269.133986 360.462715 
L 267.000839 366.950028 
L 264.867692 373.818947 
L 262.734545 381.069474 
" clip-path="url(#pbe5dd5a760)" style="fill: none; stroke: #000000; stroke-width: 1.5; stroke-linecap: square"/>
   </g>
   <g id="matplotlib.axis_1"/>
   <g id="matplotlib.axis_2"/>
   <g id="line2d_7">
    <path d="M 92.290909 381.069474 
L 498.109091 381.069474 
" clip-path="url(#pbe5dd5a760)" style="fill: none; stroke: #808080; stroke-width: 1.5; stroke-linecap: square"/>
   </g>
   <g id="patch_3">
    <path d="M 72 512.64 
L 72 69.12 
" style="fill: none; stroke: #000000; stroke-width: 0.8; stroke-linejoin: miter; stroke-linecap: square"/>
   </g>
   <g id="patch_4">
    <path d="M 518.4 512.64 
L 518.4 69.12 
" style="fill: none; stroke: #000000; stroke-width: 0.8; stroke-linejoin: miter; stroke-linecap: square"/>
   </g>
   <g id="patch_5">
    <path d="M 72 512.64 
L 518.4 512.64 
" style="fill: none; stroke: #000000; stroke-width: 0.8; stroke-linejoin: miter; stroke-linecap: square"/>
   </g>
   <g id="patch_6">
    <path d="M 72 69.12 
L 518.4 69.12 
" style="fill: none; stroke: #000000; stroke-width: 0.8; stroke-linejoin: miter; stroke-linecap: square"/>
   </g>
   <g id="PathCollection_1">
    <defs>
     <path id="me206debb4a" d="M 0 2.236068 
C 0.593012 2.236068 1.161816 2.000462 1.581139 1.581139 
C 2.000462 1.161816 2.236068 0.593012 2.236068 0 
C 2.236068 -0.593012 2.000462 -1.161816 1.581139 -1.581139 
C 1.161816 -2.000462 0.593012 -2.236068 0 -2.236068 
C -0.593012 -2.236068 -1.161816 -2.000462 -1.581139 -1.581139 
C -2.000462 -1.161816 -2.236068 -0.593012 -2.236068 0 
C -2.236068 0.593012 -2.000462 1.161816 -1.581139 1.581139 
C -1.161816 2.000462 -0.593012 2.236068 0 2.236068 
z
" style="stroke: #ff0000"/>
    </defs>
    <g clip-path="url(#pbe5dd5a760)">
     <use xlink:href="#me206debb4a" x="92.290909" y="381.069474" style="fill: #ff0000; stroke: #ff0000"/>
    </g>
   </g>
   <g id="PathCollection_2">
    <g clip-path="url(#pbe5dd5a760)">
     <use xlink:href="#me206debb4a" x="134.901818" y="381.069474" style="fill: #ff0000; stroke: #ff0000"/>
    </g>
   </g>
   <g id="PathCollection_3">
    <g clip-path="url(#pbe5dd5a760)">
     <use xlink:href="#me206debb4a" x="177.512727" y="381.069474" style="fill: #ff0000; stroke: #ff0000"/>
    </g>
   </g>
   <g id="PathCollection_4">
    <g clip-path="url(#pbe5dd5a760)">
     <use xlink:href="#me206debb4a" x="220.123636" y="381.069474" style="fill: #ff0000; stroke: #ff0000"/>
    </g>
   </g>
   <g id="PathCollection_5">
    <g clip-path="url(#pbe5dd5a760)">
     <use xlink:href="#me206debb4a" x="262.734545" y="381.069474" style="fill: #ff0000; stroke: #ff0000"/>
    </g>
   </g>
   <g id="PathCollection_6">
    <g clip-path="url(#pbe5dd5a760)">
     <use xlink:href="#me206debb4a" x="345.927273" y="381.069474" style="fill: #ff0000; stroke: #ff0000"/>
    </g>
   </g>
   <g id="PathCollection_7">
    <g clip-path="url(#pbe5dd5a760)">
     <use xlink:href="#me206debb4a" x="469.701818" y="381.069474" style="fill: #ff0000; stroke: #ff0000"/>
    </g>
   </g>
  </g>
 </g>
 <defs>
  <clipPath id="pbe5dd5a760">
   <rect x="72" y="69.12" width="446.4" height="443.52"/>
  </clipPath>
 </defs>
</svg>
