<?xml version="1.0" encoding="utf-8" standalone="no"?>
<!DOCTYPE svg PUBLIC "-//W3C//DTD SVG 1.1//EN"
  "http://www.w3.org/Graphics/SVG/1.1/DTD/svg11.dtd">
<svg xmlns:xlink="http://www.w3.org/1999/xlink" width="576pt" height="576pt" viewBox="0 0 576 576" xmlns="http://www.w3.org/2000/svg" version="1.1">
 <metadata>
  <rdf:RDF xmlns:dc="http://purl.org/dc/elements/1.1/" xmlns:cc="http://creativecommons.org/ns#" xmlns:rdf="http://www.w3.org/1999/02/22-rdf-syntax-ns#">
   <cc:Work>
    <dc:type rdf:resource="http://purl.org/dc/dcmitype/StillImage"/>
    <dc:date>2023-04-12T11:21:52.528641</dc:date>
    <dc:format>image/svg+xml</dc:format>
    <dc:creator>
     <cc:Agent>
      <dc:title>Matplotlib v3.6.3, https://matplotlib.org/</dc:title>
     </cc:Agent>
    </dc:creator>
   </cc:Work>
  </rdf:RDF>
 </metadata>
 <defs>
  <style type="text/css">*{stroke-linejoin: round; stroke-linecap: butt}</style>
 </defs>
 <g id="figure_1">
  <g id="patch_1">
   <path d="M 0 576 
L 576 576 
L 576 0 
L 0 0 
z
" style="fill: #ffffff"/>
  </g>
  <g id="axes_1">
   <g id="patch_2">
    <path d="M 72 512.64 
L 518.4 512.64 
L 518.4 69.12 
L 72 69.12 
z
" style="fill: #ffffff"/>
   </g>
   <g id="line2d_1">
    <path d="M 132.872727 269.202581 
L 138.231608 291.530323 
L 143.59049 312.68292 
L 148.949371 332.660374 
L 154.308252 351.462683 
L 159.667133 369.089847 
L 165.026014 385.541868 
L 170.384895 400.818744 
L 175.743776 414.920475 
L 181.102657 427.847063 
L 186.461538 439.598506 
L 191.82042 450.174805 
L 197.179301 459.575959 
L 202.538182 467.801969 
L 207.897063 474.852835 
L 213.255944 480.728557 
L 218.614825 485.429134 
L 223.973706 488.954567 
L 229.332587 491.304856 
L 234.691469 492.48 
L 240.05035 492.48 
L 245.409231 491.304856 
L 250.768112 488.954567 
L 256.126993 485.429134 
L 261.485874 480.728557 
L 266.844755 474.852835 
L 272.203636 467.801969 
L 277.562517 459.575959 
L 282.921399 450.174805 
L 288.28028 439.598506 
L 293.639161 427.847063 
L 298.998042 414.920475 
L 304.356923 400.818744 
L 309.715804 385.541868 
L 315.074685 369.089847 
L 320.433566 351.462683 
L 325.792448 332.660374 
L 331.151329 312.68292 
L 336.51021 291.530323 
L 341.869091 269.202581 
" clip-path="url(#p55a6f52db8)" style="fill: none; stroke: #000000; stroke-width: 1.5; stroke-linecap: square"/>
   </g>
   <g id="line2d_2">
    <path d="M 341.869091 269.202581 
L 344.002238 260.314839 
L 346.135385 251.894873 
L 348.268531 243.942683 
L 350.401678 236.458268 
L 352.534825 229.44163 
L 354.667972 222.892767 
L 356.801119 216.811681 
L 358.934266 211.19837 
L 361.067413 206.052835 
L 363.200559 201.375076 
L 365.333706 197.165093 
L 367.466853 193.422886 
L 369.6 190.148455 
L 371.733147 187.3418 
L 373.866294 185.00292 
L 375.999441 183.131817 
L 378.132587 181.728489 
L 380.265734 180.792937 
L 382.398881 180.325161 
L 384.532028 180.325161 
L 386.665175 180.792937 
L 388.798322 181.728489 
L 390.931469 183.131817 
L 393.064615 185.00292 
L 395.197762 187.3418 
L 397.330909 190.148455 
L 399.464056 193.422886 
L 401.597203 197.165093 
L 403.73035 201.375076 
L 405.863497 206.052835 
L 407.996643 211.19837 
L 410.12979 216.811681 
L 412.262937 222.892767 
L 414.396084 229.44163 
L 416.529231 236.458268 
L 418.662378 243.942683 
L 420.795524 251.894873 
L 422.928671 260.314839 
L 425.061818 269.202581 
" clip-path="url(#p55a6f52db8)" style="fill: none; stroke: #000000; stroke-width: 1.5; stroke-linecap: square"/>
   </g>
   <g id="line2d_3">
    <path d="M 425.061818 269.202581 
L 426.154406 273.754839 
L 427.246993 278.067504 
L 428.33958 282.140577 
L 429.432168 285.974058 
L 430.524755 289.567946 
L 431.617343 292.922241 
L 432.70993 296.036944 
L 433.802517 298.912054 
L 434.895105 301.547572 
L 435.987692 303.943497 
L 437.08028 306.09983 
L 438.172867 308.01657 
L 439.265455 309.693718 
L 440.358042 311.131273 
L 441.450629 312.329236 
L 442.543217 313.287606 
L 443.635804 314.006384 
L 444.728392 314.485569 
L 445.820979 314.725161 
L 446.913566 314.725161 
L 448.006154 314.485569 
L 449.098741 314.006384 
L 450.191329 313.287606 
L 451.283916 312.329236 
L 452.376503 311.131273 
L 453.469091 309.693718 
L 454.561678 308.01657 
L 455.654266 306.09983 
L 456.746853 303.943497 
L 457.839441 301.547572 
L 458.932028 298.912054 
L 460.024615 296.036944 
L 461.117203 292.922241 
L 462.20979 289.567946 
L 463.302378 285.974058 
L 464.394965 282.140577 
L 465.487552 278.067504 
L 466.58014 273.754839 
L 467.672727 269.202581 
" clip-path="url(#p55a6f52db8)" style="fill: none; stroke: #000000; stroke-width: 1.5; stroke-linecap: square"/>
   </g>
   <g id="line2d_4">
    <path d="M 467.672727 269.202581 
L 463.354406 251.210323 
L 459.036084 234.165025 
L 454.717762 218.066689 
L 450.399441 202.915314 
L 446.081119 188.7109 
L 441.762797 175.453447 
L 437.444476 163.142954 
L 433.126154 151.779423 
L 428.807832 141.362852 
L 424.48951 131.893243 
L 420.171189 123.370594 
L 415.852867 115.794907 
L 411.534545 109.16618 
L 407.216224 103.484414 
L 402.897902 98.74961 
L 398.57958 94.961766 
L 394.261259 92.120883 
L 389.942937 90.226961 
L 385.624615 89.28 
L 381.306294 89.28 
L 376.987972 90.226961 
L 372.66965 92.120883 
L 368.351329 94.961766 
L 364.033007 98.74961 
L 359.714685 103.484414 
L 355.396364 109.16618 
L 351.078042 115.794907 
L 346.75972 123.370594 
L 342.441399 131.893243 
L 338.123077 141.362852 
L 333.804755 151.779423 
L 329.486434 163.142954 
L 325.168112 175.453447 
L 320.84979 188.7109 
L 316.531469 202.915314 
L 312.213147 218.066689 
L 307.894825 234.165025 
L 303.576503 251.210323 
L 299.258182 269.202581 
" clip-path="url(#p55a6f52db8)" style="fill: none; stroke: #000000; stroke-width: 1.5; stroke-linecap: square"/>
   </g>
   <g id="line2d_5">
    <path d="M 299.258182 269.202581 
L 298.165594 273.754839 
L 297.073007 278.067504 
L 295.98042 282.140577 
L 294.887832 285.974058 
L 293.795245 289.567946 
L 292.702657 292.922241 
L 291.61007 296.036944 
L 290.517483 298.912054 
L 289.424895 301.547572 
L 288.332308 303.943497 
L 287.23972 306.09983 
L 286.147133 308.01657 
L 285.054545 309.693718 
L 283.961958 311.131273 
L 282.869371 312.329236 
L 281.776783 313.287606 
L 280.684196 314.006384 
L 279.591608 314.485569 
L 278.499021 314.725161 
L 277.406434 314.725161 
L 276.313846 314.485569 
L 275.221259 314.006384 
L 274.128671 313.287606 
L 273.036084 312.329236 
L 271.943497 311.131273 
L 270.850909 309.693718 
L 269.758322 308.01657 
L 268.665734 306.09983 
L 267.573147 303.943497 
L 266.480559 301.547572 
L 265.387972 298.912054 
L 264.295385 296.036944 
L 263.202797 292.922241 
L 262.11021 289.567946 
L 261.017622 285.974058 
L 259.925035 282.140577 
L 258.832448 278.067504 
L 257.73986 273.754839 
L 256.647273 269.202581 
" clip-path="url(#p55a6f52db8)" style="fill: none; stroke: #000000; stroke-width: 1.5; stroke-linecap: square"/>
   </g>
   <g id="matplotlib.axis_1"/>
   <g id="matplotlib.axis_2"/>
   <g id="line2d_6">
    <path d="M 92.290909 269.202581 
L 498.109091 269.202581 
" clip-path="url(#p55a6f52db8)" style="fill: none; stroke: #808080; stroke-width: 1.5; stroke-linecap: square"/>
   </g>
   <g id="patch_3">
    <path d="M 72 512.64 
L 72 69.12 
" style="fill: none; stroke: #000000; stroke-width: 0.8; stroke-linejoin: miter; stroke-linecap: square"/>
   </g>
   <g id="patch_4">
    <path d="M 518.4 512.64 
L 518.4 69.12 
" style="fill: none; stroke: #000000; stroke-width: 0.8; stroke-linejoin: miter; stroke-linecap: square"/>
   </g>
   <g id="patch_5">
    <path d="M 72 512.64 
L 518.4 512.64 
" style="fill: none; stroke: #000000; stroke-width: 0.8; stroke-linejoin: miter; stroke-linecap: square"/>
   </g>
   <g id="patch_6">
    <path d="M 72 69.12 
L 518.4 69.12 
" style="fill: none; stroke: #000000; stroke-width: 0.8; stroke-linejoin: miter; stroke-linecap: square"/>
   </g>
   <g id="PathCollection_1">
    <defs>
     <path id="m4d84babeb2" d="M 0 2.236068 
C 0.593012 2.236068 1.161816 2.000462 1.581139 1.581139 
C 2.000462 1.161816 2.236068 0.593012 2.236068 0 
C 2.236068 -0.593012 2.000462 -1.161816 1.581139 -1.581139 
C 1.161816 -2.000462 0.593012 -2.236068 0 -2.236068 
C -0.593012 -2.236068 -1.161816 -2.000462 -1.581139 -1.581139 
C -2.000462 -1.161816 -2.236068 -0.593012 -2.236068 0 
C -2.236068 0.593012 -2.000462 1.161816 -1.581139 1.581139 
C -1.161816 2.000462 -0.593012 2.236068 0 2.236068 
z
" style="stroke: #ff0000"/>
    </defs>
    <g clip-path="url(#p55a6f52db8)">
     <use xlink:href="#m4d84babeb2" x="132.872727" y="269.202581" style="fill: #ff0000; stroke: #ff0000"/>
    </g>
   </g>
   <g id="PathCollection_2">
    <g clip-path="url(#p55a6f52db8)">
     <use xlink:href="#m4d84babeb2" x="256.647273" y="269.202581" style="fill: #ff0000; stroke: #ff0000"/>
    </g>
   </g>
   <g id="PathCollection_3">
    <g clip-path="url(#p55a6f52db8)">
     <use xlink:href="#m4d84babeb2" x="299.258182" y="269.202581" style="fill: #ff0000; stroke: #ff0000"/>
    </g>
   </g>
   <g id="PathCollection_4">
    <g clip-path="url(#p55a6f52db8)">
     <use xlink:href="#m4d84babeb2" x="341.869091" y="269.202581" style="fill: #ff0000; stroke: #ff0000"/>
    </g>
   </g>
   <g id="PathCollection_5">
    <g clip-path="url(#p55a6f52db8)">
     <use xlink:href="#m4d84babeb2" x="425.061818" y="269.202581" style="fill: #ff0000; stroke: #ff0000"/>
    </g>
   </g>
   <g id="PathCollection_6">
    <g clip-path="url(#p55a6f52db8)">
     <use xlink:href="#m4d84babeb2" x="467.672727" y="269.202581" style="fill: #ff0000; stroke: #ff0000"/>
    </g>
   </g>
  </g>
 </g>
 <defs>
  <clipPath id="p55a6f52db8">
   <rect x="72" y="69.12" width="446.4" height="443.52"/>
  </clipPath>
 </defs>
</svg>
