<?xml version="1.0" encoding="utf-8" standalone="no"?>
<!DOCTYPE svg PUBLIC "-//W3C//DTD SVG 1.1//EN"
  "http://www.w3.org/Graphics/SVG/1.1/DTD/svg11.dtd">
<svg xmlns:xlink="http://www.w3.org/1999/xlink" width="576pt" height="576pt" viewBox="0 0 576 576" xmlns="http://www.w3.org/2000/svg" version="1.1">
 <metadata>
  <rdf:RDF xmlns:dc="http://purl.org/dc/elements/1.1/" xmlns:cc="http://creativecommons.org/ns#" xmlns:rdf="http://www.w3.org/1999/02/22-rdf-syntax-ns#">
   <cc:Work>
    <dc:type rdf:resource="http://purl.org/dc/dcmitype/StillImage"/>
    <dc:date>2023-04-04T14:46:29.015118</dc:date>
    <dc:format>image/svg+xml</dc:format>
    <dc:creator>
     <cc:Agent>
      <dc:title>Matplotlib v3.6.3, https://matplotlib.org/</dc:title>
     </cc:Agent>
    </dc:creator>
   </cc:Work>
  </rdf:RDF>
 </metadata>
 <defs>
  <style type="text/css">*{stroke-linejoin: round; stroke-linecap: butt}</style>
 </defs>
 <g id="figure_1">
  <g id="patch_1">
   <path d="M 0 576 
L 576 576 
L 576 0 
L 0 0 
z
" style="fill: #ffffff"/>
  </g>
  <g id="axes_1">
   <g id="patch_2">
    <path d="M 72 512.64 
L 518.4 512.64 
L 518.4 69.12 
L 72 69.12 
z
" style="fill: #ffffff"/>
   </g>
   <g id="line2d_1">
    <path d="M 92.290909 290.88 
L 96.609231 311.04 
L 100.927552 330.138947 
L 105.245874 348.176842 
L 109.564196 365.153684 
L 113.882517 381.069474 
L 118.200839 395.924211 
L 122.519161 409.717895 
L 126.837483 422.450526 
L 131.155804 434.122105 
L 135.474126 444.732632 
L 139.792448 454.282105 
L 144.110769 462.770526 
L 148.429091 470.197895 
L 152.747413 476.564211 
L 157.065734 481.869474 
L 161.384056 486.113684 
L 165.702378 489.296842 
L 170.020699 491.418947 
L 174.339021 492.48 
L 178.657343 492.48 
L 182.975664 491.418947 
L 187.293986 489.296842 
L 191.612308 486.113684 
L 195.930629 481.869474 
L 200.248951 476.564211 
L 204.567273 470.197895 
L 208.885594 462.770526 
L 213.203916 454.282105 
L 217.522238 444.732632 
L 221.840559 434.122105 
L 226.158881 422.450526 
L 230.477203 409.717895 
L 234.795524 395.924211 
L 239.113846 381.069474 
L 243.432168 365.153684 
L 247.75049 348.176842 
L 252.068811 330.138947 
L 256.387133 311.04 
L 260.705455 290.88 
" clip-path="url(#pb566eb7ba8)" style="fill: none; stroke: #000000; stroke-width: 1.5; stroke-linecap: square"/>
   </g>
   <g id="line2d_2">
    <path d="M 260.705455 290.88 
L 261.798042 285.779277 
L 262.890629 280.947013 
L 263.983217 276.383209 
L 265.075804 272.087863 
L 266.168392 268.060977 
L 267.260979 264.302549 
L 268.353566 260.812581 
L 269.446154 257.591072 
L 270.538741 254.638022 
L 271.631329 251.953431 
L 272.723916 249.537299 
L 273.816503 247.389626 
L 274.909091 245.510412 
L 276.001678 243.899658 
L 277.094266 242.557362 
L 278.186853 241.483526 
L 279.279441 240.678148 
L 280.372028 240.14123 
L 281.464615 239.872771 
L 282.557203 239.872771 
L 283.64979 240.14123 
L 284.742378 240.678148 
L 285.834965 241.483526 
L 286.927552 242.557362 
L 288.02014 243.899658 
L 289.112727 245.510412 
L 290.205315 247.389626 
L 291.297902 249.537299 
L 292.39049 251.953431 
L 293.483077 254.638022 
L 294.575664 257.591072 
L 295.668252 260.812581 
L 296.760839 264.302549 
L 297.853427 268.060977 
L 298.946014 272.087863 
L 300.038601 276.383209 
L 301.131189 280.947013 
L 302.223776 285.779277 
L 303.316364 290.88 
" clip-path="url(#pb566eb7ba8)" style="fill: none; stroke: #000000; stroke-width: 1.5; stroke-linecap: square"/>
   </g>
   <g id="line2d_3">
    <path d="M 303.316364 290.88 
L 306.594126 306.182169 
L 309.871888 320.67896 
L 313.14965 334.370374 
L 316.427413 347.256411 
L 319.705175 359.33707 
L 322.982937 370.612353 
L 326.260699 381.082257 
L 329.538462 390.746785 
L 332.816224 399.605935 
L 336.093986 407.659708 
L 339.371748 414.908104 
L 342.64951 421.351122 
L 345.927273 426.988763 
L 349.205035 431.821027 
L 352.482797 435.847914 
L 355.760559 439.069423 
L 359.038322 441.485555 
L 362.316084 443.096309 
L 365.593846 443.901687 
L 368.871608 443.901687 
L 372.149371 443.096309 
L 375.427133 441.485555 
L 378.704895 439.069423 
L 381.982657 435.847914 
L 385.26042 431.821027 
L 388.538182 426.988763 
L 391.815944 421.351122 
L 395.093706 414.908104 
L 398.371469 407.659708 
L 401.649231 399.605935 
L 404.926993 390.746785 
L 408.204755 381.082257 
L 411.482517 370.612353 
L 414.76028 359.33707 
L 418.038042 347.256411 
L 421.315804 334.370374 
L 424.593566 320.67896 
L 427.871329 306.182169 
L 431.149091 290.88 
" clip-path="url(#pb566eb7ba8)" style="fill: none; stroke: #000000; stroke-width: 1.5; stroke-linecap: square"/>
   </g>
   <g id="line2d_4">
    <path d="M 431.149091 290.88 
L 430.056503 285.779277 
L 428.963916 280.947013 
L 427.871329 276.383209 
L 426.778741 272.087863 
L 425.686154 268.060977 
L 424.593566 264.302549 
L 423.500979 260.812581 
L 422.408392 257.591072 
L 421.315804 254.638022 
L 420.223217 251.953431 
L 419.130629 249.537299 
L 418.038042 247.389626 
L 416.945455 245.510412 
L 415.852867 243.899658 
L 414.76028 242.557362 
L 413.667692 241.483526 
L 412.575105 240.678148 
L 411.482517 240.14123 
L 410.38993 239.872771 
L 409.297343 239.872771 
L 408.204755 240.14123 
L 407.112168 240.678148 
L 406.01958 241.483526 
L 404.926993 242.557362 
L 403.834406 243.899658 
L 402.741818 245.510412 
L 401.649231 247.389626 
L 400.556643 249.537299 
L 399.464056 251.953431 
L 398.371469 254.638022 
L 397.278881 257.591072 
L 396.186294 260.812581 
L 395.093706 264.302549 
L 394.001119 268.060977 
L 392.908531 272.087863 
L 391.815944 276.383209 
L 390.723357 280.947013 
L 389.630769 285.779277 
L 388.538182 290.88 
" clip-path="url(#pb566eb7ba8)" style="fill: none; stroke: #000000; stroke-width: 1.5; stroke-linecap: square"/>
   </g>
   <g id="line2d_5">
    <path d="M 388.538182 290.88 
L 387.445594 295.980723 
L 386.353007 300.812987 
L 385.26042 305.376791 
L 384.167832 309.672137 
L 383.075245 313.699023 
L 381.982657 317.457451 
L 380.89007 320.947419 
L 379.797483 324.168928 
L 378.704895 327.121978 
L 377.612308 329.806569 
L 376.51972 332.222701 
L 375.427133 334.370374 
L 374.334545 336.249588 
L 373.241958 337.860342 
L 372.149371 339.202638 
L 371.056783 340.276474 
L 369.964196 341.081852 
L 368.871608 341.61877 
L 367.779021 341.887229 
L 366.686434 341.887229 
L 365.593846 341.61877 
L 364.501259 341.081852 
L 363.408671 340.276474 
L 362.316084 339.202638 
L 361.223497 337.860342 
L 360.130909 336.249588 
L 359.038322 334.370374 
L 357.945734 332.222701 
L 356.853147 329.806569 
L 355.760559 327.121978 
L 354.667972 324.168928 
L 353.575385 320.947419 
L 352.482797 317.457451 
L 351.39021 313.699023 
L 350.297622 309.672137 
L 349.205035 305.376791 
L 348.112448 300.812987 
L 347.01986 295.980723 
L 345.927273 290.88 
" clip-path="url(#pb566eb7ba8)" style="fill: none; stroke: #000000; stroke-width: 1.5; stroke-linecap: square"/>
   </g>
   <g id="line2d_6">
    <path d="M 345.927273 290.88 
L 341.608951 270.72 
L 337.290629 251.621053 
L 332.972308 233.583158 
L 328.653986 216.606316 
L 324.335664 200.690526 
L 320.017343 185.835789 
L 315.699021 172.042105 
L 311.380699 159.309474 
L 307.062378 147.637895 
L 302.744056 137.027368 
L 298.425734 127.477895 
L 294.107413 118.989474 
L 289.789091 111.562105 
L 285.470769 105.195789 
L 281.152448 99.890526 
L 276.834126 95.646316 
L 272.515804 92.463158 
L 268.197483 90.341053 
L 263.879161 89.28 
L 259.560839 89.28 
L 255.242517 90.341053 
L 250.924196 92.463158 
L 246.605874 95.646316 
L 242.287552 99.890526 
L 237.969231 105.195789 
L 233.650909 111.562105 
L 229.332587 118.989474 
L 225.014266 127.477895 
L 220.695944 137.027368 
L 216.377622 147.637895 
L 212.059301 159.309474 
L 207.740979 172.042105 
L 203.422657 185.835789 
L 199.104336 200.690526 
L 194.786014 216.606316 
L 190.467692 233.583158 
L 186.149371 251.621053 
L 181.831049 270.72 
L 177.512727 290.88 
" clip-path="url(#pb566eb7ba8)" style="fill: none; stroke: #000000; stroke-width: 1.5; stroke-linecap: square"/>
   </g>
   <g id="line2d_7">
    <path d="M 177.512727 290.88 
L 176.42014 295.980723 
L 175.327552 300.812987 
L 174.234965 305.376791 
L 173.142378 309.672137 
L 172.04979 313.699023 
L 170.957203 317.457451 
L 169.864615 320.947419 
L 168.772028 324.168928 
L 167.679441 327.121978 
L 166.586853 329.806569 
L 165.494266 332.222701 
L 164.401678 334.370374 
L 163.309091 336.249588 
L 162.216503 337.860342 
L 161.123916 339.202638 
L 160.031329 340.276474 
L 158.938741 341.081852 
L 157.846154 341.61877 
L 156.753566 341.887229 
L 155.660979 341.887229 
L 154.568392 341.61877 
L 153.475804 341.081852 
L 152.383217 340.276474 
L 151.290629 339.202638 
L 150.198042 337.860342 
L 149.105455 336.249588 
L 148.012867 334.370374 
L 146.92028 332.222701 
L 145.827692 329.806569 
L 144.735105 327.121978 
L 143.642517 324.168928 
L 142.54993 320.947419 
L 141.457343 317.457451 
L 140.364755 313.699023 
L 139.272168 309.672137 
L 138.17958 305.376791 
L 137.086993 300.812987 
L 135.994406 295.980723 
L 134.901818 290.88 
" clip-path="url(#pb566eb7ba8)" style="fill: none; stroke: #000000; stroke-width: 1.5; stroke-linecap: square"/>
   </g>
   <g id="matplotlib.axis_1"/>
   <g id="matplotlib.axis_2"/>
   <g id="line2d_8">
    <path d="M 92.290909 290.88 
L 498.109091 290.88 
" clip-path="url(#pb566eb7ba8)" style="fill: none; stroke: #808080; stroke-width: 1.5; stroke-linecap: square"/>
   </g>
   <g id="patch_3">
    <path d="M 72 512.64 
L 72 69.12 
" style="fill: none; stroke: #000000; stroke-width: 0.8; stroke-linejoin: miter; stroke-linecap: square"/>
   </g>
   <g id="patch_4">
    <path d="M 518.4 512.64 
L 518.4 69.12 
" style="fill: none; stroke: #000000; stroke-width: 0.8; stroke-linejoin: miter; stroke-linecap: square"/>
   </g>
   <g id="patch_5">
    <path d="M 72 512.64 
L 518.4 512.64 
" style="fill: none; stroke: #000000; stroke-width: 0.8; stroke-linejoin: miter; stroke-linecap: square"/>
   </g>
   <g id="patch_6">
    <path d="M 72 69.12 
L 518.4 69.12 
" style="fill: none; stroke: #000000; stroke-width: 0.8; stroke-linejoin: miter; stroke-linecap: square"/>
   </g>
   <g id="PathCollection_1">
    <defs>
     <path id="mc7d79ef9dc" d="M 0 2.236068 
C 0.593012 2.236068 1.161816 2.000462 1.581139 1.581139 
C 2.000462 1.161816 2.236068 0.593012 2.236068 0 
C 2.236068 -0.593012 2.000462 -1.161816 1.581139 -1.581139 
C 1.161816 -2.000462 0.593012 -2.236068 0 -2.236068 
C -0.593012 -2.236068 -1.161816 -2.000462 -1.581139 -1.581139 
C -2.000462 -1.161816 -2.236068 -0.593012 -2.236068 0 
C -2.236068 0.593012 -2.000462 1.161816 -1.581139 1.581139 
C -1.161816 2.000462 -0.593012 2.236068 0 2.236068 
z
" style="stroke: #ff0000"/>
    </defs>
    <g clip-path="url(#pb566eb7ba8)">
     <use xlink:href="#mc7d79ef9dc" x="92.290909" y="290.88" style="fill: #ff0000; stroke: #ff0000"/>
    </g>
   </g>
   <g id="PathCollection_2">
    <g clip-path="url(#pb566eb7ba8)">
     <use xlink:href="#mc7d79ef9dc" x="134.901818" y="290.88" style="fill: #ff0000; stroke: #ff0000"/>
    </g>
   </g>
   <g id="PathCollection_3">
    <g clip-path="url(#pb566eb7ba8)">
     <use xlink:href="#mc7d79ef9dc" x="177.512727" y="290.88" style="fill: #ff0000; stroke: #ff0000"/>
    </g>
   </g>
   <g id="PathCollection_4">
    <g clip-path="url(#pb566eb7ba8)">
     <use xlink:href="#mc7d79ef9dc" x="260.705455" y="290.88" style="fill: #ff0000; stroke: #ff0000"/>
    </g>
   </g>
   <g id="PathCollection_5">
    <g clip-path="url(#pb566eb7ba8)">
     <use xlink:href="#mc7d79ef9dc" x="303.316364" y="290.88" style="fill: #ff0000; stroke: #ff0000"/>
    </g>
   </g>
   <g id="PathCollection_6">
    <g clip-path="url(#pb566eb7ba8)">
     <use xlink:href="#mc7d79ef9dc" x="345.927273" y="290.88" style="fill: #ff0000; stroke: #ff0000"/>
    </g>
   </g>
   <g id="PathCollection_7">
    <g clip-path="url(#pb566eb7ba8)">
     <use xlink:href="#mc7d79ef9dc" x="388.538182" y="290.88" style="fill: #ff0000; stroke: #ff0000"/>
    </g>
   </g>
   <g id="PathCollection_8">
    <g clip-path="url(#pb566eb7ba8)">
     <use xlink:href="#mc7d79ef9dc" x="431.149091" y="290.88" style="fill: #ff0000; stroke: #ff0000"/>
    </g>
   </g>
  </g>
 </g>
 <defs>
  <clipPath id="pb566eb7ba8">
   <rect x="72" y="69.12" width="446.4" height="443.52"/>
  </clipPath>
 </defs>
</svg>
